<?xml version="1.0" standalone="no"?>
<!DOCTYPE svg PUBLIC "-//W3C//DTD SVG 1.1//EN" "http://www.w3.org/Graphics/SVG/1.1/DTD/svg11.dtd" >
<svg>
<metadata>
Created by FontForge 20120731 at Fri Aug  5 18:58:38 2016
 By www
Copyright (c) 2009 by (c) 2009 Designed by Svetoslav Simov (c) Fontfabric, Inc. All rights reserved.
</metadata>
<defs>
<font id="UniSansW01-Light" horiz-adv-x="505" >
  <font-face 
    font-family="UniSansW01-Light"
    font-weight="300"
    font-stretch="normal"
    units-per-em="1000"
    panose-1="2 11 4 2 2 2 3 2 2 4"
    ascent="756"
    descent="-244"
    x-height="517"
    cap-height="707"
    bbox="-32 -218 991 911"
    underline-thickness="50"
    underline-position="-100"
    unicode-range="U+0002-2122"
  />
<missing-glyph horiz-adv-x="300" 
 />
    <glyph glyph-name=".notdef" horiz-adv-x="300" 
 />
    <glyph glyph-name=".null" horiz-adv-x="0" 
 />
    <glyph glyph-name="uni000D" unicode="&#xd;" horiz-adv-x="300" 
 />
    <glyph glyph-name="uni0002" horiz-adv-x="0" 
 />
    <glyph glyph-name="uni0009" unicode="&#x9;" horiz-adv-x="300" 
 />
    <glyph glyph-name="uni000A" unicode="&#xa;" horiz-adv-x="0" 
 />
    <glyph glyph-name="space" unicode=" " horiz-adv-x="300" 
 />
    <glyph glyph-name="exclam" unicode="!" horiz-adv-x="270" 
d="M141 131h-39v578h39v-578zM84 34q0 16 11 27t27 11t27 -11t11 -27t-11 -27t-27 -11t-27 11t-11 27z" />
    <glyph glyph-name="quotedbl" unicode="&#x22;" horiz-adv-x="266" 
d="M71 708h40q-2 -27 -4 -50t-4.5 -45t-4.5 -45t-4 -50h-23v190zM163 708h39l-16 -190h-23v190z" />
    <glyph glyph-name="numbersign" unicode="#" horiz-adv-x="715" 
d="M515 447l-52 -181h184q-2 -11 -4.5 -17.5t-4.5 -16.5h-187q-15 -54 -33.5 -116t-33.5 -116h-38l68 232h-186q-15 -54 -33.5 -116t-33.5 -116h-38l68 232h-158l7 34h162l53 181h-182l8 35h185l66 226h39l-67 -226h185l66 226h40l-68 -226h162l-10 -35h-164zM478 447h-185
l-53 -181h185z" />
    <glyph glyph-name="dollar" unicode="$" horiz-adv-x="569" 
d="M84 537q-2 -37 11.5 -61.5t38.5 -41t58.5 -27t71.5 -18.5v287q-35 -3 -66.5 -13.5t-56 -27.5t-40 -42t-17.5 -56zM293 676v-292q44 -8 86.5 -19.5t75.5 -34t52 -59.5t16 -94q-4 -40 -24 -72t-51.5 -55t-71.5 -36.5t-83 -16.5v-101h-29v101q-37 3 -71.5 11.5t-64.5 24
t-53 37.5t-37 51l36 15q12 -22 31.5 -39.5t44.5 -30.5t54 -20.5t60 -10.5v318q-42 9 -82 20.5t-71 32t-49 52t-16 81.5q1 40 19.5 71t48.5 53t69 35t81 16v100h29v-100q77 -2 132.5 -28.5t83.5 -82.5q-11 -5 -18 -7t-17 -7q-25 45 -69 64t-101 23h-11zM293 347v-312
q36 3 69 13.5t59.5 28.5t43 43t19.5 57q4 46 -9.5 75t-38 47t-59 28t-72.5 18z" />
    <glyph glyph-name="percent" unicode="%" horiz-adv-x="727" 
d="M317 525q0 -84 -39 -132t-99 -48q-66 0 -102 46.5t-36 135.5q0 88 39 133.5t99 45.5q65 0 101.5 -47t36.5 -134zM668 180q0 -85 -38.5 -132t-98.5 -47q-67 0 -102.5 46t-35.5 135q0 91 38.5 135t99.5 44q64 0 100.5 -48t36.5 -133zM631 180q0 75 -26.5 110t-74.5 35
q-98 0 -98 -143q0 -77 24 -110.5t76 -33.5q49 0 74 34t25 108zM617 733l-498 -790l-34 20l500 791zM279 525q0 75 -26.5 109.5t-74.5 34.5q-98 0 -98 -142q0 -77 24 -110.5t75 -33.5q50 0 75 34t25 108z" />
    <glyph glyph-name="ampersand" unicode="&#x26;" horiz-adv-x="611" 
d="M272 387l193 -196l58 98l30 -15l-64 -105l116 -133h-47l-88 99q-45 -60 -95 -94.5t-121 -34.5q-42 0 -79 13t-64 38t-43 59.5t-16 78.5q0 38 13.5 67.5t36 53.5t51.5 44t60 38q-16 19 -31.5 38t-28 39.5t-20 41.5t-7.5 43q0 35 13.5 62.5t36.5 47t52.5 30t62.5 10.5
q29 0 55.5 -10.5t47 -29t32.5 -44t12 -55.5q0 -35 -13 -61t-34 -46.5t-48 -36.5t-55 -31zM439 166l-201 207q-26 -15 -52 -32t-47 -38t-34.5 -47t-13.5 -59q0 -72 45 -114t126 -42q30 0 56 10.5t49 27t42.5 38t34.5 43.5zM288 674q-25 0 -47 -8t-39 -23t-27 -35.5t-10 -45.5
q0 -21 8 -41t20.5 -39t27 -36t27.5 -32q24 12 50.5 26t49 32t37.5 41t15 54q0 48 -31.5 77.5t-80.5 29.5z" />
    <glyph glyph-name="quotesingle" unicode="'" horiz-adv-x="186" 
d="M70 708h39q-2 -27 -3 -50.5t-2 -45.5t-2.5 -45t-2.5 -50h-29v191z" />
    <glyph glyph-name="parenleft" unicode="(" horiz-adv-x="260" 
d="M230 750q-60 -87 -91 -193t-31 -215.5t31.5 -216t95.5 -195.5q-8 -6 -15.5 -10t-15.5 -9q-68 96 -102 207t-34 225t33.5 224.5t98.5 204.5z" />
    <glyph glyph-name="parenright" unicode=")" horiz-adv-x="254" 
d="M21 -99q64 96 94 204t28.5 218t-33.5 217t-91 200q8 6 15.5 10t15.5 9q65 -94 99 -207t35.5 -230t-31 -231.5t-100.5 -210.5z" />
    <glyph glyph-name="asterisk" unicode="*" horiz-adv-x="414" 
d="M221 556q35 11 73.5 23t73.5 24l9 -29l-149 -46l97 -127q-7 -5 -12.5 -9.5t-10.5 -9.5l-96 129q-20 -29 -45.5 -63.5t-46.5 -64.5q-7 5 -12.5 9.5t-10.5 8.5l96 129l-153 47q4 15 9 28l151 -49l-2 153h31z" />
    <glyph glyph-name="plus" unicode="+" horiz-adv-x="593" 
d="M54 360h231v225h37v-225h222v-38h-222v-227h-37v227h-231v38z" />
    <glyph glyph-name="comma" unicode="," horiz-adv-x="244" 
d="M113 56h48q-9 -27 -18 -49t-18 -43t-18 -43t-18 -49h-36z" />
    <glyph glyph-name="hyphen" unicode="-" horiz-adv-x="359" 
d="M38 319h283v-38h-283v38z" />
    <glyph glyph-name="period" unicode="." horiz-adv-x="219" 
d="M69 35q0 16 11 27t27 11t27 -11t11 -27t-11 -27t-27 -11t-27 11t-11 27z" />
    <glyph glyph-name="slash" unicode="/" horiz-adv-x="370" 
d="M319 732l33 -11q-75 -189 -147.5 -372.5t-147.5 -372.5q-11 4 -18.5 6t-16.5 5z" />
    <glyph glyph-name="zero" unicode="0" horiz-adv-x="601" 
d="M95 183q0 -44 19 -73.5t49 -48.5t66.5 -27t72.5 -8q35 0 71.5 8t66.5 27t49 48.5t19 73.5v336q0 44 -19 74t-49 48.5t-66.5 26.5t-71.5 8q-36 0 -72.5 -8t-66.5 -26.5t-49 -48.5t-19 -74v-336zM302 -13q-44 0 -87.5 12t-79 36t-57.5 61t-22 87v336q0 51 22 88t57.5 61
t79 35.5t87.5 11.5q43 0 86.5 -11.5t79 -35.5t57.5 -61t22 -88v-336q0 -50 -22 -87t-57.5 -61t-79 -36t-86.5 -12z" />
    <glyph glyph-name="one" unicode="1" horiz-adv-x="313" 
d="M174 709h46v-709h-38v665l-131 -138q-9 7 -14 12t-13 11z" />
    <glyph glyph-name="two" unicode="2" horiz-adv-x="545" 
d="M269 673q-65 2 -113 -24.5t-74 -78.5q-11 5 -17.5 8t-16.5 8q32 70 86.5 97t135.5 28q49 0 89.5 -14t70 -39t46 -60t16.5 -78q0 -42 -22.5 -86t-64.5 -86l-310 -309h400v-39h-447q-4 10 -7 16.5t-7 15.5l344 342q37 36 56.5 74t19.5 73q0 31 -13 58t-37 47.5t-58.5 32.5
t-76.5 14z" />
    <glyph glyph-name="three" unicode="3" horiz-adv-x="564" 
d="M68 124q13 -24 34 -42t47.5 -29.5t56.5 -17.5t62 -6q39 0 76 10t66.5 30t47 50.5t17.5 71.5q0 89 -49.5 133.5t-136.5 43.5h-49v34h49q67 0 110.5 32t43.5 103q0 37 -15.5 63.5t-41 44t-57.5 26t-65 8.5q-53 0 -99 -20t-72 -60l-31 18q13 25 35 43.5t49 30.5t57.5 18
t62.5 6q40 0 78.5 -10.5t68.5 -32.5t48.5 -55.5t18.5 -79.5q0 -21 -4 -42.5t-14 -41.5t-27.5 -37t-43.5 -29q36 -13 60 -34t38 -47t19.5 -55.5t5.5 -60.5q-1 -50 -22.5 -87.5t-56 -62.5t-78.5 -37.5t-90 -12.5q-75 0 -137.5 28t-97.5 89z" />
    <glyph glyph-name="four" unicode="4" horiz-adv-x="538" 
d="M453 708v-479h59v-34h-59v-195h-39v195h-381l-21 34l390 479h51zM415 229l1 439l-360 -439h359z" />
    <glyph glyph-name="five" unicode="5" horiz-adv-x="579" 
d="M84 125q26 -45 78.5 -68t112.5 -23q39 0 76.5 11.5t67.5 34t48 55t18 74.5v38q0 42 -17 74t-45 54t-64.5 33.5t-76.5 11.5q-56 0 -100.5 -10t-93.5 -34q-4 0 -9.5 -1t-9.5 -1v324h418v-39h-379v-235q91 37 174 36q44 0 87 -14t77.5 -40.5t55.5 -66t22 -91.5v-39
q-1 -51 -22.5 -91t-56.5 -67.5t-79.5 -42t-90.5 -14.5q-72 0 -132 26t-95 88z" />
    <glyph glyph-name="six" unicode="6" horiz-adv-x="618" 
d="M508 585q-13 22 -33.5 39t-46 28t-54 17t-58.5 6q-41 0 -79.5 -10t-68.5 -29.5t-48 -49.5t-18 -70v-176q21 31 47 50t53.5 29.5t56.5 14t57 3.5q47 0 92 -12.5t79.5 -37t55.5 -61t21 -85.5v-50q0 -49 -21 -85.5t-55.5 -61t-79.5 -37t-92 -12.5q-48 0 -93 12t-80.5 36.5
t-57 61.5t-22.5 86v326q0 49 21.5 86t57 61.5t81 36.5t93.5 12q72 0 134 -27t93 -83zM525 240q0 40 -17.5 69.5t-47 49.5t-67 30t-77.5 10q-41 0 -79.5 -10t-68.5 -29.5t-48 -49.5t-18 -70v-48q0 -40 18 -70t48 -49.5t68.5 -29.5t79.5 -10q40 0 77.5 10t67 30t47 49.5
t17.5 69.5v48z" />
    <glyph glyph-name="seven" unicode="7" horiz-adv-x="491" 
d="M435 671h-399v37h430l16 -33l-375 -675h-44z" />
    <glyph glyph-name="eight" unicode="8" horiz-adv-x="579" 
d="M298 21q36 0 72.5 10.5t66.5 31.5t49 53t19 76q0 51 -17 84t-46 52.5t-66.5 27.5t-77.5 8h-19q-41 0 -78 -8t-66 -27.5t-46 -52.5t-17 -84q0 -44 19 -76t49 -53t66.5 -31.5t72.5 -10.5h19zM279 -16q-46 0 -90 13.5t-78 39.5t-55 65t-22 89q0 70 34.5 120t101.5 70
q-27 9 -46.5 25t-32 37t-18.5 45t-6 49q0 45 18.5 78.5t48 56t67.5 34t78 11.5h19q40 0 78 -11.5t68 -34t48 -56t18 -78.5q0 -21 -5 -44t-16.5 -43.5t-30.5 -37.5t-46 -27q66 -23 99 -74t33 -120q-1 -50 -22.5 -89t-55.5 -65t-78 -39.5t-90 -13.5h-19zM279 681
q-33 0 -64.5 -8.5t-56 -26.5t-39.5 -45t-15 -64q0 -42 15 -68.5t40 -42t56.5 -21t63.5 -5.5h19q32 0 63.5 5.5t56 21t40 42t15.5 68.5q0 37 -15 64t-39.5 45t-56 26.5t-64.5 8.5h-19z" />
    <glyph glyph-name="nine" unicode="9" horiz-adv-x="609" 
d="M102 118q26 -44 79 -67t112 -23q41 0 79.5 10t68.5 29.5t48 49.5t18 70v174q-22 -29 -48 -47t-53.5 -27.5t-56 -12.5t-56.5 -3q-47 0 -92 12.5t-79.5 37t-55.5 61t-21 85.5v54q0 49 21 85.5t55.5 61t79.5 37t92 12.5q48 0 93 -12t80.5 -36.5t57 -61.5t22.5 -86v-335
q0 -49 -21.5 -86t-57 -61.5t-81 -36.5t-93.5 -12q-72 0 -134 27t-93 83zM84 468q0 -40 17.5 -69.5t47 -49.5t67 -30t77.5 -10q41 0 79.5 10t68.5 29.5t48 49.5t18 70v52q0 40 -18 70t-48 49.5t-68.5 29.5t-79.5 10q-40 0 -77.5 -10t-67 -30t-47 -49.5t-17.5 -69.5v-52z" />
    <glyph glyph-name="colon" unicode=":" horiz-adv-x="240" 
d="M80 435q0 16 11 27t27 11t27 -11t11 -27t-11 -27t-27 -11t-27 11t-11 27zM80 57q0 16 11 27t27 11t27 -11t11 -27t-11 -27t-27 -11t-27 11t-11 27z" />
    <glyph glyph-name="semicolon" unicode=";" horiz-adv-x="248" 
d="M106 60h57l-68 -166h-39zM85 420q0 16 11 27t27 11t27 -11t11 -27t-11 -27t-27 -11t-27 11t-11 27z" />
    <glyph glyph-name="less" unicode="&#x3c;" horiz-adv-x="465" 
d="M391 476l-298 -173q71 -41 149 -85t149 -86v-42l-332 195v36l332 198v-43z" />
    <glyph glyph-name="equal" unicode="=" horiz-adv-x="560" 
d="M88 389h387v-34h-387v34zM88 252h387v-35h-387v35z" />
    <glyph glyph-name="greater" unicode="&#x3e;" horiz-adv-x="480" 
d="M85 519l332 -198v-36l-332 -195v40l298 173l-298 173v43z" />
    <glyph glyph-name="question" unicode="?" horiz-adv-x="470" 
d="M31 634q33 38 78 57t97 19q41 0 80 -12.5t69 -37t48 -61t18 -84.5q0 -47 -17.5 -83t-46 -62t-65 -42t-76.5 -23q-1 -19 -2 -44t-2 -51.5t-2 -52t-2 -44.5h-29l-6 224q41 1 79.5 14t68 36t47 55.5t16.5 73.5q-1 39 -16.5 68.5t-40.5 49t-57 29.5t-66 10q-39 0 -81 -18.5
t-70 -44.5zM195 70q15 0 25.5 -11t10.5 -27t-10.5 -26.5t-25.5 -10.5q-16 0 -27 10.5t-11 26.5t11 27t27 11z" />
    <glyph glyph-name="at" unicode="@" horiz-adv-x="763" 
d="M231 227q0 -45 25 -74.5t68 -29.5q37 0 69.5 24t57 59.5t39 76t14.5 74.5q0 52 -21.5 82t-68.5 30q-46 1 -80 -23t-57 -60t-34.5 -79t-11.5 -80zM594 481l-91 -271q-5 -16 -8.5 -30.5t-3.5 -19.5q0 -11 6.5 -23.5t28.5 -12.5q27 0 57 22.5t54.5 58t41 79.5t16.5 87
q0 57 -24 104t-64 80t-92.5 51.5t-109.5 18.5q-72 0 -131 -26.5t-101.5 -71t-66 -103.5t-23.5 -123q0 -77 35 -144.5t93 -113t134 -62t158 8.5q8 -17 14 -27q-89 -30 -173.5 -14.5t-149.5 64.5t-104.5 124t-39.5 164q0 74 27.5 138.5t75 112.5t112 75.5t138.5 27.5
q69 0 128.5 -21.5t103 -60t68.5 -90.5t25 -112q0 -59 -21.5 -111t-54 -90t-71 -59.5t-72.5 -19.5q-28 2 -38.5 20.5t-10.5 57.5q-29 -38 -67.5 -58t-73.5 -20q-30 0 -53 10.5t-38.5 29t-23 43t-7.5 51.5q0 49 15.5 98.5t44 89t69.5 64t92 24.5q15 0 32.5 -5.5t33.5 -17.5
t28.5 -32t16.5 -50q3 7 6.5 18t8 23l9 24l7.5 20h34z" />
    <glyph glyph-name="A" unicode="A" horiz-adv-x="619" 
d="M279 722h57l260 -722h-42l-89 246h-317q-20 -57 -43 -123t-43 -123h-42zM452 285l-145 408l-145 -408h290z" />
    <glyph glyph-name="B" unicode="B" horiz-adv-x="630" 
d="M125 392h227q33 0 61.5 8t49.5 25.5t32.5 44t11.5 62.5q0 35 -12 61.5t-33 44t-49.5 26.5t-60.5 9h-227v-281zM125 357v-319h227q41 -1 75.5 6.5t59 25.5t38.5 48t14 75q0 89 -50.5 127t-136.5 37h-227zM475 368q31 -12 51.5 -32t32 -43.5t15.5 -49.5t4 -51
q-1 -53 -19 -90t-48 -60t-71 -33t-89 -10h-265v710h266q39 0 74 -11.5t61.5 -34t41.5 -55t15 -75.5q0 -42 -17 -82.5t-56 -63.5l-29 -12z" />
    <glyph glyph-name="C" unicode="C" horiz-adv-x="576" 
d="M56 511q0 51 22.5 89t58.5 64t82.5 39t94.5 13q35 0 69.5 -6.5t65 -20.5t55 -35t39.5 -50q-11 -5 -18 -9t-17 -9q-14 22 -35 39.5t-47 28.5t-55.5 17t-59.5 6q-40 0 -79 -10.5t-69.5 -31t-49 -51.5t-18.5 -73v-314q0 -42 18.5 -73t49 -51.5t69.5 -31t79 -10.5q30 0 59 6
t55.5 17t48 28t35.5 40q11 -5 17.5 -8.5t16.5 -8.5q-15 -29 -40 -50t-56 -35t-65.5 -21t-70.5 -7q-47 0 -93 13t-82 38.5t-58 64t-22 89.5v314z" />
    <glyph glyph-name="D" unicode="D" horiz-adv-x="620" 
d="M89 0v708h246q48 0 90.5 -11t75 -35t51 -61.5t18.5 -89.5v-315q0 -52 -18.5 -89t-51 -61t-75 -35t-90.5 -11h-246zM128 39h207q40 0 76 9t62.5 27.5t42 48.5t15.5 72v315q0 42 -15.5 72t-42 49t-62.5 28t-76 9h-207v-630z" />
    <glyph glyph-name="E" unicode="E" horiz-adv-x="572" 
d="M517 669h-389v-295h359v-40h-359v-294h389v-39h-428v707h428v-39z" />
    <glyph glyph-name="F" unicode="F" horiz-adv-x="546" 
d="M511 708v-39h-383v-309h345v-39h-345v-320h-39v707h422z" />
    <glyph glyph-name="G" unicode="G" horiz-adv-x="653" 
d="M54 201v309q0 51 22 89t58 64t81.5 39t93.5 13q35 0 69.5 -7t64.5 -21t54.5 -35t39.5 -50q-11 -5 -18 -9t-17 -9q-13 24 -34 41.5t-46.5 28.5t-55 16.5t-59.5 5.5q-40 0 -78.5 -10.5t-68.5 -31t-48.5 -51.5t-18.5 -73v-309q0 -42 18.5 -73.5t49 -52.5t69 -31.5
t79.5 -10.5q40 0 79 10.5t70 31.5t49.5 52.5t18.5 73.5v105h-217v39h256v-144q0 -52 -22 -91t-58 -65t-82 -39t-94 -13t-94 13t-81.5 39t-57.5 65t-22 91z" />
    <glyph glyph-name="H" unicode="H" horiz-adv-x="688" 
d="M560 334h-433v-334h-39v708h39v-335h433v335h39v-708h-39v334z" />
    <glyph glyph-name="I" unicode="I" horiz-adv-x="232" 
d="M90 707h39v-707h-39v707z" />
    <glyph glyph-name="J" unicode="J" horiz-adv-x="579" 
d="M451 669h-236v39h275v-514q0 -51 -21 -89t-55.5 -63.5t-78.5 -38.5t-90 -13q-39 0 -77 9.5t-69.5 29t-54 49t-32.5 68.5q12 2 19.5 4t17.5 4q8 -32 28 -56t47 -40t59 -24t65 -8q38 0 74.5 10.5t65 31.5t46 52.5t17.5 73.5v475z" />
    <glyph glyph-name="K" unicode="K" horiz-adv-x="608" 
d="M89 708h39v-413q49 48 101 100.5t104 106t104 106t101 100.5h48l-331 -341q83 -90 164.5 -183t165.5 -183h-49l-309 338l-99 -99v-239h-39v707z" />
    <glyph glyph-name="L" unicode="L" horiz-adv-x="506" 
d="M483 40v-39h-393v708h39v-669h354z" />
    <glyph glyph-name="M" unicode="M" horiz-adv-x="797" 
d="M420 107h-42l-253 572v-679h-39v708h68l245 -556l246 556h66v-708h-39v678z" />
    <glyph glyph-name="N" unicode="N" horiz-adv-x="689" 
d="M89 708h49l410 -659v659h39v-708h-57l-402 648v-648h-39v708z" />
    <glyph glyph-name="O" unicode="O" horiz-adv-x="682" 
d="M70 511q0 52 23 90.5t61 64.5t86.5 39t99.5 13t99.5 -13t86.5 -39t61.5 -64.5t23.5 -90.5v-314q0 -52 -23.5 -91t-61.5 -65t-86.5 -39t-99.5 -13t-99.5 13t-86.5 39t-61 65t-23 91v314zM109 197q0 -42 20 -74t52 -53t73.5 -31.5t85.5 -10.5q43 0 85 10.5t74.5 31.5
t52.5 53t20 74v314q0 45 -20 77t-53 52.5t-75 30t-85 9.5t-84.5 -10t-73.5 -31t-52 -52.5t-20 -75.5v-314z" />
    <glyph glyph-name="P" unicode="P" horiz-adv-x="616" 
d="M129 275v-274h-39v707h257q56 -1 98 -20t70 -49.5t42 -69t14.5 -79t-13.5 -79t-42 -68.5t-70 -49t-98 -19h-219zM347 314q63 0 104.5 26.5t61.5 65.5t20 85t-21 85.5t-62.5 66t-102.5 26.5h-218v-355h218z" />
    <glyph glyph-name="Q" unicode="Q" horiz-adv-x="683" 
d="M474 178l58 -76q19 23 29.5 48t10.5 53v302q0 45 -20 77t-52.5 52.5t-74.5 30t-85 9.5t-84.5 -10t-73.5 -31t-52 -52.5t-20 -75.5v-302q0 -42 19.5 -74t52 -53t74 -31.5t85.5 -10.5q42 0 84.5 10.5t78.5 33.5l-60 79zM556 70q10 -14 24 -30t25 -30q-10 -5 -17 -10
t-15 -10l-46 57q-42 -26 -90 -39t-96 -13q-51 0 -99.5 13t-86.5 39t-61 65t-23 91v302q0 52 23 90.5t61 64.5t86.5 39t99.5 13t99.5 -13t86.5 -39t61 -64.5t23 -90.5v-302q0 -37 -14.5 -71t-34.5 -56z" />
    <glyph glyph-name="R" unicode="R" horiz-adv-x="624" 
d="M324 310q28 -35 58 -74.5t60.5 -80t61 -80t58.5 -75.5h-46l-238 310h-150v-310h-39v708h257q48 0 89 -11.5t71 -35.5t48 -62t19 -90q0 -57 -16.5 -95t-46.5 -61.5t-71.5 -33t-91.5 -9.5h-23zM347 344q93 0 140 37t47 127q0 45 -14 76t-38.5 50t-59 27.5t-75.5 7.5h-219
v-325h219z" />
    <glyph glyph-name="S" unicode="S" horiz-adv-x="595" 
d="M103 545q-3 -38 12 -65t43 -46.5t65 -32.5t79 -21q45 -9 89 -22t78.5 -36.5t55 -59.5t17.5 -90q-2 -45 -23.5 -78.5t-55.5 -56.5t-76.5 -34.5t-87.5 -11.5q-35 0 -71.5 7.5t-69 23t-59 38.5t-42.5 54l35 16q13 -25 36 -44t50.5 -32t59 -19.5t63.5 -6.5q36 0 70 8
t61.5 25.5t46.5 45t24 66.5q3 46 -14.5 75.5t-48 48.5t-70 29.5t-79.5 19.5q-41 9 -82 22.5t-74 36.5t-52.5 57t-17.5 84q1 43 21.5 75.5t53.5 54t74.5 32t85.5 10.5q36 0 72 -7.5t67.5 -22t57 -37t40.5 -52.5q-11 -5 -18 -7.5t-17 -7.5q-13 24 -35 42.5t-49 31t-57.5 19
t-60.5 6.5q-36 0 -70.5 -7t-61.5 -23.5t-44.5 -43t-20.5 -64.5z" />
    <glyph glyph-name="T" unicode="T" horiz-adv-x="551" 
d="M20 709h511v-39h-236v-669h-39v669h-236v39z" />
    <glyph glyph-name="U" unicode="U" horiz-adv-x="684" 
d="M86 708h39v-504q0 -43 18.5 -75t49 -53.5t69 -32t79.5 -10.5q40 0 79 10.5t70 32t49.5 53.5t18.5 75v504h39v-504q0 -53 -22 -92.5t-58 -65.5t-82 -39.5t-94 -13.5t-94 13.5t-81.5 39.5t-57.5 65.5t-22 92.5v504z" />
    <glyph glyph-name="V" unicode="V" horiz-adv-x="607" 
d="M334 -12h-63l-259 720h43l247 -691q29 82 60 169t62.5 175.5t62.5 175.5t60 170h42z" />
    <glyph glyph-name="W" unicode="W" horiz-adv-x="924" 
d="M672 15l194 693h40l-208 -717h-58l-179 566q-20 -64 -43 -136.5t-47 -146.5t-47 -146.5t-43 -136.5h-58l-206 717h40l193 -693h4l186 590h41l187 -590h4z" />
    <glyph glyph-name="X" unicode="X" horiz-adv-x="589" 
d="M548 707l-234 -354q57 -85 117 -176.5t118 -176.5h-47l-211 325l-212 -325h-47l236 353l-234 354h44l213 -320q25 37 51.5 77.5t53.5 82t54 82t52 78.5h46z" />
    <glyph glyph-name="Y" unicode="Y" horiz-adv-x="572" 
d="M544 707l-239 -427v-280h-39v280l-238 427h45l213 -392l212 392h46z" />
    <glyph glyph-name="Z" unicode="Z" horiz-adv-x="563" 
d="M477 672h-428v36h462l21 -22l-450 -650h436v-36h-473l-17 23z" />
    <glyph glyph-name="bracketleft" unicode="[" horiz-adv-x="235" 
d="M208 723h-92v-814h92v-32h-130v878h130v-32z" />
    <glyph glyph-name="backslash" unicode="\" horiz-adv-x="362" 
d="M345 -26l-35 -12l-312 784l34 11z" />
    <glyph glyph-name="bracketright" unicode="]" horiz-adv-x="210" 
d="M17 -94h90v814h-90v35h130v-886h-130v37z" />
    <glyph glyph-name="asciicircum" unicode="^" horiz-adv-x="571" 
d="M254 708h36q49 -66 96 -131.5t96 -131.5h-45l-165 234q-38 -56 -79.5 -116.5t-79.5 -117.5h-45z" />
    <glyph glyph-name="underscore" unicode="_" horiz-adv-x="500" 
d="M10 -27h480v-36h-480v36z" />
    <glyph glyph-name="grave" unicode="`" horiz-adv-x="210" 
d="M151 597h-38l-88 110h57z" />
    <glyph glyph-name="a" unicode="a" 
d="M392 373q0 31 -13 53.5t-34.5 37t-49 21t-56.5 6.5q-74 0 -129 -51q-7 7 -12 13t-10 11q32 33 72 47t85 14q35 0 68 -9.5t58.5 -28.5t41 -47.5t15.5 -66.5v-353q-48 -16 -99 -23t-103 -6q-36 0 -67 12.5t-54 34.5t-36.5 53t-13.5 69q0 43 16.5 73.5t43 50t61 29t71.5 9.5
q34 0 72 -6.5t73 -22.5v80zM392 43v216q-30 12 -69.5 21t-77.5 9q-30 0 -58 -6.5t-49.5 -21.5t-34.5 -40t-13 -61q0 -33 10.5 -58.5t29.5 -42.5t44 -26.5t55 -9.5q79 -2 155 17z" />
    <glyph glyph-name="b" unicode="b" horiz-adv-x="501" 
d="M69 708h36v-218q78 35 151 35q35 0 68.5 -10t60 -30t42.5 -49.5t16 -68.5v-212q0 -39 -16 -69.5t-41.5 -51t-59 -31.5t-67.5 -12q-98 0 -190 29v688zM105 449v-401q40 -14 78.5 -18t75.5 -4q28 0 54.5 8.5t47 24.5t33 40t12.5 54v214q0 31 -12.5 54t-33.5 38t-48 22.5
t-55 7.5q-37 0 -74.5 -10.5t-71.5 -25.5z" />
    <glyph glyph-name="c" unicode="c" horiz-adv-x="442" 
d="M378 429q-20 30 -56.5 44.5t-77.5 14.5q-28 0 -55 -7t-48 -22t-34 -37.5t-13 -53.5v-217q0 -32 13 -55t34 -38t48 -22t55 -7q45 0 85 19t57 57l33 -16q-22 -47 -71 -71.5t-104 -24.5q-35 0 -68 10t-59.5 29.5t-42.5 49t-16 69.5v215q0 40 16 69.5t42.5 49t59.5 29.5
t68 10q49 0 93.5 -18.5t69.5 -57.5z" />
    <glyph glyph-name="d" unicode="d" horiz-adv-x="511" 
d="M441 708v-685q-45 -14 -93 -22.5t-97 -8.5q-35 1 -68 11t-58.5 29.5t-41.5 49t-16 68.5v216q0 39 16 68.5t42 49.5t60 30t69 10q36 0 74.5 -8t76.5 -25v217h36zM405 455q-38 17 -76.5 25t-75.5 8q-29 0 -55.5 -7.5t-47.5 -22.5t-33.5 -37.5t-12.5 -53.5v-217
q0 -31 12 -54t33 -38.5t47.5 -23t54.5 -7.5q37 0 75.5 5t78.5 19v404z" />
    <glyph glyph-name="e" unicode="e" horiz-adv-x="491" 
d="M397 366q0 31 -13 53.5t-34 37.5t-48 22.5t-55 7.5q-29 0 -56 -7.5t-48 -22.5t-33.5 -37.5t-12.5 -53.5v-99h300v97v2zM97 234v-82q0 -32 12.5 -54.5t33.5 -37.5t48 -22t56 -7q42 0 79 15.5t57 49.5l33 -17q-12 -22 -30 -38t-40.5 -26.5t-47.5 -15.5t-51 -5
q-35 0 -68.5 10t-60 29.5t-42.5 49t-16 69.5v212q0 40 16 69.5t42.5 49t60 29.5t68.5 10q34 0 67.5 -10t60 -29.5t42.5 -49t16 -69.5v-130h-336z" />
    <glyph glyph-name="f" unicode="f" horiz-adv-x="262" 
d="M228 678q-54 -2 -86.5 -33.5t-32.5 -88.5v-126h112v-36h-112v-394h-36v556q0 38 12 67t32.5 48.5t49 30t61.5 12.5v-36z" />
    <glyph glyph-name="g" unicode="g" horiz-adv-x="501" 
d="M114 -99q22 -18 52 -28.5t61.5 -13.5t62 2.5t54.5 19.5t38.5 37.5t14.5 57.5v54q-40 -20 -77 -28.5t-72 -8.5t-68 10t-59 29.5t-42 49t-16 68.5v223q0 39 15.5 68t41 48.5t58 29.5t66.5 10q52 0 94.5 -10.5t93.5 -27.5v-514q0 -40 -15.5 -69t-41.5 -47.5t-59 -27.5
t-67 -9q-45 0 -86.5 14t-70.5 41zM397 67v397q-26 11 -68 20.5t-85 9.5q-28 0 -54 -7.5t-46.5 -22.5t-32.5 -37.5t-12 -52.5v-224q0 -31 12 -53.5t33 -37.5t47.5 -22.5t54.5 -8.5q41 1 73.5 9.5t71.5 24.5z" />
    <glyph glyph-name="h" unicode="h" horiz-adv-x="528" 
d="M79 708h36v-237q79 37 150 37q35 1 68.5 -9t59.5 -30t42 -49.5t16 -68.5v-351h-36v351q0 31 -13 53.5t-34 37.5t-47.5 22.5t-54.5 7.5q-36 0 -75 -8t-76 -23v-441h-36v708z" />
    <glyph glyph-name="i" unicode="i" horiz-adv-x="215" 
d="M71 666q0 14 10.5 24.5t24.5 10.5t24.5 -10.5t10.5 -24.5t-10.5 -24.5t-24.5 -10.5t-24.5 10.5t-10.5 24.5zM90 519h36v-520h-36v520z" />
    <glyph glyph-name="j" unicode="j" horiz-adv-x="219" 
d="M75 671q0 14 10.5 24.5t24.5 10.5t24.5 -10.5t10.5 -24.5t-10.5 -24.5t-24.5 -10.5t-24.5 10.5t-10.5 24.5zM-21 -146q113 3 113 124v541h36v-541q0 -77 -40 -117t-109 -43v36z" />
    <glyph glyph-name="k" unicode="k" horiz-adv-x="472" 
d="M78 707h36v-486l288 296h44l-224 -232l224 -285h-43l-206 259l-83 -83v-176h-36v707z" />
    <glyph glyph-name="l" unicode="l" horiz-adv-x="232" 
d="M212 -3q-67 2 -102.5 40.5t-35.5 113.5v557h36v-557q0 -57 24 -87.5t78 -30.5v-36z" />
    <glyph glyph-name="m" unicode="m" horiz-adv-x="822" 
d="M81 0v488q32 23 75 32.5t87 9.5q47 0 89 -14t77 -58q17 21 35 34t36.5 20.5t38 10t39.5 3.5q37 1 70.5 -8.5t58.5 -30t40 -52t15 -72.5v-363h-37v361q2 42 -17 70t-50 43t-67.5 17t-68.5 -9t-53.5 -35t-22.5 -60v-387h-35v387q-1 42 -32.5 66.5t-75 33.5t-89.5 2.5
t-76 -25.5v-464h-37z" />
    <glyph glyph-name="n" unicode="n" horiz-adv-x="532" 
d="M80 0v491q45 16 92.5 27t96.5 11q34 -1 67 -11t58.5 -29.5t41 -49t15.5 -68.5v-371h-36v371q0 31 -13 54t-33.5 38t-46.5 22t-53 7q-43 0 -85 -9.5t-68 -20.5v-462h-36z" />
    <glyph glyph-name="o" unicode="o" horiz-adv-x="503" 
d="M252 488q-27 0 -54 -7t-48.5 -22t-35 -38t-13.5 -55v-215q0 -32 13.5 -55.5t35 -38.5t48.5 -22t54 -7t54 7t48 22t34.5 38.5t13.5 55.5v215q0 32 -13.5 55t-34.5 38t-48 22t-54 7zM65 366q0 40 16 69.5t42.5 49.5t60 30t68.5 10t68.5 -10t59.5 -30t42 -49.5t16 -69.5
v-215q0 -40 -16 -69.5t-42 -49.5t-59.5 -30t-68.5 -10t-68.5 10t-60 30t-42.5 49.5t-16 69.5v215z" />
    <glyph glyph-name="p" unicode="p" 
d="M70 -181v677q25 8 48 14t45.5 9.5t46 5t50.5 1.5q34 0 67.5 -9.5t59 -28.5t41.5 -48.5t16 -71.5v-215q0 -39 -16 -69t-42.5 -50.5t-60 -30.5t-68.5 -10q-36 1 -74.5 7t-76.5 24v-205h-36zM106 62q36 -15 75 -23.5t77 -8.5q28 0 55 7.5t48 22.5t33.5 38t12.5 53v217
q0 32 -12.5 55t-33 37.5t-47 21.5t-54.5 7q-37 0 -75 -3.5t-79 -17.5v-406z" />
    <glyph glyph-name="q" unicode="q" 
d="M436 -181h-36v209q-38 -18 -76.5 -26.5t-74.5 -9.5q-35 0 -69 10.5t-60 31t-42 51t-16 69.5v215q0 39 16 68.5t41.5 49.5t58.5 30t68 10q30 0 53 -1.5t44 -5t42.5 -10t50.5 -15.5v-676zM400 470q-17 6 -37.5 10t-41.5 6t-40.5 3t-34.5 1q-28 0 -54.5 -7.5t-47.5 -22.5
t-33 -37.5t-12 -51.5v-217q0 -31 12.5 -54t33.5 -38t47.5 -23t55.5 -8q37 0 75.5 9t76.5 30v400z" />
    <glyph glyph-name="r" unicode="r" horiz-adv-x="307" 
d="M209 519q18 4 33.5 3.5t33.5 -2.5v-35q-17 2 -32 2t-32 -4q-42 -10 -73 -39t-31 -80v-364h-36v364q0 32 10.5 58t29.5 45.5t43.5 32.5t53.5 19z" />
    <glyph glyph-name="s" unicode="s" horiz-adv-x="422" 
d="M64 107q32 -43 72 -62.5t86 -17.5q21 0 43.5 7t41.5 20.5t30.5 34.5t11.5 49q0 29 -12 48t-31 31.5t-41.5 19.5t-44.5 11q-30 5 -60.5 14t-55 24.5t-40 40t-15.5 61.5q0 39 17 67t44.5 45t62 23.5t68.5 3t65 -17t52 -36.5l-22 -26q-26 28 -68 40t-82 5.5t-70 -32.5
t-32 -72q0 -31 14.5 -49.5t36 -30t46 -16.5t45.5 -9q29 -5 57 -15t50 -27t36 -42t14 -61q0 -35 -13.5 -61.5t-36 -44.5t-51.5 -27.5t-60 -10.5q-57 -2 -106 22t-81 72z" />
    <glyph glyph-name="t" unicode="t" horiz-adv-x="275" 
d="M253 51v-46q-34 1 -65.5 11.5t-56 30t-39.5 48.5t-15 68v535h36v-190h112v-36h-112v-309q0 -32 13 -55t34.5 -38t48.5 -22t54 -7z" />
    <glyph glyph-name="u" unicode="u" horiz-adv-x="517" 
d="M445 518v-489q-45 -16 -92.5 -27t-96.5 -11q-34 1 -67 11t-58.5 29.5t-41 49t-15.5 68.5v369h36v-369q0 -31 13 -54t33.5 -38t46.5 -22t53 -7q43 0 85 9.5t68 20.5v460h36z" />
    <glyph glyph-name="v" unicode="v" horiz-adv-x="467" 
d="M235 21l173 497h38l-185 -525h-53q-45 128 -92.5 262.5t-92.5 262.5h39z" />
    <glyph glyph-name="w" unicode="w" horiz-adv-x="712" 
d="M356 494l-119 -497h-58l-156 521h37l148 -502l120 502h55l122 -500q16 56 35 120t38 129.5t38 129.5t36 121h37l-155 -521h-61z" />
    <glyph glyph-name="x" unicode="x" horiz-adv-x="451" 
d="M372 518h44l-168 -259l168 -259h-44l-148 234l-149 -234h-44l169 259l-169 259h45l148 -234z" />
    <glyph glyph-name="y" unicode="y" horiz-adv-x="519" 
d="M443 517v-540q0 -40 -15.5 -69t-41.5 -47.5t-59 -27.5t-67 -9q-45 0 -86.5 14t-70.5 41l22 22q22 -18 52 -28.5t61.5 -13.5t62 2.5t54.5 19.5t38.5 37.5t14.5 57.5v54q-40 -20 -77 -28.5t-72 -8.5t-68.5 10t-59.5 29.5t-42 49t-16 68.5v367h36v-367q0 -31 12.5 -53.5
t33 -37.5t47.5 -22.5t55 -8.5q41 1 73.5 9.5t71.5 24.5l6 5v450h35z" />
    <glyph glyph-name="z" unicode="z" horiz-adv-x="437" 
d="M354 484h-311v34h346l15 -24l-331 -459h326v-35h-356l-19 28z" />
    <glyph glyph-name="braceleft" unicode="{" horiz-adv-x="287" 
d="M248 720h-27q-19 0 -29.5 -5.5t-16 -16.5t-6.5 -27t-1 -37v-146q0 -43 -6 -74t-15.5 -51.5t-21 -32t-20.5 -15.5q6 -4 16 -13.5t20.5 -29t18 -52t7.5 -82.5v-147q0 -38 10.5 -58t48.5 -20h22v-35h-24q-52 0 -73 30t-21 81v146q0 29 -3.5 57t-11.5 50t-21.5 37t-33.5 18
v30q20 3 33.5 18t22 37.5t12 50.5t3.5 57v145q0 26 3 48t12.5 37.5t26.5 24.5t45 9h30v-34z" />
    <glyph glyph-name="bar" unicode="|" horiz-adv-x="230" 
d="M133 754v-922h-36v922h36z" />
    <glyph glyph-name="braceright" unicode="}" horiz-adv-x="279" 
d="M34 754h30q28 0 45 -9t26.5 -24.5t12.5 -37.5t3 -48v-145q0 -29 3.5 -57t11.5 -50.5t22 -37.5t34 -18v-30q-20 -3 -33.5 -18t-21.5 -37t-11.5 -50t-3.5 -57v-146q0 -51 -21 -81t-73 -30h-24v35h22q38 0 48.5 20t10.5 58v147q0 50 7.5 82.5t18 52t20.5 29t16 13.5
q-9 4 -20.5 15.5t-21 32t-15.5 51.5t-6 74v146q0 21 -1 37t-6.5 27t-16 16.5t-29.5 5.5h-27v34z" />
    <glyph glyph-name="asciitilde" unicode="~" horiz-adv-x="539" 
d="M469 332q-16 -31 -43.5 -54.5t-65.5 -23.5q-25 0 -48 10t-42 23q-20 13 -39 24t-41 11q-31 0 -51.5 -18.5t-38.5 -44.5q-7 5 -10.5 9.5t-8.5 9.5q8 13 18.5 27t24.5 24.5t31 17.5t38 7q28 0 51.5 -12.5t43.5 -26.5q19 -12 36.5 -21t35.5 -9q31 0 52 19t38 45z" />
    <glyph glyph-name="uni00A0" unicode="&#xa0;" horiz-adv-x="260" 
 />
    <glyph glyph-name="exclamdown" unicode="&#xa1;" horiz-adv-x="278" 
d="M116 351h40v-563h-40v563zM174 480q0 -16 -11 -27t-27 -11t-27 11t-11 27t11 27t27 11t27 -11t11 -27z" />
    <glyph glyph-name="cent" unicode="&#xa2;" horiz-adv-x="460" 
d="M379 428q-17 26 -49 40.5t-71 18.5v-455q45 4 80 22t49 54l32 -16q-19 -45 -63 -68t-98 -28v-91h-31v91q-33 4 -63.5 15.5t-53.5 31t-37 47.5t-14 64v211q0 36 14 64t37 47.5t53.5 31t63.5 14.5v92h31v-91q48 -3 87 -22t62 -54zM228 486q-27 -4 -51 -13t-42 -23.5
t-28.5 -35t-10.5 -47.5v-213q0 -27 10.5 -48t28.5 -36t42 -24t51 -13v453z" />
    <glyph glyph-name="sterling" unicode="&#xa3;" horiz-adv-x="458" 
d="M30 33h104v322h-104v34h104v135q0 32 9 66.5t31 62.5t59 46t92 18q35 0 63.5 -10.5t57.5 -34.5l-25 -25q-20 18 -44 27t-55 9q-41 0 -69.5 -14t-46.5 -36.5t-26.5 -50.5t-8.5 -55v-138h165v-34h-165v-322h245v-33h-386v33z" />
    <glyph glyph-name="currency" unicode="&#xa4;" horiz-adv-x="561" 
d="M104 195q-31 34 -45 74.5t-14 84.5q0 89 62 157q-13 12 -27 27.5t-28 28.5l21 22l53 -55q35 27 75.5 42t82.5 15t83 -15t76 -42q10 9 25.5 26.5t26.5 28.5l21 -22l-54 -56q31 -34 46 -73.5t15 -83.5q0 -89 -62 -157q13 -12 28.5 -27.5t29.5 -28.5l-23 -22l-54 55
q-35 -27 -75.5 -41.5t-82.5 -14.5t-84 13.5t-77 40.5q-10 -9 -24.5 -25.5t-25.5 -27.5l-21 22zM79 353q0 -43 16 -80t44 -64.5t65 -43.5t78 -16q42 0 79 16t64.5 43.5t44 64.5t16.5 80t-16.5 81t-44 65.5t-64.5 43.5t-79 16q-41 0 -78 -16t-65 -43.5t-44 -65.5t-16 -81z" />
    <glyph glyph-name="yen" unicode="&#xa5;" horiz-adv-x="490" 
d="M499 709l-226 -410h149q-4 -19 -7 -35h-162v-62h169q-2 -8 -3 -17.5t-3 -16.5h-163v-168h-36v168h-166l4 34h162v62h-164q2 8 3 18t3 17h141l-222 410h45l213 -402q25 46 52.5 97.5t55.5 103.5t55.5 103t52.5 98h47z" />
    <glyph glyph-name="brokenbar" unicode="&#xa6;" horiz-adv-x="213" 
d="M126 696v-330h-38v330h38zM126 216v-350h-38v350h38z" />
    <glyph glyph-name="section" unicode="&#xa7;" horiz-adv-x="496" 
d="M301 159q15 8 31 20t29.5 26.5t22.5 32t9 35.5q0 20 -8.5 37.5t-21.5 32t-28 25.5t-28 18l-79 38q-19 -6 -39.5 -15.5t-37.5 -22.5t-28 -30.5t-11 -40.5q0 -44 22.5 -65.5t54.5 -37.5zM96 -12q10 -30 34.5 -49.5t55.5 -28t64.5 -6.5t61.5 14.5t46 36.5t18 58
q0 25 -12 44.5t-31.5 35t-44.5 28t-52 24.5q-29 13 -58 28t-52.5 34.5t-38.5 45t-15 60.5q0 47 32.5 80t79.5 53q-42 25 -65 53t-23 70q0 36 15.5 63.5t40 46t56 28t64.5 9.5q19 0 41 -4t42 -13.5t37 -24.5t27 -37q-11 -5 -16.5 -9.5t-15.5 -9.5q-17 32 -49 47t-69 15
q-24 0 -48.5 -7.5t-43.5 -21.5t-31 -34.5t-12 -47.5q0 -24 11.5 -42.5t31 -33.5t44 -27t50.5 -24q28 -13 56 -27.5t51 -34t37.5 -44.5t14.5 -58q0 -41 -27.5 -78.5t-65.5 -59.5q38 -23 58.5 -55.5t20.5 -64.5q0 -47 -22 -80t-56.5 -51.5t-76 -23t-81 6t-72 35.5t-48.5 64z
" />
    <glyph glyph-name="dieresis" unicode="&#xa8;" horiz-adv-x="300" 
d="M201 679q0 13 9 22t22 9t22 -9t9 -22t-9 -22t-22 -9t-22 9t-9 22zM21 679q0 13 9 22t22 9t22 -9t9 -22t-9 -22t-22 -9t-22 9t-9 22z" />
    <glyph glyph-name="copyright" unicode="&#xa9;" horiz-adv-x="794" 
d="M40 354q0 75 28.5 140.5t78 115t115 78t140.5 28.5t140.5 -28.5t115 -78t78 -115t28.5 -140.5t-28.5 -140.5t-78 -115t-115 -78t-140.5 -28.5t-140.5 28.5t-115 78t-78 115t-28.5 140.5zM74 354q0 -68 25.5 -128t70 -104.5t104.5 -70t128 -25.5t128 25.5t104.5 70
t70 104.5t25.5 128t-25.5 128t-70 104.5t-104.5 70t-128 25.5t-128 -25.5t-104.5 -70t-70 -104.5t-25.5 -128zM536 493q-20 30 -56.5 44.5t-77.5 14.5q-28 0 -55 -7t-48 -22t-34 -37.5t-13 -53.5v-153q0 -32 13 -55t34 -38t48 -22t55 -7q45 0 85 19t57 57l33 -16
q-22 -47 -71 -71.5t-104 -24.5q-35 0 -68 10t-59.5 29.5t-42.5 49t-16 69.5v151q0 40 16 69.5t42.5 49t59.5 29.5t68 10q49 0 93.5 -18.5t69.5 -57.5z" />
    <glyph glyph-name="ordfeminine" unicode="&#xaa;" horiz-adv-x="331" 
d="M247 610q0 18 -7.5 30.5t-20 20.5t-29 12t-33.5 4q-22 0 -45.5 -8t-40.5 -25l-24 22q23 23 52.5 34t59.5 11q23 0 45 -6.5t39.5 -19t28 -32t10.5 -45.5v-224q-36 -11 -69 -15t-67 -3q-48 1 -81.5 31t-33.5 82q0 28 11.5 48t29.5 33t41 18.5t48 5.5q19 0 41.5 -4.5
t44.5 -13.5v44zM247 535q-20 7 -43 11.5t-45 4.5q-18 0 -34.5 -3t-29.5 -11t-21 -22t-8 -36q0 -38 23.5 -60t58.5 -23q23 0 47.5 2.5t51.5 7.5v129z" />
    <glyph glyph-name="guillemotleft" unicode="&#xab;" horiz-adv-x="383" 
d="M47 295l128 190q9 -5 16 -10t15 -10l-115 -170q27 -41 56.5 -85t57.5 -85q-11 -6 -16 -10t-14 -9zM171 295l128 190q9 -5 16 -10t15 -10l-117 -170q27 -41 57.5 -85t58.5 -85q-11 -6 -16 -10t-14 -9z" />
    <glyph glyph-name="logicalnot" unicode="&#xac;" horiz-adv-x="553" 
d="M461 354h-422v35h457v-209h-35v174z" />
    <glyph glyph-name="uni00AD" unicode="&#xad;" horiz-adv-x="333" 
d="M53 288h227v-37h-227v37z" />
    <glyph glyph-name="registered" unicode="&#xae;" horiz-adv-x="785" 
d="M302 151h-34v411h143q68 0 103 -34t35 -83q0 -27 -9 -48.5t-24.5 -37t-36 -25t-43.5 -13.5q29 -40 61 -84t62 -86h-40l-125 170h-92v-170zM302 353h79q24 0 48 3t42.5 13t30.5 28t12 48q0 23 -9.5 39.5t-24.5 26.5t-34 14.5t-38 4.5h-106v-177zM33 354q0 75 28.5 140.5
t78 115t115 78t140.5 28.5t140.5 -28.5t115 -78t78 -115t28.5 -140.5t-28.5 -140.5t-78 -115t-115 -78t-140.5 -28.5t-140.5 28.5t-115 78t-78 115t-28.5 140.5zM68 354q0 -68 25.5 -127.5t70 -104t104 -70t127.5 -25.5t127.5 25.5t104 70t70 104t25.5 127.5t-25.5 127.5
t-70 104t-104 70t-127.5 25.5t-127.5 -25.5t-104 -70t-70 -104t-25.5 -127.5z" />
    <glyph glyph-name="macron" unicode="&#xaf;" horiz-adv-x="256" 
d="M242 666h-244v38h244v-38z" />
    <glyph glyph-name="degree" unicode="&#xb0;" horiz-adv-x="349" 
d="M173 464q-26 0 -48.5 10t-39 27t-26.5 39.5t-10 48.5q0 25 10 47.5t26.5 39.5t39 26.5t48.5 9.5q25 0 48 -9.5t39.5 -26.5t26.5 -39.5t10 -47.5q0 -26 -10 -48.5t-26.5 -39.5t-39.5 -27t-48 -10zM173 494q19 0 36 7.5t29.5 20t19.5 29.5t7 37q0 19 -7 36.5t-19.5 30
t-29.5 20t-36 7.5t-36 -7.5t-29.5 -20t-19.5 -30t-7 -36.5q0 -20 7 -37t19.5 -29.5t29.5 -20t36 -7.5z" />
    <glyph glyph-name="plusminus" unicode="&#xb1;" horiz-adv-x="567" 
d="M75 426h188v179h35v-179h195v-35h-195v-182h-35v182h-188v35zM79 139h410v-34h-410v34z" />
    <glyph glyph-name="uni00B2" unicode="&#xb2;" horiz-adv-x="338" 
d="M80 325h223v-31h-267q-3 8 -4.5 12.5t-4.5 11.5q50 47 100 96.5t99 96.5q19 19 33 48.5t6 57.5q-11 22 -29 35t-40.5 18t-46 2.5t-44.5 -10.5q-15 -7 -26.5 -15t-19.5 -22q-8 3 -15 6.5t-14 6.5q11 19 29.5 34t38.5 23h-1q26 9 56 11t58 -5.5t51 -24.5t35 -47
q13 -38 -1.5 -76t-43.5 -64z" />
    <glyph glyph-name="uni00B3" unicode="&#xb3;" horiz-adv-x="345" 
d="M249 516q28 -9 44.5 -33t20.5 -52t-5.5 -55.5t-32.5 -44.5q-23 -19 -53.5 -27.5t-60.5 -6.5h1q-19 1 -38.5 6t-37 14t-31.5 22.5t-22 31.5l26 13q14 -27 44.5 -40.5t59.5 -15.5q23 -2 47.5 5t44.5 23q27 21 27 59q0 47 -29 67t-70 18h-20v25h20q15 0 33.5 7t30.5 18
q21 20 19.5 48t-18.5 48q-14 16 -35 23.5t-43 7.5q-29 0 -56 -11t-41 -36l-24 13q9 16 22.5 27.5t29.5 19t33 11t31 4.5q28 2 56.5 -8t47.5 -30q14 -15 21 -34t7 -39t-8.5 -38.5t-25.5 -31.5z" />
    <glyph glyph-name="acute" unicode="&#xb4;" horiz-adv-x="220" 
d="M126 708h55l-83 -120h-35z" />
    <glyph glyph-name="mu" unicode="&#xb5;" horiz-adv-x="502" 
d="M444 0h-36l-2 103q-23 -51 -71 -78t-102 -27q-42 0 -73 14.5t-54 54.5v-285h-37v737h38v-329q0 -27 5 -55t19 -51t38.5 -37.5t63.5 -14.5q36 0 67 12t54 37t36 62.5t13 87.5v288h38z" />
    <glyph glyph-name="paragraph" unicode="&#xb6;" horiz-adv-x="551" 
d="M263 286q-57 0 -100.5 18t-73 47t-45 66.5t-15.5 76.5q0 40 14.5 78.5t43.5 68.5t73 48.5t103 18.5h217v-824h-33v797h-150v-797h-34v402z" />
    <glyph glyph-name="periodcentered" unicode="&#xb7;" horiz-adv-x="260" 
d="M92 318q0 16 11 27t27 11t27 -11t11 -27t-11 -27t-27 -11t-27 11t-11 27z" />
    <glyph glyph-name="cedilla" unicode="&#xb8;" horiz-adv-x="244" 
d="M116 -36q21 4 37.5 -0.5t28 -15t17.5 -24.5t5 -27q-2 -29 -19.5 -47t-42.5 -25.5t-52.5 -4t-48.5 16.5l5 23q26 -11 60 -11q10 0 21 2.5t21 8.5t16.5 15t6.5 22q0 25 -19.5 35t-42.5 10q-10 0 -18 -1t-16 -4l-3 3q12 20 22.5 35t22.5 34h28z" />
    <glyph glyph-name="uni00B9" unicode="&#xb9;" horiz-adv-x="282" 
d="M156 664l-69 -80l-26 20l93 105h36v-404h-34v359z" />
    <glyph glyph-name="ordmasculine" unicode="&#xba;" horiz-adv-x="364" 
d="M179 360q-26 0 -52 7t-46 21.5t-32.5 36t-12.5 50.5v116q0 29 12.5 50.5t32.5 36t46 21.5t52 7t51.5 -7t46 -21.5t33 -36t12.5 -50.5v-116q0 -29 -12.5 -50.5t-33 -36t-46 -21.5t-51.5 -7zM70 478q0 -24 9.5 -40t25.5 -26t35 -14.5t39 -4.5q19 0 38.5 4.5t35.5 14.5
t25.5 26t9.5 40v110q0 24 -9.5 40t-25.5 26t-35.5 14.5t-38.5 4.5q-20 0 -39 -4.5t-35 -14.5t-25.5 -26t-9.5 -40v-110z" />
    <glyph glyph-name="guillemotright" unicode="&#xbb;" horiz-adv-x="385" 
d="M342 295l-128 -190q-9 5 -16 10t-15 10l117 170q-27 41 -57.5 85t-58.5 85q11 6 16 10t14 9zM220 295l-128 -190q-9 5 -16 10t-15 10l117 170q-27 41 -57.5 85t-58.5 85q11 6 16 10t14 9z" />
    <glyph glyph-name="onequarter" unicode="&#xbc;" horiz-adv-x="681" 
d="M531 728q9 -5 14.5 -9t13.5 -9l-447 -730l-27 17zM599 129h33v-28h-33v-101h-32v101h-211l-20 31l217 276h46v-279zM567 129l3 251l-199 -251h196zM129 664l-70 -79l-25 19l93 105h34v-404h-32v359z" />
    <glyph glyph-name="onehalf" unicode="&#xbd;" horiz-adv-x="760" 
d="M544 728q9 -5 14.5 -9t13.5 -9l-447 -730l-27 17zM488 33h219v-33h-267q-3 8 -4.5 12.5t-4.5 11.5q50 47 100 100t99 100q32 30 38 54.5t-2 52.5q-13 29 -38 42.5t-53.5 13t-55 -13.5t-42.5 -36q-8 3 -16.5 7t-15.5 7q11 19 29.5 34t38.5 23h-1q25 10 53 11.5t54.5 -6
t48 -25t33.5 -46.5q13 -38 -1.5 -76t-43.5 -64zM139 664l-70 -79l-25 19l93 105h34v-404h-32v359z" />
    <glyph glyph-name="threequarters" unicode="&#xbe;" horiz-adv-x="760" 
d="M626 728q9 -5 14 -9t13 -9l-447 -730l-26 17zM666 129h33v-28h-33v-101h-32v101h-211l-20 31l217 276h46v-279zM634 129l3 251l-199 -251h196zM270 516q28 -9 44.5 -33t20.5 -52t-5.5 -55.5t-32.5 -44.5q-23 -19 -53.5 -27.5t-60.5 -6.5h1q-19 1 -38.5 6t-37 14
t-31.5 22.5t-22 31.5l26 13q14 -27 44.5 -40.5t59.5 -15.5q23 -2 47.5 5t44.5 23q27 21 27 59q0 47 -29 67t-70 18h-20v25h20q15 0 33.5 7t30.5 18q21 20 19.5 48t-18.5 48q-14 16 -35 23.5t-43 7.5q-29 0 -56 -11t-41 -36l-24 13q9 16 22.5 27.5t29.5 19t33 11t31 4.5
q28 2 56.5 -8t47.5 -30q14 -15 21 -34t7 -39t-8.5 -38.5t-25.5 -31.5z" />
    <glyph glyph-name="questiondown" unicode="&#xbf;" horiz-adv-x="478" 
d="M429 -117q-33 -38 -78 -57t-97 -19q-41 0 -80 12.5t-69 37t-48 61t-18 84.5q0 47 17.5 83t46 62t65 42t76.5 23q1 19 2 44t2 51.5t2 51.5t2 45h29l6 -224q-41 -2 -79.5 -14.5t-68 -35.5t-47 -55.5t-16.5 -73.5q1 -39 16.5 -68.5t40.5 -49t57 -29.5t66 -10q39 0 81 18.5
t70 44.5zM265 447q-15 0 -25.5 11t-10.5 27t10.5 26.5t25.5 10.5q16 0 27 -10.5t11 -26.5t-11 -27t-27 -11z" />
    <glyph glyph-name="Agrave" unicode="&#xc0;" horiz-adv-x="619" 
d="M279 722h57l260 -722h-42l-89 246h-317q-20 -57 -43 -123t-43 -123h-42zM452 285l-145 408l-145 -408h290zM335 759h-38l-88 110h57z" />
    <glyph glyph-name="Aacute" unicode="&#xc1;" horiz-adv-x="619" 
d="M279 722h57l260 -722h-42l-89 246h-317q-20 -57 -43 -123t-43 -123h-42zM452 285l-145 408l-145 -408h290zM341 875h55l-83 -120h-35z" />
    <glyph glyph-name="Acircumflex" unicode="&#xc2;" horiz-adv-x="619" 
d="M279 722h57l260 -722h-42l-89 246h-317q-20 -57 -43 -123t-43 -123h-42zM452 285l-145 408l-145 -408h290zM284 853h44l98 -109h-37l-84 86l-81 -86h-38z" />
    <glyph glyph-name="Atilde" unicode="&#xc3;" horiz-adv-x="619" 
d="M279 722h57l260 -722h-42l-89 246h-317q-20 -57 -43 -123t-43 -123h-42zM452 285l-145 408l-145 -408h290zM207 774q7 26 23.5 37.5t36.5 11.5q10 0 20 -4t20 -9.5t20.5 -9.5t21.5 -4q24 0 35 23l21 -8q-5 -23 -21.5 -36.5t-33.5 -13.5q-12 0 -23 4t-22 9.5t-21.5 9.5
t-21.5 4t-19 -6t-15 -20z" />
    <glyph glyph-name="Adieresis" unicode="&#xc4;" horiz-adv-x="619" 
d="M279 722h57l260 -722h-42l-89 246h-317q-20 -57 -43 -123t-43 -123h-42zM452 285l-145 408l-145 -408h290zM362 785q0 13 8 21.5t19 8.5t19 -8.5t8 -21.5q0 -12 -8 -21t-19 -9t-19 9t-8 21zM204 785q0 13 8.5 21.5t19.5 8.5t19 -8.5t8 -21.5q0 -12 -8 -21t-19 -9t-19.5 9
t-8.5 21z" />
    <glyph glyph-name="Aring" unicode="&#xc5;" horiz-adv-x="619" 
d="M279 722h57l260 -722h-42l-89 246h-317q-20 -57 -43 -123t-43 -123h-42zM452 285l-145 408l-145 -408h290zM225 826q0 35 24.5 60t59.5 25t58.5 -26t23.5 -60q0 -17 -6.5 -32t-17.5 -26.5t-26 -18.5t-32 -7q-35 0 -59.5 25t-24.5 60zM361 826q0 22 -15 38.5t-38 16.5
t-38 -17t-15 -39q0 -23 15.5 -38.5t37.5 -15.5q23 0 38 16.5t15 38.5z" />
    <glyph glyph-name="AE" unicode="&#xc6;" horiz-adv-x="763" 
d="M361 708h373v-37h-304v-308h273v-38h-273v-289h304v-36h-341v246h-220q-29 -58 -62.5 -123.5t-62.5 -123.5h-43zM393 675l-9 1l-193 -393h202v392z" />
    <glyph glyph-name="Ccedilla" unicode="&#xc7;" horiz-adv-x="576" 
d="M292 -35q21 4 37.5 -0.5t28 -15t17.5 -24.5t5 -27q-2 -29 -19.5 -47t-42.5 -25.5t-52.5 -4t-48.5 16.5l5 23q26 -11 60 -11q10 0 21 2.5t21 8.5t16.5 15t6.5 22q0 25 -19.5 35t-42.5 10q-10 0 -18 -1t-16 -4l-3 3q9 15 17 27t17 25q-44 3 -84.5 18t-72 40.5t-50.5 62
t-19 83.5v314q0 51 22.5 89t58.5 64t82.5 39t94.5 13q35 0 69.5 -6.5t65 -20.5t55 -35t39.5 -50q-11 -5 -18 -9t-17 -9q-14 22 -35 39.5t-47 28.5t-55.5 17t-59.5 6q-40 0 -79 -10.5t-69.5 -31t-49 -51.5t-18.5 -73v-314q0 -42 18.5 -73t49 -51.5t69.5 -31t79 -10.5
q30 0 59 6t55.5 17t48 28t35.5 40l34 -17q-15 -29 -40 -50t-56 -35t-65.5 -21t-70.5 -7h-2z" />
    <glyph glyph-name="Egrave" unicode="&#xc8;" horiz-adv-x="572" 
d="M517 669h-389v-295h359v-40h-359v-294h389v-39h-428v707h428v-39zM337 748h-38l-88 110h57z" />
    <glyph glyph-name="Eacute" unicode="&#xc9;" horiz-adv-x="572" 
d="M517 669h-389v-295h359v-40h-359v-294h389v-39h-428v707h428v-39zM347 871h55l-83 -120h-35z" />
    <glyph glyph-name="Ecircumflex" unicode="&#xca;" horiz-adv-x="572" 
d="M517 669h-389v-295h359v-40h-359v-294h389v-39h-428v707h428v-39zM287 853h44l98 -109h-40l-81 85l-79 -85h-40z" />
    <glyph glyph-name="Edieresis" unicode="&#xcb;" horiz-adv-x="572" 
d="M517 669h-389v-295h359v-40h-359v-294h389v-39h-428v707h428v-39zM367 789q0 13 9 22t22 9t22 -9t9 -22t-9 -22t-22 -9t-22 9t-9 22zM187 789q0 13 9 22t22 9t22 -9t9 -22t-9 -22t-22 -9t-22 9t-9 22z" />
    <glyph glyph-name="Igrave" unicode="&#xcc;" horiz-adv-x="232" 
d="M90 707h39v-707h-39v707zM135 755h-38l-85 104h57z" />
    <glyph glyph-name="Iacute" unicode="&#xcd;" horiz-adv-x="232" 
d="M90 707h39v-707h-39v707zM147 869h55l-83 -120h-35z" />
    <glyph glyph-name="Icircumflex" unicode="&#xce;" horiz-adv-x="232" 
d="M92 854h44l98 -109h-42l-79 81l-78 -81h-41zM90 707h39v-707h-39v707z" />
    <glyph glyph-name="Idieresis" unicode="&#xcf;" horiz-adv-x="232" 
d="M90 707h39v-707h-39v707zM171 793q0 13 9 22t22 9t22 -9t9 -22t-9 -22t-22 -9t-22 9t-9 22zM-9 793q0 13 9 22t22 9t22 -9t9 -22t-9 -22t-22 -9t-22 9t-9 22z" />
    <glyph glyph-name="Eth" unicode="&#xd0;" horiz-adv-x="613" 
d="M19 369h63v339h226q48 0 94 -13t81.5 -38.5t57.5 -64.5t22 -91v-295q0 -52 -22 -90.5t-57.5 -64t-81.5 -38.5t-94 -13h-226v333h-63v36zM308 39q40 0 79 10.5t69.5 31t49 52t18.5 73.5v295q0 42 -18.5 73.5t-49 52.5t-69.5 31.5t-79 10.5h-187v-300h125v-36h-125v-294
h187z" />
    <glyph glyph-name="Ntilde" unicode="&#xd1;" horiz-adv-x="689" 
d="M89 708h49l410 -659v659h39v-708h-57l-402 648v-648h-39v708zM225 770q8 26 27 38t42 12q12 0 23.5 -4.5t23 -9.5t23.5 -9.5t24 -4.5q27 0 41 25l23 -9q-6 -23 -24.5 -37.5t-38.5 -14.5q-13 0 -25.5 4.5t-25 10t-25 10t-24.5 4.5q-26 0 -40 -28z" />
    <glyph glyph-name="Ograve" unicode="&#xd2;" horiz-adv-x="682" 
d="M70 511q0 52 23 90.5t61 64.5t86.5 39t99.5 13t99.5 -13t86.5 -39t61.5 -64.5t23.5 -90.5v-314q0 -52 -23.5 -91t-61.5 -65t-86.5 -39t-99.5 -13t-99.5 13t-86.5 39t-61 65t-23 91v314zM109 197q0 -42 20 -74t52 -53t73.5 -31.5t85.5 -10.5q43 0 85 10.5t74.5 31.5
t52.5 53t20 74v314q0 45 -20 77t-53 52.5t-75 30t-85 9.5t-84.5 -10t-73.5 -31t-52 -52.5t-20 -75.5v-314zM359 755h-38l-88 110h57z" />
    <glyph glyph-name="Oacute" unicode="&#xd3;" horiz-adv-x="682" 
d="M70 511q0 52 23 90.5t61 64.5t86.5 39t99.5 13t99.5 -13t86.5 -39t61.5 -64.5t23.5 -90.5v-314q0 -52 -23.5 -91t-61.5 -65t-86.5 -39t-99.5 -13t-99.5 13t-86.5 39t-61 65t-23 91v314zM109 197q0 -42 20 -74t52 -53t73.5 -31.5t85.5 -10.5q43 0 85 10.5t74.5 31.5
t52.5 53t20 74v314q0 45 -20 77t-53 52.5t-75 30t-85 9.5t-84.5 -10t-73.5 -31t-52 -52.5t-20 -75.5v-314zM389 874h55l-83 -120h-35z" />
    <glyph glyph-name="Ocircumflex" unicode="&#xd4;" horiz-adv-x="682" 
d="M70 511q0 52 23 90.5t61 64.5t86.5 39t99.5 13t99.5 -13t86.5 -39t61.5 -64.5t23.5 -90.5v-314q0 -52 -23.5 -91t-61.5 -65t-86.5 -39t-99.5 -13t-99.5 13t-86.5 39t-61 65t-23 91v314zM109 197q0 -42 20 -74t52 -53t73.5 -31.5t85.5 -10.5q43 0 85 10.5t74.5 31.5
t52.5 53t20 74v314q0 45 -20 77t-53 52.5t-75 30t-85 9.5t-84.5 -10t-73.5 -31t-52 -52.5t-20 -75.5v-314zM323 856h44l98 -109h-39l-82 84l-78 -84h-41z" />
    <glyph glyph-name="Otilde" unicode="&#xd5;" horiz-adv-x="682" 
d="M70 511q0 52 23 90.5t61 64.5t86.5 39t99.5 13t99.5 -13t86.5 -39t61.5 -64.5t23.5 -90.5v-314q0 -52 -23.5 -91t-61.5 -65t-86.5 -39t-99.5 -13t-99.5 13t-86.5 39t-61 65t-23 91v314zM109 197q0 -42 20 -74t52 -53t73.5 -31.5t85.5 -10.5q43 0 85 10.5t74.5 31.5
t52.5 53t20 74v314q0 45 -20 77t-53 52.5t-75 30t-85 9.5t-84.5 -10t-73.5 -31t-52 -52.5t-20 -75.5v-314zM250 768q6 24 22.5 35t36.5 11q10 0 20 -4t20.5 -8.5t20.5 -8.5t21 -4q24 0 35 22l21 -8q-5 -21 -21.5 -34.5t-33.5 -13.5q-11 0 -22 4t-22 9.5t-21.5 9.5t-21.5 4
q-23 0 -34 -26z" />
    <glyph glyph-name="Odieresis" unicode="&#xd6;" horiz-adv-x="682" 
d="M70 511q0 52 23 90.5t61 64.5t86.5 39t99.5 13t99.5 -13t86.5 -39t61.5 -64.5t23.5 -90.5v-314q0 -52 -23.5 -91t-61.5 -65t-86.5 -39t-99.5 -13t-99.5 13t-86.5 39t-61 65t-23 91v314zM109 197q0 -42 20 -74t52 -53t73.5 -31.5t85.5 -10.5q43 0 85 10.5t74.5 31.5
t52.5 53t20 74v314q0 45 -20 77t-53 52.5t-75 30t-85 9.5t-84.5 -10t-73.5 -31t-52 -52.5t-20 -75.5v-314zM406 783q0 13 9 22t22 9t22 -9t9 -22t-9 -22t-22 -9t-22 9t-9 22zM226 783q0 13 9 22t22 9t22 -9t9 -22t-9 -22t-22 -9t-22 9t-9 22z" />
    <glyph glyph-name="multiply" unicode="&#xd7;" horiz-adv-x="561" 
d="M122 527l163 -163l159 159l27 -26l-160 -159l157 -157l-26 -27l-157 157l-161 -161l-26 27l160 160l-163 164z" />
    <glyph glyph-name="Oslash" unicode="&#xd8;" horiz-adv-x="682" 
d="M70 510q0 52 23 90.5t61 64.5t86.5 39t99.5 13q56 0 119 -19l30 71q10 -4 17 -6t15 -5l-30 -73q52 -26 86 -70t34 -105v-311q0 -52 -23.5 -91t-61.5 -65t-86.5 -39t-99.5 -13q-26 0 -55.5 5t-60.5 14l-29 -74q-11 4 -17 5.5t-16 4.5l30 77q-54 27 -88 70.5t-34 105.5v311
zM109 199q0 -48 27 -83t70 -59l238 607q-54 15 -105 15q-43 0 -84.5 -10t-73.5 -31t-52 -52.5t-20 -75.5v-311zM572 510q0 48 -26.5 83t-68.5 58l-238 -606q52 -15 101 -15q43 0 84.5 10.5t74 31.5t53 53t20.5 74v311z" />
    <glyph glyph-name="Ugrave" unicode="&#xd9;" horiz-adv-x="684" 
d="M86 708h39v-504q0 -43 18.5 -75t49 -53.5t69 -32t79.5 -10.5q40 0 79 10.5t70 32t49.5 53.5t18.5 75v504h39v-504q0 -53 -22 -92.5t-58 -65.5t-82 -39.5t-94 -13.5t-94 13.5t-81.5 39.5t-57.5 65.5t-22 92.5v504zM370 744h-38l-88 110h57z" />
    <glyph glyph-name="Uacute" unicode="&#xda;" horiz-adv-x="684" 
d="M86 708h39v-504q0 -43 18.5 -75t49 -53.5t69 -32t79.5 -10.5q40 0 79 10.5t70 32t49.5 53.5t18.5 75v504h39v-504q0 -53 -22 -92.5t-58 -65.5t-82 -39.5t-94 -13.5t-94 13.5t-81.5 39.5t-57.5 65.5t-22 92.5v504zM370 865h55l-83 -120h-35z" />
    <glyph glyph-name="Ucircumflex" unicode="&#xdb;" horiz-adv-x="684" 
d="M86 708h39v-504q0 -43 18.5 -75t49 -53.5t69 -32t79.5 -10.5q40 0 79 10.5t70 32t49.5 53.5t18.5 75v504h39v-504q0 -53 -22 -92.5t-58 -65.5t-82 -39.5t-94 -13.5t-94 13.5t-81.5 39.5t-57.5 65.5t-22 92.5v504zM320 857h44l98 -109h-37l-84 86l-81 -86h-38z" />
    <glyph glyph-name="Udieresis" unicode="&#xdc;" horiz-adv-x="684" 
d="M86 708h39v-504q0 -43 18.5 -75t49 -53.5t69 -32t79.5 -10.5q40 0 79 10.5t70 32t49.5 53.5t18.5 75v504h39v-504q0 -53 -22 -92.5t-58 -65.5t-82 -39.5t-94 -13.5t-94 13.5t-81.5 39.5t-57.5 65.5t-22 92.5v504zM404 787q0 13 9 22t22 9t22 -9t9 -22t-9 -22t-22 -9
t-22 9t-9 22zM224 787q0 13 9 22t22 9t22 -9t9 -22t-9 -22t-22 -9t-22 9t-9 22z" />
    <glyph glyph-name="Yacute" unicode="&#xdd;" horiz-adv-x="572" 
d="M544 707l-239 -427v-280h-39v280l-238 427h45l213 -392l212 392h46zM328 865h55l-83 -120h-35z" />
    <glyph glyph-name="Thorn" unicode="&#xde;" horiz-adv-x="536" 
d="M128 564q29 4 55 6t49 2q131 0 199.5 -53t68.5 -154q0 -59 -24.5 -98.5t-64 -63t-89.5 -33.5t-102 -10h-49q1 12 2.5 19.5t2.5 18.5h41q42 0 85 7t78.5 25.5t57.5 51t22 83.5q0 52 -22 85t-56 51.5t-75 25t-79 6.5q-26 0 -50.5 -1.5t-49.5 -6.5v-525h-40v710h40v-146z
" />
    <glyph glyph-name="germandbls" unicode="&#xdf;" horiz-adv-x="573" 
d="M277 33q40 -1 78.5 10.5t68.5 34t48.5 55.5t18.5 75q0 43 -14.5 74t-40 51.5t-59.5 29.5t-74 9h-104v36h104q31 0 59.5 9t50 27.5t34 45.5t12.5 63q0 38 -15.5 64.5t-40 43t-56 24t-63.5 7.5t-63.5 -8.5t-56 -26t-40 -45t-15.5 -65.5v-548h-38v548q0 44 18.5 77.5
t48.5 56.5t68 35t78 12t78.5 -11t68.5 -32.5t48.5 -54.5t18.5 -77q0 -46 -22.5 -89.5t-73.5 -72.5q71 -25 100 -73.5t29 -110.5q-1 -51 -23 -91.5t-57.5 -68t-80.5 -41.5t-92 -13q-25 1 -56 9t-54 18q0 12 0.5 21t0.5 20q10 -4 24.5 -9t29.5 -9t29 -7t25 -3z" />
    <glyph glyph-name="agrave" unicode="&#xe0;" 
d="M392 373q0 31 -13 53.5t-34.5 37t-49 21t-56.5 6.5q-74 0 -129 -51q-7 7 -12 13t-10 11q32 33 72 47t85 14q35 0 68 -9.5t58.5 -28.5t41 -47.5t15.5 -66.5v-353q-48 -16 -99 -23t-103 -6q-36 0 -67 12.5t-54 34.5t-36.5 53t-13.5 69q0 43 16.5 73.5t43 50t61 29t71.5 9.5
q34 0 72 -6.5t73 -22.5v80zM392 43v216q-30 12 -69.5 21t-77.5 9q-30 0 -58 -6.5t-49.5 -21.5t-34.5 -40t-13 -61q0 -33 10.5 -58.5t29.5 -42.5t44 -26.5t55 -9.5q79 -2 155 17zM286 559h-35l-80 100h52z" />
    <glyph glyph-name="aacute" unicode="&#xe1;" 
d="M392 373q0 31 -13 53.5t-34.5 37t-49 21t-56.5 6.5q-74 0 -129 -51q-7 7 -12 13t-10 11q32 33 72 47t85 14q35 0 68 -9.5t58.5 -28.5t41 -47.5t15.5 -66.5v-353q-48 -16 -99 -23t-103 -6q-36 0 -67 12.5t-54 34.5t-36.5 53t-13.5 69q0 43 16.5 73.5t43 50t61 29t71.5 9.5
q34 0 72 -6.5t73 -22.5v80zM392 43v216q-30 12 -69.5 21t-77.5 9q-30 0 -58 -6.5t-49.5 -21.5t-34.5 -40t-13 -61q0 -33 10.5 -58.5t29.5 -42.5t44 -26.5t55 -9.5q79 -2 155 17zM294 662h52l-79 -110h-34z" />
    <glyph glyph-name="acircumflex" unicode="&#xe2;" 
d="M392 373q0 31 -13 53.5t-34.5 37t-49 21t-56.5 6.5q-74 0 -129 -51q-7 7 -12 13t-10 11q32 33 72 47t85 14q35 0 68 -9.5t58.5 -28.5t41 -47.5t15.5 -66.5v-353q-48 -16 -99 -23t-103 -6q-36 0 -67 12.5t-54 34.5t-36.5 53t-13.5 69q0 43 16.5 73.5t43 50t61 29t71.5 9.5
q34 0 72 -6.5t73 -22.5v80zM392 43v216q-30 12 -69.5 21t-77.5 9q-30 0 -58 -6.5t-49.5 -21.5t-34.5 -40t-13 -61q0 -33 10.5 -58.5t29.5 -42.5t44 -26.5t55 -9.5q79 -2 155 17zM234 653h42l91 -101h-38l-75 74l-73 -74h-39z" />
    <glyph glyph-name="atilde" unicode="&#xe3;" 
d="M392 373q0 31 -13 53.5t-34.5 37t-49 21t-56.5 6.5q-74 0 -129 -51q-7 7 -12 13t-10 11q32 33 72 47t85 14q35 0 68 -9.5t58.5 -28.5t41 -47.5t15.5 -66.5v-353q-48 -16 -99 -23t-103 -6q-36 0 -67 12.5t-54 34.5t-36.5 53t-13.5 69q0 43 16.5 73.5t43 50t61 29t71.5 9.5
q34 0 72 -6.5t73 -22.5v80zM392 43v216q-30 12 -69.5 21t-77.5 9q-30 0 -58 -6.5t-49.5 -21.5t-34.5 -40t-13 -61q0 -33 10.5 -58.5t29.5 -42.5t44 -26.5t55 -9.5q79 -2 155 17zM161 577q6 23 22.5 34t36.5 11q10 0 20 -4t20 -8.5t20.5 -8.5t21.5 -4q23 0 35 22l20 -8
q-5 -20 -21 -33t-33 -13q-12 0 -23 4t-22 8.5t-21.5 8.5t-21.5 4t-19 -5t-15 -19z" />
    <glyph glyph-name="adieresis" unicode="&#xe4;" 
d="M392 373q0 31 -13 53.5t-34.5 37t-49 21t-56.5 6.5q-74 0 -129 -51q-7 7 -12 13t-10 11q32 33 72 47t85 14q35 0 68 -9.5t58.5 -28.5t41 -47.5t15.5 -66.5v-353q-48 -16 -99 -23t-103 -6q-36 0 -67 12.5t-54 34.5t-36.5 53t-13.5 69q0 43 16.5 73.5t43 50t61 29t71.5 9.5
q34 0 72 -6.5t73 -22.5v80zM392 43v216q-30 12 -69.5 21t-77.5 9q-30 0 -58 -6.5t-49.5 -21.5t-34.5 -40t-13 -61q0 -33 10.5 -58.5t29.5 -42.5t44 -26.5t55 -9.5q79 -2 155 17zM311 588q0 13 7.5 21.5t18.5 8.5t19 -8.5t8 -21.5q0 -12 -8 -21t-19 -9t-18.5 9t-7.5 21z
M155 588q0 13 8 21.5t19 8.5t19 -8.5t8 -21.5q0 -12 -8 -21t-19 -9t-19 9t-8 21z" />
    <glyph glyph-name="aring" unicode="&#xe5;" 
d="M392 373q0 31 -13 53.5t-34.5 37t-49 21t-56.5 6.5q-74 0 -129 -51q-7 7 -12 13t-10 11q32 33 72 47t85 14q35 0 68 -9.5t58.5 -28.5t41 -47.5t15.5 -66.5v-353q-48 -16 -99 -23t-103 -6q-36 0 -67 12.5t-54 34.5t-36.5 53t-13.5 69q0 43 16.5 73.5t43 50t61 29t71.5 9.5
q34 0 72 -6.5t73 -22.5v80zM392 43v216q-30 12 -69.5 21t-77.5 9q-30 0 -58 -6.5t-49.5 -21.5t-34.5 -40t-13 -61q0 -33 10.5 -58.5t29.5 -42.5t44 -26.5t55 -9.5q79 -2 155 17zM172 627q0 16 7 30t18.5 25t27 17.5t33.5 6.5t33 -6.5t26.5 -18t18 -26t6.5 -29.5
q0 -31 -24.5 -54.5t-59.5 -23.5q-18 0 -33.5 6.5t-27 17t-18.5 25t-7 30.5zM311 627q0 20 -15.5 35.5t-38.5 15.5t-38.5 -16t-15.5 -36q0 -21 15.5 -36t38.5 -15t38.5 16t15.5 36z" />
    <glyph glyph-name="ae" unicode="&#xe6;" horiz-adv-x="822" 
d="M428 234v-82q0 -32 12.5 -54.5t33.5 -37.5t48 -22t56 -7q42 0 79 15.5t57 49.5l33 -17q-12 -22 -30 -38t-40.5 -26.5t-47.5 -15.5t-51 -5q-48 0 -90.5 17.5t-68.5 52.5q-18 -17 -41 -31t-48.5 -23.5t-52.5 -14t-51 -4.5q-36 0 -67 12.5t-54 34.5t-36.5 53t-13.5 69
q0 43 16.5 74t43 51t61 29.5t71.5 9.5q34 0 72 -7.5t73 -23.5l1 88q-2 29 -15.5 50t-34.5 34.5t-47.5 19.5t-54.5 6q-38 0 -69 -13t-60 -39q-7 7 -13 13.5t-11 11.5q32 33 71 47.5t84 14.5q52 0 99 -21.5t70 -63.5q25 41 70 61t96 20q34 0 67.5 -10t60 -29.5t42.5 -49
t16 -69.5v-130h-336zM245 289q-30 0 -57.5 -6.5t-49 -21.5t-34.5 -40t-13 -61q0 -66 39.5 -100.5t98.5 -35.5q19 0 43 4.5t47.5 14t45 22.5t37.5 30q-10 28 -10 57l-1 107q-30 12 -69 21t-77 9zM728 366q0 31 -13 53.5t-34 37.5t-48 22.5t-55 7.5q-29 0 -56 -7.5t-48 -22.5
t-33.5 -37.5t-12.5 -53.5v-99h300v99z" />
    <glyph glyph-name="ccedilla" unicode="&#xe7;" horiz-adv-x="440" 
d="M230 -30q21 4 38 0.5t29 -12.5t18 -21.5t5 -25.5q-2 -29 -19.5 -46t-43 -23.5t-53 -3t-48.5 16.5l5 22q15 -6 29.5 -8.5t32.5 -2.5q10 0 21 2t20.5 7.5t15.5 14t6 21.5q0 24 -20 31t-43 7q-11 0 -19 -1t-16 -4l-3 3q8 12 14.5 24t14.5 23q-32 3 -61.5 14t-52.5 30.5
t-36.5 47.5t-13.5 65v215q0 40 16 69.5t42.5 49t59.5 29.5t68 10q49 0 93.5 -18.5t69.5 -57.5l-29 -19q-20 30 -56.5 44.5t-77.5 14.5q-28 0 -55 -7t-48 -22t-34 -37.5t-13 -53.5v-217q0 -32 13 -55t34 -38t48 -22t55 -7q45 0 85 19t57 57l33 -16q-21 -45 -67.5 -69.5
t-99.5 -26.5z" />
    <glyph glyph-name="egrave" unicode="&#xe8;" horiz-adv-x="491" 
d="M397 366q0 31 -13 53.5t-34 37.5t-48 22.5t-55 7.5q-29 0 -56 -7.5t-48 -22.5t-33.5 -37.5t-12.5 -53.5v-99h300v97v2zM97 234v-82q0 -32 12.5 -54.5t33.5 -37.5t48 -22t56 -7q42 0 79 15.5t57 49.5l33 -17q-12 -22 -30 -38t-40.5 -26.5t-47.5 -15.5t-51 -5
q-35 0 -68.5 10t-60 29.5t-42.5 49t-16 69.5v212q0 40 16 69.5t42.5 49t60 29.5t68.5 10q34 0 67.5 -10t60 -29.5t42.5 -49t16 -69.5v-130h-336zM278 547h-38l-88 110h57z" />
    <glyph glyph-name="eacute" unicode="&#xe9;" horiz-adv-x="491" 
d="M397 366q0 31 -13 53.5t-34 37.5t-48 22.5t-55 7.5q-29 0 -56 -7.5t-48 -22.5t-33.5 -37.5t-12.5 -53.5v-99h300v97v2zM97 234v-82q0 -32 12.5 -54.5t33.5 -37.5t48 -22t56 -7q42 0 79 15.5t57 49.5l33 -17q-12 -22 -30 -38t-40.5 -26.5t-47.5 -15.5t-51 -5
q-35 0 -68.5 10t-60 29.5t-42.5 49t-16 69.5v212q0 40 16 69.5t42.5 49t60 29.5t68.5 10q34 0 67.5 -10t60 -29.5t42.5 -49t16 -69.5v-130h-336zM279 668h55l-83 -120h-35z" />
    <glyph glyph-name="ecircumflex" unicode="&#xea;" horiz-adv-x="491" 
d="M227 640h43l96 -101h-39l-80 74l-75 -74h-41zM397 366q0 31 -13 53.5t-34 37.5t-48 22.5t-55 7.5q-29 0 -56 -7.5t-48 -22.5t-33.5 -37.5t-12.5 -53.5v-99h300v97v2zM97 234v-82q0 -32 12.5 -54.5t33.5 -37.5t48 -22t56 -7q42 0 79 15.5t57 49.5l33 -17q-12 -22 -30 -38
t-40.5 -26.5t-47.5 -15.5t-51 -5q-35 0 -68.5 10t-60 29.5t-42.5 49t-16 69.5v212q0 40 16 69.5t42.5 49t60 29.5t68.5 10q34 0 67.5 -10t60 -29.5t42.5 -49t16 -69.5v-130h-336z" />
    <glyph glyph-name="edieresis" unicode="&#xeb;" horiz-adv-x="491" 
d="M397 366q0 31 -13 53.5t-34 37.5t-48 22.5t-55 7.5q-29 0 -56 -7.5t-48 -22.5t-33.5 -37.5t-12.5 -53.5v-99h300v97v2zM97 234v-82q0 -32 12.5 -54.5t33.5 -37.5t48 -22t56 -7q42 0 79 15.5t57 49.5l33 -17q-12 -22 -30 -38t-40.5 -26.5t-47.5 -15.5t-51 -5
q-35 0 -68.5 10t-60 29.5t-42.5 49t-16 69.5v212q0 40 16 69.5t42.5 49t60 29.5t68.5 10q34 0 67.5 -10t60 -29.5t42.5 -49t16 -69.5v-130h-336zM302 577q0 12 8.5 21t19.5 9t19.5 -9t8.5 -21t-8.5 -20.5t-19.5 -8.5t-19.5 8.5t-8.5 20.5zM139 577q0 12 8.5 21t19.5 9
t19.5 -9t8.5 -21t-8.5 -20.5t-19.5 -8.5t-19.5 8.5t-8.5 20.5z" />
    <glyph glyph-name="igrave" unicode="&#xec;" horiz-adv-x="221" 
d="M89 519h38v-519h-38v519zM138 554h-38l-88 110h57z" />
    <glyph glyph-name="iacute" unicode="&#xed;" horiz-adv-x="221" 
d="M89 518h38v-518h-38v518zM138 671h55l-83 -120h-35z" />
    <glyph glyph-name="icircumflex" unicode="&#xee;" horiz-adv-x="240" 
d="M100 650h37l86 -107h-36l-72 78l-66 -78h-37zM100 518h38v-518h-38v518z" />
    <glyph glyph-name="idieresis" unicode="&#xef;" horiz-adv-x="239" 
d="M155 613q0 13 8.5 22.5t22.5 9.5t23 -9.5t9 -22.5q0 -14 -9 -23t-23 -9t-22.5 9t-8.5 23zM25 613q0 13 9 22.5t23 9.5q12 0 21.5 -9.5t9.5 -22.5q0 -14 -9.5 -23t-21.5 -9q-14 0 -23 9t-9 23zM100 517h40v-516h-40v516z" />
    <glyph glyph-name="eth" unicode="&#xf0;" horiz-adv-x="526" 
d="M107 653q33 36 83 50t104 6l22 65q8 -3 15 -5t13 -4l-20 -62q52 -16 87.5 -52t35.5 -95v-536l-48 -15q-35 -10 -70 -12t-70 -2q-34 0 -66 10.5t-57.5 30t-41 48.5t-15.5 68v164q0 38 15.5 67.5t41.5 50t59 30.5t68 10t72 -7.5t77 -27.5v121q0 45 -28.5 73t-70.5 42
l-25 -81q-9 3 -15 5.5t-13 4.5l24 77q-54 6 -89.5 -5t-64.5 -41zM412 399q-77 34 -151 34q-27 0 -53.5 -7.5t-47.5 -22.5t-33.5 -37.5t-12.5 -52.5v-165q0 -31 12.5 -54t33 -38t46.5 -22.5t54 -7.5q42 0 84 7t68 18v348z" />
    <glyph glyph-name="ntilde" unicode="&#xf1;" horiz-adv-x="532" 
d="M80 0v491q45 16 92.5 27t96.5 11q34 -1 67 -11t58.5 -29.5t41 -49t15.5 -68.5v-371h-36v371q0 31 -13 54t-33.5 38t-46.5 22t-53 7q-43 0 -85 -9.5t-68 -20.5v-462h-36zM173 575q7 24 23.5 35t36.5 11q10 0 20 -4t20 -8.5t20.5 -8.5t21.5 -4q24 0 35 22l21 -8
q-5 -21 -21.5 -34.5t-33.5 -13.5q-12 0 -23 4t-22 9.5t-21.5 9.5t-21.5 4t-19 -6t-15 -20z" />
    <glyph glyph-name="ograve" unicode="&#xf2;" horiz-adv-x="503" 
d="M252 488q-27 0 -54 -7t-48.5 -22t-35 -38t-13.5 -55v-215q0 -32 13.5 -55.5t35 -38.5t48.5 -22t54 -7t54 7t48 22t34.5 38.5t13.5 55.5v215q0 32 -13.5 55t-34.5 38t-48 22t-54 7zM65 366q0 40 16 69.5t42.5 49.5t60 30t68.5 10t68.5 -10t59.5 -30t42 -49.5t16 -69.5
v-215q0 -40 -16 -69.5t-42 -49.5t-59.5 -30t-68.5 -10t-68.5 10t-60 30t-42.5 49.5t-16 69.5v215zM280 548h-38l-88 110h57z" />
    <glyph glyph-name="oacute" unicode="&#xf3;" horiz-adv-x="503" 
d="M252 488q-27 0 -54 -7t-48.5 -22t-35 -38t-13.5 -55v-215q0 -32 13.5 -55.5t35 -38.5t48.5 -22t54 -7t54 7t48 22t34.5 38.5t13.5 55.5v215q0 32 -13.5 55t-34.5 38t-48 22t-54 7zM65 366q0 40 16 69.5t42.5 49.5t60 30t68.5 10t68.5 -10t59.5 -30t42 -49.5t16 -69.5
v-215q0 -40 -16 -69.5t-42 -49.5t-59.5 -30t-68.5 -10t-68.5 10t-60 30t-42.5 49.5t-16 69.5v215zM283 667h55l-83 -120h-35z" />
    <glyph glyph-name="ocircumflex" unicode="&#xf4;" horiz-adv-x="503" 
d="M252 488q-27 0 -54 -7t-48.5 -22t-35 -38t-13.5 -55v-215q0 -32 13.5 -55.5t35 -38.5t48.5 -22t54 -7t54 7t48 22t34.5 38.5t13.5 55.5v215q0 32 -13.5 55t-34.5 38t-48 22t-54 7zM65 366q0 40 16 69.5t42.5 49.5t60 30t68.5 10t68.5 -10t59.5 -30t42 -49.5t16 -69.5
v-215q0 -40 -16 -69.5t-42 -49.5t-59.5 -30t-68.5 -10t-68.5 10t-60 30t-42.5 49.5t-16 69.5v215zM230 653h44l98 -106h-40l-81 81l-77 -81h-42z" />
    <glyph glyph-name="otilde" unicode="&#xf5;" horiz-adv-x="503" 
d="M252 488q-27 0 -54 -7t-48.5 -22t-35 -38t-13.5 -55v-215q0 -32 13.5 -55.5t35 -38.5t48.5 -22t54 -7t54 7t48 22t34.5 38.5t13.5 55.5v215q0 32 -13.5 55t-34.5 38t-48 22t-54 7zM65 366q0 40 16 69.5t42.5 49.5t60 30t68.5 10t68.5 -10t59.5 -30t42 -49.5t16 -69.5
v-215q0 -40 -16 -69.5t-42 -49.5t-59.5 -30t-68.5 -10t-68.5 10t-60 30t-42.5 49.5t-16 69.5v215zM152 569q7 27 23.5 39t36.5 12q10 0 20 -4.5t20.5 -9.5t21 -9.5t21.5 -4.5t20 5t15 19l21 -8q-5 -24 -21.5 -38.5t-33.5 -14.5q-12 0 -23 4.5t-22 10t-21.5 10t-21.5 4.5
q-22 0 -35 -28z" />
    <glyph glyph-name="odieresis" unicode="&#xf6;" horiz-adv-x="503" 
d="M252 488q-27 0 -54 -7t-48.5 -22t-35 -38t-13.5 -55v-215q0 -32 13.5 -55.5t35 -38.5t48.5 -22t54 -7t54 7t48 22t34.5 38.5t13.5 55.5v215q0 32 -13.5 55t-34.5 38t-48 22t-54 7zM65 366q0 40 16 69.5t42.5 49.5t60 30t68.5 10t68.5 -10t59.5 -30t42 -49.5t16 -69.5
v-215q0 -40 -16 -69.5t-42 -49.5t-59.5 -30t-68.5 -10t-68.5 10t-60 30t-42.5 49.5t-16 69.5v215zM310 586q0 13 9 22t22 9t22 -9t9 -22t-9 -22t-22 -9t-22 9t-9 22zM130 586q0 13 9 22t22 9t22 -9t9 -22t-9 -22t-22 -9t-22 9t-9 22z" />
    <glyph glyph-name="divide" unicode="&#xf7;" horiz-adv-x="528" 
d="M50 351h427v-38h-427v38zM231 174q0 17 10.5 26.5t26.5 10.5q16 0 26.5 -10.5t10.5 -26.5t-10.5 -26.5t-26.5 -10.5t-26.5 10.5t-10.5 26.5zM231 479q0 17 10.5 26.5t26.5 10.5q16 0 26.5 -10.5t10.5 -26.5t-10.5 -26.5t-26.5 -10.5t-26.5 10.5t-10.5 26.5z" />
    <glyph glyph-name="oslash" unicode="&#xf8;" horiz-adv-x="498" 
d="M65 367q0 40 16 69.5t42.5 49.5t60 30t68.5 10q40 -2 82 -15l30 75q10 -4 16.5 -5.5t14.5 -4.5l-32 -77q34 -22 54.5 -54.5t20.5 -77.5v-215q0 -40 -16 -69.5t-42 -49.5t-59.5 -30t-68.5 -10q-39 2 -84 16l-29 -69l-28 11l29 70q-34 22 -54.5 54.5t-20.5 76.5v215z
M252 29q27 0 54 7t48 22t34.5 38.5t13.5 55.5v215q0 30 -14.5 54t-38.5 43l-169 -423q39 -12 72 -12zM252 489q-27 0 -54 -7t-48.5 -22t-35 -38t-13.5 -55v-215q0 -30 13.5 -54t37.5 -44l167 424q-39 11 -67 11z" />
    <glyph glyph-name="ugrave" unicode="&#xf9;" horiz-adv-x="517" 
d="M445 518v-489q-45 -16 -92.5 -27t-96.5 -11q-34 1 -67 11t-58.5 29.5t-41 49t-15.5 68.5v369h36v-369q0 -31 13 -54t33.5 -38t46.5 -22t53 -7q43 0 85 9.5t68 20.5v460h36zM300 547h-38l-88 110h57z" />
    <glyph glyph-name="uacute" unicode="&#xfa;" horiz-adv-x="517" 
d="M445 518v-489q-45 -16 -92.5 -27t-96.5 -11q-34 1 -67 11t-58.5 29.5t-41 49t-15.5 68.5v369h36v-369q0 -31 13 -54t33.5 -38t46.5 -22t53 -7q43 0 85 9.5t68 20.5v460h36zM290 653h55l-83 -120h-35z" />
    <glyph glyph-name="ucircumflex" unicode="&#xfb;" horiz-adv-x="517" 
d="M445 518v-489q-45 -16 -92.5 -27t-96.5 -11q-34 1 -67 11t-58.5 29.5t-41 49t-15.5 68.5v369h36v-369q0 -31 13 -54t33.5 -38t46.5 -22t53 -7q43 0 85 9.5t68 20.5v460h36zM240 661h44l98 -109h-37l-84 86l-81 -86h-38z" />
    <glyph glyph-name="udieresis" unicode="&#xfc;" horiz-adv-x="517" 
d="M445 518v-489q-45 -16 -92.5 -27t-96.5 -11q-34 1 -67 11t-58.5 29.5t-41 49t-15.5 68.5v369h36v-369q0 -31 13 -54t33.5 -38t46.5 -22t53 -7q43 0 85 9.5t68 20.5v460h36zM320 605q0 13 9 22t22 9t22 -9t9 -22t-9 -22t-22 -9t-22 9t-9 22zM140 605q0 13 9 22t22 9t22 -9
t9 -22t-9 -22t-22 -9t-22 9t-9 22z" />
    <glyph glyph-name="yacute" unicode="&#xfd;" horiz-adv-x="519" 
d="M443 517v-540q0 -40 -15.5 -69t-41.5 -47.5t-59 -27.5t-67 -9q-45 0 -86.5 14t-70.5 41l22 22q22 -18 52 -28.5t61.5 -13.5t62 2.5t54.5 19.5t38.5 37.5t14.5 57.5v54q-40 -20 -77 -28.5t-72 -8.5t-68.5 10t-59.5 29.5t-42 49t-16 68.5v367h36v-367q0 -31 12.5 -53.5
t33 -37.5t47.5 -22.5t55 -8.5q41 1 73.5 9.5t71.5 24.5l6 5v450h35zM292 667h55l-83 -120h-35z" />
    <glyph glyph-name="thorn" unicode="&#xfe;" horiz-adv-x="516" 
d="M79 -186v893h36v-203q42 11 80.5 15.5t73.5 4.5q34 0 67.5 -10.5t59 -30.5t41.5 -50t16 -69v-212q0 -39 -16 -68.5t-42.5 -50t-60 -30.5t-68.5 -10q-36 1 -74.5 7t-76.5 24v-210h-36zM115 63q38 -17 77 -25t76 -8q28 0 54.5 7.5t47.5 22.5t33.5 37.5t12.5 52.5v214
q0 31 -12 54t-32.5 38t-47.5 22.5t-55 7.5q-37 0 -74.5 -3.5t-79.5 -17.5v-402z" />
    <glyph glyph-name="ydieresis" unicode="&#xff;" horiz-adv-x="519" 
d="M443 517v-540q0 -40 -15.5 -69t-41.5 -47.5t-59 -27.5t-67 -9q-45 0 -86.5 14t-70.5 41l22 22q22 -18 52 -28.5t61.5 -13.5t62 2.5t54.5 19.5t38.5 37.5t14.5 57.5v54q-40 -20 -77 -28.5t-72 -8.5t-68.5 10t-59.5 29.5t-42 49t-16 68.5v367h36v-367q0 -31 12.5 -53.5
t33 -37.5t47.5 -22.5t55 -8.5q41 1 73.5 9.5t71.5 24.5l6 5v450h35zM323 614q0 13 9 22t22 9t22 -9t9 -22t-9 -22t-22 -9t-22 9t-9 22zM143 614q0 13 9 22t22 9t22 -9t9 -22t-9 -22t-22 -9t-22 9t-9 22z" />
    <glyph glyph-name="OE" unicode="&#x152;" horiz-adv-x="935" 
d="M889 708v-36h-364v-300h333v-37h-333v-298h364v-37h-403v33q-40 -21 -79.5 -29.5t-74.5 -7.5q-50 1 -97.5 14.5t-84 40t-59 65t-22.5 89.5v302q0 51 23 90t60.5 64.5t86 39t98.5 13.5q32 0 73.5 -10t75.5 -33v37h403zM486 637q-33 17 -71.5 28t-76.5 10q-43 0 -84.5 -10
t-73.5 -30.5t-52 -52t-20 -75.5v-302q0 -42 20 -74t52 -53.5t73.5 -32t84.5 -10.5q38 0 76 9.5t72 27.5v565z" />
    <glyph glyph-name="oe" unicode="&#x153;" horiz-adv-x="833" 
d="M438 234v-82q0 -32 12.5 -54.5t33.5 -37.5t48 -22t56 -7q42 0 79 15.5t57 49.5l33 -17q-12 -22 -30 -38t-40.5 -26.5t-47.5 -15.5t-51 -5t-51 5t-47 16.5t-40 29t-30 42.5q-12 -26 -30 -44t-40 -29.5t-47.5 -16.5t-50.5 -5q-35 0 -68.5 10t-60 30t-42.5 49.5t-16 69.5
v215q0 40 16 69.5t42.5 49.5t60 30t68.5 10q25 0 51 -6t48.5 -18t40.5 -30t28 -42q23 49 70 71t98 22q34 0 67.5 -10t60 -29.5t42.5 -49t16 -69.5v-130h-336zM252 488q-27 0 -54 -7t-48.5 -22t-35 -38t-13.5 -55v-215q0 -32 13.5 -55.5t35 -38.5t48.5 -22t54 -7
q25 0 50.5 6.5t46.5 20t35 34t17 49.5v240q-3 29 -17 49.5t-35 34t-46.5 20t-50.5 6.5zM738 366q0 31 -13 53.5t-34 37.5t-48 22.5t-55 7.5q-29 0 -56 -7.5t-48 -22.5t-33.5 -37.5t-12.5 -53.5v-99h300v99z" />
    <glyph glyph-name="Scaron" unicode="&#x160;" horiz-adv-x="595" 
d="M103 545q-3 -38 12 -65t43 -46.5t65 -32.5t79 -21q45 -9 89 -22t78.5 -36.5t55 -59.5t17.5 -90q-2 -45 -23.5 -78.5t-55.5 -56.5t-76.5 -34.5t-87.5 -11.5q-35 0 -71.5 7.5t-69 23t-59 38.5t-42.5 54l35 16q13 -25 36 -44t50.5 -32t59 -19.5t63.5 -6.5q36 0 70 8
t61.5 25.5t46.5 45t24 66.5q3 46 -14.5 75.5t-48 48.5t-70 29.5t-79.5 19.5q-41 9 -82 22.5t-74 36.5t-52.5 57t-17.5 84q1 43 21.5 75.5t53.5 54t74.5 32t85.5 10.5q36 0 72 -7.5t67.5 -22t57 -37t40.5 -52.5q-11 -5 -18 -7.5t-17 -7.5q-13 24 -35 43t-49 31.5t-57.5 19
t-60.5 6.5q-36 0 -70.5 -7.5t-61.5 -24t-44.5 -43t-20.5 -64.5zM325 755h-38l-99 110h38l81 -80l80 80h39z" />
    <glyph glyph-name="scaron" unicode="&#x161;" horiz-adv-x="422" 
d="M64 107q32 -43 72 -62.5t86 -17.5q21 0 43.5 7t41.5 20.5t30.5 34.5t11.5 49q0 29 -12 48t-31 31.5t-41.5 19.5t-44.5 11q-30 5 -60.5 14t-55 24.5t-40 40t-15.5 61.5q0 39 17 67t44.5 45t62 23.5t68.5 3t65 -17t52 -36.5l-22 -26q-26 28 -68 40t-82 5.5t-70 -32.5
t-32 -72q0 -31 14.5 -49.5t36 -30t46 -16.5t45.5 -9q29 -5 57 -15t50 -27t36 -42t14 -61q0 -35 -13.5 -61.5t-36 -44.5t-51.5 -27.5t-60 -10.5q-57 -2 -106 22t-81 72zM231 557h-35l-92 101h35l75 -73l74 73h36z" />
    <glyph glyph-name="Ydieresis" unicode="&#x178;" horiz-adv-x="485" 
d="M89 779q0 13 9 22t22 9t22 -9t9 -22t-9 -22t-22 -9t-22 9t-9 22zM300 779q0 13 9 22t22 9t22 -9t9 -22t-9 -22t-22 -9t-22 9t-9 22zM245 280v-280h-39v280l-238 428h45l213 -393l212 393h46z" />
    <glyph glyph-name="Zcaron" unicode="&#x17d;" horiz-adv-x="563" 
d="M477 672h-428v36h462l21 -22l-450 -650h436v-36h-473l-17 23zM306 755h-38l-99 110h38l81 -80l80 80h39z" />
    <glyph glyph-name="zcaron" unicode="&#x17e;" horiz-adv-x="437" 
d="M354 484h-311v34h346l15 -24l-331 -459h326v-35h-356l-19 28zM248 547h-36l-95 106h36l78 -77l77 77h38z" />
    <glyph glyph-name="florin" unicode="&#x192;" horiz-adv-x="382" 
d="M395 665q-11 5 -22 8t-22 3q-21 0 -37 -9t-27.5 -23.5t-18.5 -32t-10 -33.5l-30 -169h110l-1 -33h-116l-73 -394q-11 -52 -43 -84t-90 -32q-11 0 -20.5 1t-19.5 4l13 34q21 -5 40.5 -3.5t36 11t29 29t18.5 50.5l70 384h-110l1 33h116l33 170q5 24 14.5 47t24.5 42
t37 30.5t53 11.5t58 -12z" />
    <glyph glyph-name="circumflex" unicode="&#x2c6;" horiz-adv-x="262" 
d="M106 708h44l98 -109h-37l-84 86l-81 -86h-38z" />
    <glyph glyph-name="tilde" unicode="&#x2dc;" horiz-adv-x="271" 
d="M19 658q8 25 26.5 36t41.5 11q12 0 23.5 -4t23 -9t23.5 -9t24 -4q26 0 40 23l23 -8q-6 -22 -24 -35.5t-38 -13.5q-13 0 -25.5 4t-25 9.5t-25 9.5t-24.5 4q-25 0 -39 -26z" />
    <glyph glyph-name="endash" unicode="&#x2013;" horiz-adv-x="500" 
d="M29 318h444v-37h-444v37z" />
    <glyph glyph-name="emdash" unicode="&#x2014;" horiz-adv-x="920" 
d="M22 318h876v-37h-876v37z" />
    <glyph glyph-name="quoteleft" unicode="&#x2018;" horiz-adv-x="219" 
d="M111 518h-50q9 27 17.5 50t17.5 45t17.5 45t17.5 50h36z" />
    <glyph glyph-name="quoteright" unicode="&#x2019;" horiz-adv-x="228" 
d="M117 708h52q-9 -27 -18 -50.5t-18 -45.5t-18 -45t-18 -50h-37z" />
    <glyph glyph-name="quotesinglbase" unicode="&#x201a;" horiz-adv-x="244" 
d="M107 40h51l-70 -168h-38z" />
    <glyph glyph-name="quotedblleft" unicode="&#x201c;" horiz-adv-x="344" 
d="M114 517h-52l65 191h38zM241 517h-52l65 191h38z" />
    <glyph glyph-name="quotedblright" unicode="&#x201d;" horiz-adv-x="385" 
d="M254 708h50l-59 -190h-36zM130 708h50l-59 -190h-36z" />
    <glyph glyph-name="quotedblbase" unicode="&#x201e;" horiz-adv-x="408" 
d="M252 50h52q-18 -50 -35 -89.5t-35 -88.5h-38zM126 50h52q-18 -50 -35 -89.5t-35 -88.5h-38z" />
    <glyph glyph-name="dagger" unicode="&#x2020;" horiz-adv-x="507" 
d="M233 481h-192v33h192v194h35v-194h194v-33h-194v-597h-35v597z" />
    <glyph glyph-name="daggerdbl" unicode="&#x2021;" horiz-adv-x="507" 
d="M233 80h-192v31h192v369h-192v32h192v195h35v-195h193v-32h-193v-369h193v-31h-193v-196h-35v196z" />
    <glyph glyph-name="bullet" unicode="&#x2022;" horiz-adv-x="361" 
d="M60 354q0 22 8.5 42t23.5 35t35 24t43 9q22 0 42 -9t35 -24t24 -35t9 -42q0 -23 -9 -43t-24 -35t-35 -23.5t-42 -8.5q-23 0 -43 8.5t-35 23.5t-23.5 35t-8.5 43z" />
    <glyph glyph-name="ellipsis" unicode="&#x2026;" horiz-adv-x="702" 
d="M88 42q0 -20 14 -34t34 -14t34 14t14 34t-14 34t-34 14t-34 -14t-14 -34zM297 42q0 -20 14 -34t34 -14t34 14t14 34t-14 34t-34 14t-34 -14t-14 -34zM505 42q0 -20 14 -34t34 -14t34 14t14 34t-14 34t-34 14t-34 -14t-14 -34zM78 42q0 25 16.5 41.5t41.5 16.5t41.5 -16.5
t16.5 -41.5t-16.5 -41.5t-41.5 -16.5t-41.5 16.5t-16.5 41.5zM98 42q0 16 11 27t27 11t27 -11t11 -27t-11 -27t-27 -11t-27 11t-11 27zM287 42q0 25 16.5 41.5t41.5 16.5t41.5 -16.5t16.5 -41.5t-16.5 -41.5t-41.5 -16.5t-41.5 16.5t-16.5 41.5zM307 42q0 16 11 27t27 11
t27 -11t11 -27t-11 -27t-27 -11t-27 11t-11 27zM495 42q0 25 16.5 41.5t41.5 16.5t41.5 -16.5t16.5 -41.5t-16.5 -41.5t-41.5 -16.5t-41.5 16.5t-16.5 41.5zM515 42q0 16 11 27t27 11t27 -11t11 -27t-11 -27t-27 -11t-27 11t-11 27z" />
    <glyph glyph-name="perthousand" unicode="&#x2030;" horiz-adv-x="1043" 
d="M317 525q0 -84 -39 -132t-99 -48q-66 0 -102 46.5t-36 135.5q0 88 39 133.5t99 45.5q65 0 101.5 -47t36.5 -134zM668 174q0 -85 -38.5 -132t-98.5 -47q-67 0 -102.5 46t-35.5 135q0 91 38.5 135t99.5 44q64 0 100.5 -48t36.5 -133zM631 174q0 75 -26.5 110t-74.5 35
q-98 0 -98 -143q0 -77 24 -110.5t76 -33.5q49 0 74 34t25 108zM617 733l-498 -790l-34 20l500 791zM279 525q0 75 -26.5 109.5t-74.5 34.5q-98 0 -98 -142q0 -77 24 -110.5t75 -33.5q50 0 75 34t25 108zM991 174q0 -85 -38.5 -132t-98.5 -47q-67 0 -102.5 46t-35.5 135
q0 91 38.5 135t99.5 44q64 0 100.5 -48t36.5 -133zM954 174q0 75 -26.5 110t-74.5 35q-98 0 -98 -143q0 -77 24 -110.5t76 -33.5q49 0 74 34t25 108z" />
    <glyph glyph-name="guilsinglleft" unicode="&#x2039;" horiz-adv-x="259" 
d="M47 295l128 190q9 -5 16 -10t15 -10l-117 -170q27 -41 57.5 -85t58.5 -85q-11 -6 -16 -10t-14 -9z" />
    <glyph glyph-name="guilsinglright" unicode="&#x203a;" horiz-adv-x="272" 
d="M224 295l-128 -190q-9 5 -16 10t-15 10l117 170q-27 41 -57.5 85t-58.5 85q11 6 16 10t14 9z" />
    <glyph glyph-name="Euro" unicode="&#x20ac;" horiz-adv-x="576" 
d="M89 501q0 51 20 90t53 65.5t75 39.5t86 13q65 0 123.5 -28t89.5 -86l-36 -18q-26 49 -75 70.5t-102 21.5q-37 0 -72.5 -11t-63 -32t-44 -52.5t-16.5 -72.5v-86h269q-3 -20 -6 -32h-263v-59h269q-2 -9 -2 -17t-2 -15h-265v-86q0 -42 16.5 -73.5t43.5 -52t62 -31t71 -10.5
q27 0 54 5t50.5 16.5t43 29t32.5 41.5l36 -18q-15 -29 -38.5 -50.5t-52 -35.5t-60.5 -21t-65 -7q-44 0 -85.5 13t-73.5 39t-52 64.5t-20 90.5v86h-64q2 8 3 16.5t3 15.5h58v59h-61q3 20 6 32h55v86z" />
    <glyph glyph-name="trademark" unicode="&#x2122;" horiz-adv-x="822" 
d="M411 671q0 -36 0.5 -79t0.5 -87t0.5 -87.5t0.5 -79.5h-31v370h45l133 -290q31 69 66 145t67 145h45v-370h-32l4 339l-134 -292h-32zM184 679v-341h-32v341h-130v29h292v-29h-130z" />
    </font>
</defs>
</svg>
