<?xml version="1.0" standalone="no"?>
<!DOCTYPE svg PUBLIC "-//W3C//DTD SVG 1.1//EN" "http://www.w3.org/Graphics/SVG/1.1/DTD/svg11.dtd" >
<svg>
<metadata>
Created by FontForge 20120731 at Fri Aug  5 17:15:12 2016
 By www
Copyright (c) 2009 by (c) 2009 Designed by Svetoslav Simov (c) Fontfabric, Inc. All rights reserved.
</metadata>
<defs>
<font id="UniSansW01-Heavy" horiz-adv-x="505" >
  <font-face 
    font-family="UniSansW01-Heavy"
    font-weight="900"
    font-stretch="normal"
    units-per-em="1000"
    panose-1="2 11 4 2 2 2 3 2 2 4"
    ascent="756"
    descent="-244"
    x-height="518"
    cap-height="708"
    bbox="-100 -230 1020 955"
    underline-thickness="50"
    underline-position="-100"
    unicode-range="U+0002-2122"
  />
<missing-glyph horiz-adv-x="222" 
 />
    <glyph glyph-name=".notdef" horiz-adv-x="222" 
 />
    <glyph glyph-name=".null" horiz-adv-x="0" 
 />
    <glyph glyph-name="uni000D" unicode="&#xd;" horiz-adv-x="222" 
 />
    <glyph glyph-name="uni0002" horiz-adv-x="0" 
 />
    <glyph glyph-name="uni0009" unicode="&#x9;" horiz-adv-x="222" 
 />
    <glyph glyph-name="uni000A" unicode="&#xa;" horiz-adv-x="0" 
 />
    <glyph glyph-name="space" unicode=" " horiz-adv-x="222" 
 />
    <glyph glyph-name="exclam" unicode="!" horiz-adv-x="300" 
d="M212 220h-184l-10 492h204zM22 89q0 21 7.5 39.5t21 32t31.5 21.5t39 8t39.5 -8t32 -21.5t21.5 -32t8 -39.5t-8 -39t-21.5 -31.5t-32 -21t-39.5 -7.5q-42 0 -70.5 28.5t-28.5 70.5z" />
    <glyph glyph-name="quotedbl" unicode="&#x22;" horiz-adv-x="423" 
d="M11 709h173l-21 -290h-152v290zM216 709h173l-20 -290h-153v290z" />
    <glyph glyph-name="numbersign" unicode="#" horiz-adv-x="707" 
d="M508 315h125l-34 -146h-138q-11 -41 -24.5 -86.5t-24.5 -83.5h-158l49 170h-42q-11 -41 -24.5 -86.5t-24.5 -83.5h-163l49 170h-104l31 146h122l1.5 5t3 11t3 11.5l1.5 5.5h-123l27 152h137l46 161h158l-47 -161h42l47 161h165l-49 -161h111l-37 -152h-116zM315 356
q0 -2 -2 -8t-4.5 -14t-4.5 -15.5t-3 -11.5h48q0 1 1.5 7.5t3.5 14l4 15t4 12.5h-47z" />
    <glyph glyph-name="dollar" unicode="$" horiz-adv-x="544" 
d="M185 -1q-62 2 -113 38.5t-88 100.5l128 88q20 -28 36.5 -37t36.5 -12v97q-37 9 -71.5 24.5t-60.5 41.5t-42 64t-15 91q2 42 18 75.5t41.5 59t58.5 42.5t71 25v59h129v-58q52 -7 92.5 -33t80.5 -86l-120 -76q-8 14 -22 23.5t-31 12.5v-112q40 -10 75.5 -25.5t62 -41.5
t41 -65.5t11.5 -96.5q-3 -41 -19.5 -73.5t-42.5 -57t-59 -41.5t-69 -26v-65h-129v64zM154 493q-1 -21 8.5 -36.5t29.5 -22.5v114q-18 -10 -28 -24.5t-10 -29.5v-1zM346 218q1 21 -8.5 36.5t-29.5 22.5v-114q18 10 28 24.5t10 29.5v1z" />
    <glyph glyph-name="percent" unicode="%" horiz-adv-x="737" 
d="M296 541q0 -41 -11.5 -74t-31.5 -56t-47.5 -35t-60.5 -12q-71 0 -109.5 45.5t-38.5 133.5q0 81 41.5 128t106.5 47q73 0 112 -46t39 -131zM155 -76l-129 83l492 760l129 -86zM177 541q0 32 -9 46t-24 14t-25 -14t-10 -45q0 -32 10 -45.5t25 -13.5q33 0 33 58zM686 171
q0 -41 -11.5 -74t-31.5 -56t-47.5 -35t-60.5 -12q-71 0 -109.5 45.5t-38.5 133.5q0 81 41.5 128t106.5 47q73 0 112 -46t39 -131zM567 171q0 32 -9 46t-24 14t-25 -14t-10 -45q0 -32 10 -45.5t25 -13.5q33 0 33 58z" />
    <glyph glyph-name="ampersand" unicode="&#x26;" horiz-adv-x="632" 
d="M425 294l64 55l100 -128l-66 -54l133 -166h-210l-48 57q-36 -32 -80 -47.5t-88.5 -15t-86.5 15.5t-75 44.5t-52.5 72t-19.5 97.5q0 65 27.5 106.5t78.5 71.5q-46 48 -51.5 103.5t19.5 102t75 77t115 28.5q37 -1 72 -14.5t61.5 -37t42.5 -57t16 -75.5q0 -61 -24 -99
t-62 -64zM207 280q-17 -9 -26 -21.5t-12 -27t0 -28.5t11 -25q9 -13 23.5 -20t30.5 -7t32 6.5t28 20.5zM257 573q-19 0 -33 -13t-14 -33q0 -14 11.5 -29.5t25.5 -32.5q23 16 36 30.5t13 34.5q0 17 -11 30t-28 13z" />
    <glyph glyph-name="quotesingle" unicode="'" horiz-adv-x="229" 
d="M16 708h170l-15 -290h-155v290z" />
    <glyph glyph-name="parenleft" unicode="(" horiz-adv-x="327" 
d="M287 718q-124 -185 -121.5 -376t124.5 -379l-127 -85q-78 109 -116.5 231.5t-38.5 237.5q0 58 10 118t30 118t50 112t71 100z" />
    <glyph glyph-name="parenright" unicode=")" horiz-adv-x="284" 
d="M58 783q81 -92 121 -205.5t40 -230.5q0 -115 -38.5 -236.5t-116.5 -230.5l-120 81q58 93 88.5 188.5t31.5 191t-28.5 188t-91.5 178.5z" />
    <glyph glyph-name="asterisk" unicode="*" horiz-adv-x="442" 
d="M259 604l104 45l47 -159l-112 -14l81 -78l-129 -99l-54 101l-52 -101l-134 97l81 84l-110 13l46 158l102 -48l-15 107h164z" />
    <glyph glyph-name="plus" unicode="+" horiz-adv-x="596" 
d="M15 406h175v170h169v-170h168v-170h-168v-171h-169v171h-175v170z" />
    <glyph glyph-name="comma" unicode="," horiz-adv-x="315" 
d="M66 106h188l-100 -255h-173z" />
    <glyph glyph-name="hyphen" unicode="-" horiz-adv-x="380" 
d="M9 375h312v-170h-312v170z" />
    <glyph glyph-name="period" unicode="." horiz-adv-x="302" 
d="M33 95q0 42 28.5 70.5t70.5 28.5t71 -28.5t29 -70.5q0 -21 -8 -39.5t-21.5 -32t-31.5 -21.5t-39 -8t-39 8t-31.5 21.5t-21 32t-7.5 39.5z" />
    <glyph glyph-name="slash" unicode="/" horiz-adv-x="396" 
d="M247 764l157 -55l-294 -779l-158 57z" />
    <glyph glyph-name="zero" unicode="0" horiz-adv-x="614" 
d="M275 562q-16 0 -31 -4.5t-27 -12.5t-19.5 -19.5t-8.5 -24.5v-293q1 -13 8.5 -24.5t19.5 -20t27 -13.5t31 -5q15 0 30 5t27 13.5t20 20t9 24.5v293q-1 13 -9 24.5t-20 19.5t-27 12.5t-30 4.5zM275 -7q-45 0 -90.5 13t-82.5 39.5t-60 67.5t-23 97v291q0 57 23 98t60 67.5
t82.5 39.5t90.5 13t91 -13t82.5 -39.5t59.5 -67.5t23 -98v-291q0 -56 -23 -97t-59.5 -67.5t-82.5 -39.5t-91 -13z" />
    <glyph glyph-name="one" unicode="1" horiz-adv-x="356" 
d="M291 695v-695h-161v462l-68 -47l-94 82l188 198h135z" />
    <glyph glyph-name="two" unicode="2" horiz-adv-x="539" 
d="M-10 557q44 84 111 123.5t140 37.5q58 -2 102.5 -21t74.5 -49t45 -68t15 -80q0 -50 -22 -101.5t-66 -96.5l-156 -148l83 17h160v-170h-456l-45 93l297 334q22 28 24 53t-8.5 42.5t-31.5 26.5t-44.5 5.5t-47.5 -20.5t-41 -51z" />
    <glyph glyph-name="three" unicode="3" horiz-adv-x="540" 
d="M101 219q21 -33 55.5 -47t67 -12.5t56.5 17.5t24 43t-19.5 46.5t-57.5 21.5h-110v149h106q17 0 28.5 9.5t17 23t4.5 29t-8 26.5q-12 19 -33 26t-44 5t-46.5 -13.5t-39.5 -30.5l-104 92q44 54 103.5 84.5t119.5 30.5q32 0 63.5 -7.5t59 -23.5t51 -40.5t39.5 -58.5v1
q12 -26 15.5 -56t-2 -59t-21 -54.5t-42.5 -42.5q27 -14 45 -35t29.5 -44.5t16 -47.5t4.5 -45q0 -59 -27.5 -103.5t-72 -73t-99.5 -39.5t-109.5 -2t-104 39.5t-81.5 84.5z" />
    <glyph glyph-name="four" unicode="4" horiz-adv-x="552" 
d="M456 299h54v-145h-54v-152h-171v152h-229l-77 105l330 435h147v-395zM300 460l-127 -163h125z" />
    <glyph glyph-name="five" unicode="5" horiz-adv-x="563" 
d="M134 223q20 -34 50.5 -46t59.5 -6.5t50 26.5t23 52q3 47 -21 74.5t-59.5 33.5t-73.5 -9t-64 -53h-72v415l420 -1v-158h-277v-75q62 23 120 15t103 -39.5t72 -83t27 -115.5q0 -49 -17.5 -96.5t-51.5 -84.5t-84 -59t-114 -19q-60 3 -119.5 32t-102.5 99z" />
    <glyph glyph-name="six" unicode="6" horiz-adv-x="594" 
d="M375 517q-19 30 -51.5 41.5t-63.5 7.5t-53.5 -22t-22.5 -48v-75q51 37 112 40.5t113.5 -20.5t88 -72t35.5 -114v-42q0 -55 -22 -96t-58 -68.5t-82.5 -41t-95.5 -13.5q-50 0 -96.5 13.5t-83 41t-59 68.5t-23.5 96v284q0 60 29 105.5t74 73.5t101 38.5t110 1t100.5 -41
t72.5 -85.5zM362 260q0 19 -13 31.5t-33 18.5t-43 6t-43 -6.5t-33 -18.5t-13 -31v-53q0 -19 13 -31t33 -18.5t43 -6.5t43 6t33 18.5t13 31.5v53z" />
    <glyph glyph-name="seven" unicode="7" horiz-adv-x="493" 
d="M-27 524v170h457l48 -96l-323 -598h-192l280 524h-270z" />
    <glyph glyph-name="eight" unicode="8" horiz-adv-x="578" 
d="M272 157q45 0 65.5 25t19.5 54.5t-22.5 52.5t-59.5 20h-23q-37 1 -58 -22t-22 -51.5t19 -53t64 -25.5h17zM256 -6q-52 -6 -98 10.5t-80.5 47.5t-55.5 72t-22.5 85.5t19 88.5t68.5 80q-18 12 -29.5 27t-19 32t-10.5 34.5t-3 33.5q0 62 23.5 102.5t58.5 64t75 33t74 9.5h14
q44 0 85.5 -11.5t74 -37t52 -67t19.5 -100.5q0 -12 -4 -28t-11.5 -32.5t-19 -32.5t-26.5 -26q24 -12 41 -31t27 -41t14.5 -44t4.5 -40q-1 -56 -20 -100t-53 -73.5t-80.5 -44t-103.5 -11.5h-14zM256 568q-35 -1 -52 -22t-16 -46.5t19.5 -46.5t54.5 -21q27 0 45 10t27 25t9 33
t-8.5 33t-24.5 25t-39 10h-15z" />
    <glyph glyph-name="nine" unicode="9" horiz-adv-x="605" 
d="M152 207q21 -36 56 -48.5t68 -8.5t57 22t24 44v75q-51 -37 -112 -40.5t-113.5 20.5t-88 72t-35.5 114v42q0 55 21.5 96t57.5 68.5t82.5 41t96.5 13.5q49 0 96 -13.5t83.5 -41t59 -68.5t23.5 -96v-284q0 -63 -30 -109.5t-77 -75t-105 -38t-114 1.5t-103.5 43t-73.5 86z
M179 452q0 -19 13 -31.5t33 -18.5t43 -6t43 6.5t33 19t13 30.5v53q0 18 -13 30.5t-33 19t-43 6.5t-43 -6t-33 -18.5t-13 -31.5v-53z" />
    <glyph glyph-name="colon" unicode=":" horiz-adv-x="255" 
d="M3 393q0 42 29 70t71 28t70.5 -28t28.5 -70q0 -21 -7.5 -39.5t-21 -32t-31.5 -21.5t-39 -8t-39 8t-31.5 21.5t-21.5 32t-8 39.5zM3 106q0 44 29 72t71 28t70.5 -28t28.5 -72q0 -42 -28.5 -71t-70.5 -29t-71 29t-29 71z" />
    <glyph glyph-name="semicolon" unicode=";" horiz-adv-x="267" 
d="M30 127h187l-92 -255h-156zM7 382q0 42 27.5 70t72.5 28q43 0 70.5 -28t27.5 -70q0 -43 -27.5 -72t-70.5 -29q-45 0 -72.5 29t-27.5 72z" />
    <glyph glyph-name="less" unicode="&#x3c;" horiz-adv-x="438" 
d="M381 383l-161 -91q40 -21 82 -44t79 -43v-199l-366 232v109l366 235v-199z" />
    <glyph glyph-name="equal" unicode="=" horiz-adv-x="531" 
d="M21 474h434v-155h-434v155zM21 271h434v-156h-434v156z" />
    <glyph glyph-name="greater" unicode="&#x3e;" horiz-adv-x="440" 
d="M19 582l367 -235v-109l-367 -232v199l169 87l-169 91v199z" />
    <glyph glyph-name="question" unicode="?" horiz-adv-x="457" 
d="M-27 584q30 58 75 89.5t94.5 40.5t98.5 -2.5t88 -41t63.5 -74.5t24.5 -102q0 -33 -10 -65.5t-31 -59.5t-53.5 -46.5t-77.5 -25.5l-10 -117h-150l-10 228q32 -14 62 -14t53 10.5t37 31t14 47.5t-20 43t-47.5 19t-55.5 -8.5t-43 -39.5zM69 65q0 40 26.5 65t64.5 25t64 -25
t26 -65q0 -19 -7 -35.5t-19 -29t-28.5 -19.5t-35.5 -7q-38 0 -64.5 26.5t-26.5 64.5z" />
    <glyph glyph-name="at" unicode="@" horiz-adv-x="750" 
d="M469 538l72 -18q-13 18 -33 31t-43 22t-47 13t-45 4q-60 0 -106.5 -24.5t-78 -64t-48 -88.5t-16.5 -98q0 -59 22 -106t61 -75.5t92.5 -36.5t117.5 11l27 -96q-68 -21 -125 -21q-66 0 -125.5 25t-103 71t-67.5 110.5t-20 143.5q5 67 32 133t73.5 118t111 84t144.5 32
q54 0 105 -13q32 -9 63 -25t58 -36t48 -44t35 -50q22 -44 28.5 -95.5t-2.5 -101.5t-32.5 -95.5t-60.5 -77.5q-23 -21 -59 -36t-74 -15q-20 0 -37.5 4t-35.5 17q-31 -19 -71 -19t-72.5 15t-56 41t-36 61t-12.5 76q0 47 15 91t41.5 77.5t61.5 54t76 20.5q27 0 52 -8.5
t53 -31.5zM558 495l-47 -256q30 13 47.5 42.5t24 65t2.5 71t-18 59.5zM344 244q12 0 24.5 4t20.5 12l32 147q-25 26 -47 30.5t-40.5 -5.5t-31 -31t-17.5 -46t-0.5 -50.5t19.5 -44.5q15 -16 40 -16z" />
    <glyph glyph-name="A" unicode="A" horiz-adv-x="638" 
d="M212 708h163l253 -708h-192l-46 142h-189l-44 -142h-192zM288 508l-47 -207h106l-46 207h-13z" />
    <glyph glyph-name="B" unicode="B" horiz-adv-x="620" 
d="M313 431q33 0 49.5 20t17 43.5t-16 43.5t-50.5 20h-104v-127h104zM209 302v-145h104q40 0 60 22.5t20 50t-20 50t-60 22.5h-104zM543 492q0 -12 -4.5 -28t-13.5 -32t-22.5 -30.5t-32.5 -24.5q36 -18 57.5 -43t32 -52t12 -53t-1.5 -46q-14 -86 -74 -134.5t-178 -48.5h-289
v709h284q51 0 93.5 -15t73.5 -43t47.5 -68t15.5 -91z" />
    <glyph glyph-name="C" unicode="C" horiz-adv-x="575" 
d="M535 150q-22 -43 -52 -73.5t-64 -49.5t-70 -27.5t-69 -8.5q-52 0 -102 15t-89.5 45.5t-63.5 76t-24 105.5v241q0 60 24 105.5t63.5 75.5t90.5 45.5t104 15.5q33 0 68 -8t68 -26.5t62.5 -50t50.5 -78.5l-146 -59q-18 33 -52.5 46.5t-68.5 9.5t-59.5 -23.5t-25.5 -52.5
v-241q0 -32 25.5 -51.5t59.5 -22.5t66.5 11.5t47.5 51.5z" />
    <glyph glyph-name="D" unicode="D" horiz-adv-x="631" 
d="M28 0v708h265q53 0 102.5 -14t88 -43t61.5 -73.5t23 -106.5v-238q0 -61 -23 -105t-61.5 -72.5t-88 -42t-102.5 -13.5h-265zM299 168q37 0 63 18t26 47v238q0 29 -26 49.5t-63 20.5h-91v-373h91z" />
    <glyph glyph-name="E" unicode="E" horiz-adv-x="572" 
d="M518 540h-312v-106h287v-159h-287v-106h312v-169h-493v709h493v-169z" />
    <glyph glyph-name="F" unicode="F" horiz-adv-x="551" 
d="M518 538h-312v-127h273v-167h-273v-244h-181v708h493v-170z" />
    <glyph glyph-name="G" unicode="G" horiz-adv-x="646" 
d="M383 497q-10 24 -28.5 38t-40 19.5t-44.5 3t-41.5 -13t-30.5 -27.5t-12 -40v-242q0 -27 15.5 -45t38.5 -27t49.5 -9t49.5 9t38.5 27t15.5 45v23h-113v153h285v-176q0 -61 -23.5 -106.5t-62.5 -76t-89 -45.5t-103 -15t-103 15t-89.5 45.5t-63.5 76t-24 106.5v242
q0 60 24 105t63.5 75t89.5 45t103 15q34 0 70 -7.5t69 -25.5t61 -47t46 -71z" />
    <glyph glyph-name="H" unicode="H" horiz-adv-x="680" 
d="M415 267h-204v-267h-180v708h180v-268h204v268h180v-708h-180v267z" />
    <glyph glyph-name="I" unicode="I" horiz-adv-x="288" 
d="M21 708h179v-708h-179v708z" />
    <glyph glyph-name="J" unicode="J" horiz-adv-x="607" 
d="M160 242q5 -29 21 -46.5t37 -26t43.5 -7.5t41.5 9t31.5 23.5t12.5 35.5v316h-161v162h338v-478q0 -74 -36.5 -126t-92.5 -81t-122 -33.5t-125.5 17.5t-103 71.5t-53.5 128.5z" />
    <glyph glyph-name="K" unicode="K" horiz-adv-x="609" 
d="M202 708v-262l192 262h223l-280 -348q35 -42 70 -88t70 -93t69.5 -92.5t69.5 -86.5h-225l-183 253l-6 -8v-245h-180v708h180z" />
    <glyph glyph-name="L" unicode="L" horiz-adv-x="526" 
d="M493 0h-468v708h180v-531h288v-177z" />
    <glyph glyph-name="M" unicode="M" horiz-adv-x="783" 
d="M211 0h-179v708h179l149 -346l150 346h179v-708h-180l1 204l13 143l-8 1l-93 -243h-123l-95 243l-7 -1l14 -143v-204z" />
    <glyph glyph-name="N" unicode="N" horiz-adv-x="682" 
d="M208 0h-179v708h170l171 -302l60 -142l8 1q-6 34 -11 61l-4 22t-4 20q-2 10 -4 19v321h178v-708h-181l-160 279l-62 142l-8 -1q8 -39 13 -69q5 -26 8.5 -47t4.5 -21v-283z" />
    <glyph glyph-name="O" unicode="O" horiz-adv-x="682" 
d="M14 480q0 61 25 106.5t66.5 76t94 45.5t107.5 15t108 -15t94 -45.5t66.5 -76t25.5 -106.5v-252q0 -61 -25 -106.5t-66.5 -76t-94 -45.5t-107.5 -15t-108 15t-94 45.5t-66.5 76t-25.5 106.5v252zM193 228q0 -26 16.5 -43t42 -25.5t55.5 -8.5t55.5 8.5t42.5 25.5t17 43v252
q0 27 -17 45t-42.5 26.5t-55 8.5t-55 -9t-42.5 -27t-17 -44v-252z" />
    <glyph glyph-name="P" unicode="P" horiz-adv-x="616" 
d="M208 0h-179v708h283q65 0 113.5 -21.5t81 -56.5t48.5 -80t16 -92t-16.5 -92.5t-48.5 -80.5t-80.5 -56.5t-112.5 -21.5h-105v-207zM312 366q27 0 45 13t27 32.5t9 42t-9 42t-27 32.5t-45 13h-104v-175h104z" />
    <glyph glyph-name="Q" unicode="Q" horiz-adv-x="676" 
d="M14 480q0 61 25 106.5t66.5 76t94 45.5t107.5 15t108 -15t94 -45.5t66.5 -76t25.5 -106.5v-252q0 -37 -9.5 -68t-26.5 -57l55 -56l-99 -89l-58 60q-35 -17 -74.5 -25t-80.5 -8q-55 0 -108 15t-94 45.5t-66.5 76t-25.5 106.5v252zM193 228q0 -24 13.5 -42.5t34 -29t45 -12
t46.5 7.5l-58 60l99 86l49 -50v232q0 27 -17 45t-42.5 27t-55 8.5t-55 -9.5t-42.5 -27t-17 -44v-252z" />
    <glyph glyph-name="R" unicode="R" horiz-adv-x="624" 
d="M641 0h-223l-175 225h-32v-225h-181v708h283q55 0 102 -13t82.5 -41t56 -72.5t22.5 -106.5q0 -99 -37 -155.5t-102 -76.5zM316 379q28 0 47 12t28.5 30t9.5 39t-9.5 39t-28.5 30t-47 12h-105v-162h105z" />
    <glyph glyph-name="S" unicode="S" horiz-adv-x="568" 
d="M111 224q27 -32 65.5 -49t75 -18.5t63 11.5t28.5 42q1 15 -10 27t-28 20.5t-39 14.5t-44 9q-43 7 -82.5 24t-70 44.5t-48.5 66.5t-17 90q3 52 25 91.5t57 66.5t80 40.5t94 13.5q32 0 63.5 -5t62 -18t60 -35t56.5 -55l-117 -90q-28 30 -63 44t-66 13.5t-52.5 -16.5
t-22.5 -47q2 -26 27 -41.5t67 -24.5q47 -9 92.5 -23t80 -40.5t54.5 -69t17 -108.5q-5 -51 -31 -90.5t-65 -66.5t-87 -40.5t-97 -13.5q-64 0 -127.5 31.5t-113.5 95.5z" />
    <glyph glyph-name="T" unicode="T" horiz-adv-x="564" 
d="M543 709v-170h-191v-539h-181v539h-191v170h563z" />
    <glyph glyph-name="U" unicode="U" horiz-adv-x="676" 
d="M211 708v-471q0 -29 15 -47.5t37.5 -28.5t48.5 -10t48.5 9.5t38 28.5t15.5 48v471h181v-471q0 -62 -24.5 -109t-64.5 -78t-90.5 -46.5t-103.5 -15.5t-104 15.5t-90.5 46.5t-63.5 78t-24 109v471h181z" />
    <glyph glyph-name="V" unicode="V" horiz-adv-x="613" 
d="M281 195l30 167l112 347h192l-255 -708h-164l-255 708h192l111 -346l29 -168h8z" />
    <glyph glyph-name="W" unicode="W" horiz-adv-x="924" 
d="M585 219l17 148l86 341h185l-204 -708h-166l-63 196l-23 162h-7l-25 -161l-56 -197h-166l-205 708h186l84 -339l15 -150h8l17 149q14 48 22.5 75t16 49.5l16.5 49.5t24 74h136l73 -249l23 -148h6z" />
    <glyph glyph-name="X" unicode="X" horiz-adv-x="626" 
d="M159 708l121 -242l124 242h208l-198 -355l198 -353h-208l-124 241l-121 -241h-209l199 353l-199 355h209z" />
    <glyph glyph-name="Y" unicode="Y" horiz-adv-x="580" 
d="M355 279v-279h-179v279l-247 429h208l128 -270l128 270h210z" />
    <glyph glyph-name="Z" unicode="Z" horiz-adv-x="559" 
d="M-9 542v166h502l51 -60l-305 -485l288 2v-165h-514l-44 66l306 476h-284z" />
    <glyph glyph-name="bracketleft" unicode="[" horiz-adv-x="271" 
d="M250 544h-69v-479h69v-165h-240v810h240v-166z" />
    <glyph glyph-name="backslash" unicode="\" horiz-adv-x="389" 
d="M379 -4l-159 -54l-306 769l161 56z" />
    <glyph glyph-name="bracketright" unicode="]" horiz-adv-x="279" 
d="M-29 63h67v484h-67v163h240v-810h-240v163z" />
    <glyph glyph-name="asciicircum" unicode="^" horiz-adv-x="607" 
d="M226 707h98l254 -303h-207l-97 115l-95 -115h-200z" />
    <glyph glyph-name="underscore" unicode="_" horiz-adv-x="556" 
d="M-10 34h504v-169h-504v169z" />
    <glyph glyph-name="grave" unicode="`" horiz-adv-x="293" 
d="M262 519h-189l-151 189h226z" />
    <glyph glyph-name="a" unicode="a" 
d="M200 333q12 0 27.5 -1t28.5 -3q1 25 -15 40t-40.5 18.5t-52 -4.5t-48.5 -29l-79 75q27 39 67 62t84 30.5t88 -0.5t79.5 -31t58.5 -60.5t25 -89.5v-316q-50 -18 -102 -26.5t-98 -8.5q-55 0 -96 16t-68 42t-40.5 59t-13.5 68q0 33 12 62t36.5 50.5t61 34t85.5 12.5z
M258 219q-17 5 -33.5 4.5t-30.5 -7t-22.5 -18t-8.5 -27.5q0 -17 9.5 -28.5t23.5 -18t30.5 -8t31.5 2.5v100z" />
    <glyph glyph-name="b" unicode="b" horiz-adv-x="501" 
d="M180 708v-195q42 13 87.5 6.5t83 -29.5t61.5 -61.5t23 -89.5v-175q-3 -57 -25 -93.5t-56.5 -56t-78 -25.5t-89.5 -1.5t-92 16t-84 26.5v678h170zM180 122q12 -5 27.5 -5.5t28.5 3.5t22.5 13.5t9.5 25.5v187q-2 16 -12.5 24.5t-24 11.5t-27.5 1t-24 -6v-255z" />
    <glyph glyph-name="c" unicode="c" horiz-adv-x="446" 
d="M415 146q-14 -44 -37.5 -73t-51 -46.5t-57.5 -25t-56 -7.5q-39 0 -77 11.5t-68 35t-48.5 59t-18.5 83.5v151q0 48 18.5 83.5t48.5 59t68 35.5t77 12q26 0 55 -6.5t55.5 -23t48 -43.5t33.5 -69l-142 -44q-5 24 -20.5 34.5t-32.5 9.5t-30.5 -12t-13.5 -32v-158
q0 -21 13.5 -32t31 -12t34.5 9.5t24 33.5z" />
    <glyph glyph-name="d" unicode="d" 
d="M435 708v-678q-39 -15 -84.5 -26.5t-91.5 -16t-89.5 1.5t-78 25.5t-56.5 56t-25 93.5v175q-1 51 22.5 89.5t61 61.5t83.5 29.5t88 -6.5v195h170zM265 377q-10 4 -24 6t-27.5 -1t-24 -11.5t-12.5 -24.5v-187q0 -16 9.5 -25.5t22.5 -13.5t28.5 -3.5t27.5 5.5v255z" />
    <glyph glyph-name="e" unicode="e" horiz-adv-x="497" 
d="M277 344q0 22 -17.5 33.5t-39 11t-39 -12t-17.5 -35.5v-41h113v44zM162 189v-8q0 -21 15.5 -36t38 -20.5t48 1t45.5 30.5l97 -75q-20 -28 -43 -45.5t-47 -27.5t-48 -13.5t-46 -3.5q-40 0 -78 11.5t-68 35.5t-48.5 59.5t-18.5 83.5v155q0 48 18.5 84t48.5 59t68 34.5
t78 11.5q39 0 76 -11.5t66.5 -34.5t47.5 -59t18 -84v-147h-268z" />
    <glyph glyph-name="f" unicode="f" horiz-adv-x="283" 
d="M264 561q-43 10 -66.5 -4t-23.5 -39v-67h85v-161h-85v-290h-169v518q0 49 19 88.5t53.5 65.5t82 35.5t104.5 -1.5v-145z" />
    <glyph glyph-name="g" unicode="g" horiz-adv-x="495" 
d="M114 7q-48 20 -78.5 59t-29.5 103v179q0 55 21.5 91.5t56.5 57.5t80 28.5t91.5 4.5t91.5 -15t79 -28v-449q0 -60 -19 -103t-50.5 -71t-72 -40t-83 -10t-84 18t-75.5 45q20 24 34.5 47.5t34.5 47.5q23 -15 50.5 -22.5t51 -4.5t39.5 17.5t16 44.5q-16 -6 -36.5 -9t-41.5 -3
t-41 3t-35 9zM263 395q-11 7 -26.5 8.5t-30.5 -3t-25.5 -16t-10.5 -30.5v-185q0 -19 10 -29.5t24.5 -14.5t30.5 -2t28 10v262z" />
    <glyph glyph-name="h" unicode="h" horiz-adv-x="524" 
d="M188 708v-196q45 11 90.5 4.5t82 -29.5t59.5 -63t23 -97v-327h-168v328q0 17 -9.5 26.5t-23 13.5t-28.5 2t-26 -9v-361h-168v708h168z" />
    <glyph glyph-name="i" unicode="i" horiz-adv-x="260" 
d="M8 639q0 31 14.5 52t36 31.5t46.5 10t46.5 -11t36 -31t14.5 -51.5t-14.5 -51.5t-36 -31t-46.5 -11t-46.5 10t-36 31.5t-14.5 52zM190 518v-518h-168v518h168z" />
    <glyph glyph-name="j" unicode="j" horiz-adv-x="279" 
d="M-45 -37q38 -9 57 6t19 38v497h169v-499q0 -50 -18.5 -90.5t-51.5 -67t-78 -36t-97 4.5v147zM18 622q0 31 14.5 52t36 31.5t46.5 10t46.5 -11t36 -31t14.5 -51.5t-14.5 -51.5t-36 -31t-46.5 -11t-46.5 10t-36 31.5t-14.5 52z" />
    <glyph glyph-name="k" unicode="k" horiz-adv-x="487" 
d="M183 708v-351l111 161h190l-188 -251l187 -267h-188l-112 166v-166h-161v708h161z" />
    <glyph glyph-name="l" unicode="l" horiz-adv-x="288" 
d="M260 5q-52 -14 -97 -4.5t-78 36t-51.5 67t-18.5 90.5v514h169v-512q0 -23 19 -38t57 -6v-147z" />
    <glyph glyph-name="m" unicode="m" horiz-adv-x="751" 
d="M26 480q27 21 69.5 35t89 16.5t91 -9.5t75.5 -43q24 26 57.5 38t69 11.5t70 -13t62 -36t44.5 -57.5t17 -77v-345h-168v347q0 16 -11.5 23.5t-25 7.5t-25 -7.5t-11.5 -22.5v-348h-163v350q0 12 -9 19t-21 9t-25 -0.5t-20 -9.5v-368h-166v480z" />
    <glyph glyph-name="n" unicode="n" horiz-adv-x="517" 
d="M20 492q38 18 84 29.5t93 13t91 -8t78.5 -33t55 -61.5t20.5 -93v-339h-168v338q0 19 -8.5 29.5t-21.5 15t-28 3.5t-27 -6v-380h-169v492z" />
    <glyph glyph-name="o" unicode="o" horiz-adv-x="499" 
d="M218 378q-15 0 -29.5 -10t-14.5 -28v-168q1 -18 14.5 -28.5t30.5 -10.5t30.5 10.5t14.5 28.5v168q0 18 -15.5 28t-30.5 10zM8 337q0 48 18 83.5t48 59.5t68 36t78 12q39 0 77 -12t68 -36t48 -59.5t18 -83.5v-163q0 -61 -31.5 -101.5t-78.5 -61t-101.5 -20.5t-101.5 20.5
t-78.5 61t-31.5 101.5v163z" />
    <glyph glyph-name="p" unicode="p" horiz-adv-x="502" 
d="M10 -186v672q38 15 84 26.5t92 16t89.5 -1.5t78 -25.5t56.5 -56t25 -93.5v-175q1 -51 -23 -89.5t-61.5 -61.5t-83 -29.5t-87.5 6.5v-189h-170zM180 139q10 -5 24 -6.5t27.5 1.5t24 11.5t12.5 24.5v187q0 16 -9.5 25.5t-22.5 13.5t-28.5 3t-27.5 -5v-255z" />
    <glyph glyph-name="q" unicode="q" horiz-adv-x="507" 
d="M262 -186v189q-42 -13 -88 -6.5t-83.5 29.5t-61 61.5t-22.5 89.5v175q3 57 25 93.5t56.5 56t78 25.5t89.5 1.5t91.5 -16t84.5 -26.5v-672h-170zM262 394q-12 4 -27.5 5t-28.5 -3t-22.5 -13.5t-9.5 -25.5v-187q2 -16 12.5 -24.5t24 -11.5t27.5 -1.5t24 6.5v255z" />
    <glyph glyph-name="r" unicode="r" horiz-adv-x="342" 
d="M120 508q23 13 50 17t55 4q14 0 34 -2.5t53 -10.5v-141q-18 6 -39.5 7t-41 -4.5t-32.5 -18.5t-13 -34v-325h-169v327q0 63 29 111t73 70h1z" />
    <glyph glyph-name="s" unicode="s" horiz-adv-x="397" 
d="M63 174q27 -20 57.5 -30t55.5 -8q13 1 18.5 8.5t4 16.5t-10 16t-22.5 8q-45 8 -77.5 25.5t-53.5 40.5t-31.5 50.5t-10.5 56.5q0 31 12 60.5t35.5 52.5t58 37.5t78.5 15.5q35 0 83 -13.5t96 -53.5l-82 -102q-21 10 -35.5 15t-25.5 7q-8 2 -14 1.5t-13 -0.5
q-11 0 -18.5 -11.5t3.5 -22.5q7 -7 20 -12t21 -7q25 -6 52.5 -17t49.5 -29t36.5 -45t14.5 -66q0 -44 -16 -77.5t-43 -55.5t-61.5 -33t-71.5 -11q-51 0 -97.5 17.5t-87.5 65.5z" />
    <glyph glyph-name="t" unicode="t" horiz-adv-x="305" 
d="M277 6q-50 -20 -98.5 -19.5t-86 22t-60.5 65t-22 109.5v525h168v-190h85v-161h-85v-173q1 -21 9.5 -33t22 -16.5t31 -2.5t36.5 8v-134z" />
    <glyph glyph-name="u" unicode="u" horiz-adv-x="519" 
d="M444 26q-38 -18 -84 -29.5t-93 -13t-91 8t-78.5 33t-55 61.5t-20.5 93v339h168v-338q0 -19 8.5 -29.5t21.5 -15t28 -3.5t27 6v380h169v-492z" />
    <glyph glyph-name="v" unicode="v" horiz-adv-x="482" 
d="M224 166l10 103l64 249h181l-185 -518h-150l-183 518h179l65 -250l13 -102h6z" />
    <glyph glyph-name="w" unicode="w" horiz-adv-x="735" 
d="M329 127l-34 -127h-173l-150 518h170l54 -225l14 -108h5l60 333h141l60 -333h5l14 108l54 225h171l-151 -518h-173l-34 127l-13 72h-7z" />
    <glyph glyph-name="x" unicode="x" horiz-adv-x="481" 
d="M204 141l-16 -47l-55 -94h-180l158 259l-159 259h183l53 -91l19 -59h5l17 61q0 -1 5 9q5 8 15.5 26.5t31.5 53.5h188l-162 -257q19 -27 41 -61t44 -69t43 -69t38 -62h-192l-58 95l-15 46h-4z" />
    <glyph glyph-name="y" unicode="y" 
d="M433 518v-480q0 -60 -19 -103.5t-50.5 -71t-72 -40.5t-83 -11t-84 18t-75.5 45q20 24 33 45.5t33 45.5q23 -15 50 -20.5t50 -1t38.5 19.5t15.5 43q-16 -6 -35.5 -9t-39.5 -3t-39 3t-34 9q-48 20 -78.5 59t-29.5 103v349h164v-348q0 -19 9 -29t22.5 -13.5t28.5 -1t27 10.5
v381h169z" />
    <glyph glyph-name="z" unicode="z" horiz-adv-x="433" 
d="M-5 368v150h349l48 -47l-183 -321h176v-150h-361l-46 52l182 316h-165z" />
    <glyph glyph-name="braceleft" unicode="{" horiz-adv-x="319" 
d="M286 547h-59v-129q0 -16 -5 -34t-14.5 -34.5t-23 -30t-29.5 -19.5q35 -13 53.5 -47.5t18.5 -71.5v-118h59v-163h-90q-42 0 -69 10.5t-42.5 30.5t-22 48.5t-6.5 64.5v111q0 21 -11 37t-43 16v163q32 0 43 16t11 36v122q0 35 7 63.5t24.5 49t46 31.5t70.5 11h82v-163z" />
    <glyph glyph-name="bar" unicode="|" horiz-adv-x="243" 
d="M185 724v-859h-169v859h169z" />
    <glyph glyph-name="braceright" unicode="}" horiz-adv-x="295" 
d="M-22 708h69q51 0 81.5 -11t46 -31.5t20 -49t4.5 -63.5v-120q0 -20 11 -36t44 -16v-163q-33 0 -44 -16t-11 -37v-119q0 -36 -6 -64.5t-23 -48.5t-47 -30.5t-78 -10.5h-67v163h51v126q-1 19 5 38t17 35.5t25.5 28.5t29.5 18q-14 7 -28.5 19t-26 28t-18 34t-4.5 36v127h-51
v163z" />
    <glyph glyph-name="asciitilde" unicode="~" horiz-adv-x="466" 
d="M431 306q-15 -25 -32 -47.5t-37 -39t-43 -26.5t-49 -10q-29 0 -51 14.5t-41.5 25t-37 8t-37.5 -35.5l-111 93q15 22 32.5 43t36.5 36.5t41 25t46 9.5q22 0 39.5 -8t33 -18.5t28.5 -19t26 -10t26 8t28 36.5z" />
    <glyph glyph-name="uni00A0" unicode="&#xa0;" horiz-adv-x="260" 
 />
    <glyph glyph-name="exclamdown" unicode="&#xa1;" horiz-adv-x="278" 
d="M33 291h171v-475h-171v475zM218 416q0 -44 -28.5 -72t-71.5 -28q-44 0 -71 28t-27 72q0 42 27 70t71 28q43 0 71.5 -28t28.5 -70z" />
    <glyph glyph-name="cent" unicode="&#xa2;" horiz-adv-x="463" 
d="M165 587h128v-73q40 -12 74.5 -42.5t51.5 -89.5l-142 -44q-5 24 -20.5 34.5t-32.5 9.5t-30.5 -12t-13.5 -32v-158q0 -21 13.5 -32t31 -12t34.5 9.5t24 33.5l146 -33q-20 -62 -57 -95t-79 -47v-73h-128v70q-31 7 -58 22.5t-47.5 38t-32.5 53t-12 68.5v151q0 38 12 68.5
t32.5 53t47.5 37.5t58 23v71z" />
    <glyph glyph-name="sterling" unicode="&#xa3;" horiz-adv-x="477" 
d="M356 532q-15 17 -35 22t-38 -1t-30.5 -21t-12.5 -39v-70h168v-153h-168v-112h206v-158h-455v158h78v112h-78v153h78v75q0 36 10.5 73.5t35 68t66 50.5t103.5 20q38 0 85.5 -19t85.5 -64z" />
    <glyph glyph-name="currency" unicode="&#xa4;" horiz-adv-x="576" 
d="M35 220q-24 49 -24 111q0 29 6.5 57.5t17.5 53.5l-48 47l114 122l53 -53q25 11 51.5 17t56.5 6q29 0 56.5 -7t52.5 -18l54 54l113 -121l-49 -48q25 -52 25 -110q0 -60 -24 -112l48 -46l-113 -121l-53 53q-26 -14 -52 -19t-58 -5q-27 0 -54.5 5.5t-53.5 17.5
q-6 -6 -15.5 -15t-17.5 -17q-11 -10 -21 -19l-111 118zM163 330q0 -21 8 -39t21.5 -31.5t31.5 -21t38 -7.5t37.5 7.5t31 21t21.5 31.5t8 39t-8 39.5t-21.5 32t-31 21.5t-37.5 8t-38 -8t-31.5 -21.5t-21.5 -32t-8 -39.5z" />
    <glyph glyph-name="yen" unicode="&#xa5;" horiz-adv-x="574" 
d="M396 361h71l-23 -108h-95v-31h118l-23 -108h-95v-114h-179v114h-109l22 108h87v31h-109l22 108h40l-200 347h208l128 -270l128 270h210z" />
    <glyph glyph-name="brokenbar" unicode="&#xa6;" horiz-adv-x="236" 
d="M184 660v-347h-170v347h170zM184 267v-377h-170v377h170z" />
    <glyph glyph-name="section" unicode="&#xa7;" horiz-adv-x="470" 
d="M261 267q25 26 0 50.5t-94 52.5q-13 -7 -17.5 -16t-2 -18t11.5 -17.5t22 -13.5zM125 115q14 -21 33.5 -30.5t37.5 -10t30.5 7.5t12.5 23t-17.5 27.5t-43.5 25.5t-56.5 28t-56.5 35t-43.5 47t-17.5 63q0 34 12 61t38 45q-16 19 -24 42.5t-8 44.5q0 44 17 78.5t44.5 58
t63 36t73.5 12.5q47 0 88.5 -23.5t80.5 -82.5l-118 -71q-11 17 -24.5 23t-25.5 3.5t-20 -12t-8 -22.5q0 -17 16.5 -28.5t41.5 -22.5t53.5 -23.5t53.5 -31t41.5 -46t16.5 -67.5q0 -29 -12.5 -55t-35.5 -45q21 -26 29.5 -53t8.5 -53q0 -36 -16 -69t-43.5 -58t-64 -39.5
t-77.5 -14.5q-54 0 -107 29.5t-90 89.5z" />
    <glyph glyph-name="dieresis" unicode="&#xa8;" horiz-adv-x="393" 
d="M204 629q0 37 24 62t62 25q37 0 62 -25t25 -62q0 -18 -6.5 -33.5t-18.5 -27t-28 -18t-34 -6.5q-38 0 -62 25t-24 60zM-17 629q0 37 25 62t61 25t61 -25t25 -62q0 -35 -25 -60t-61 -25t-61 25t-25 60z" />
    <glyph glyph-name="copyright" unicode="&#xa9;" horiz-adv-x="773" 
d="M19 351q0 74 28.5 139.5t77.5 114t114.5 77t139.5 28.5t139 -28.5t114 -77t77 -114t28 -139.5t-28 -139.5t-77 -114.5t-114 -77t-139 -28t-139.5 28t-114.5 77t-77.5 114.5t-28.5 139.5zM122 351q0 -53 20 -100t55 -82t81.5 -55t100.5 -20q53 0 99.5 20t81 55t54.5 82
t20 100q0 54 -20 100.5t-54.5 81t-81 54.5t-99.5 20q-54 0 -100.5 -20t-81.5 -54.5t-55 -81t-20 -100.5zM187 293v111q0 42 16.5 73.5t43.5 52t61.5 30.5t70.5 10q28 0 57.5 -7t55.5 -22t46 -39t30 -59l-94 -36q-7 23 -22 37t-34.5 20.5t-41 5.5t-39.5 -9t-31 -22t-15 -34
v-113q2 -20 15 -34t31 -22t39.5 -9t41 5.5t34.5 20.5t22 37l96 -36q-10 -35 -30.5 -59t-46.5 -39t-56 -22t-58 -7q-36 0 -70.5 10t-61.5 30.5t-43.5 52t-16.5 73.5z" />
    <glyph glyph-name="ordfeminine" unicode="&#xaa;" horiz-adv-x="342" 
d="M16 626q30 45 79 63.5t96.5 10.5t82 -41.5t34.5 -91.5v-233q-48 -13 -101 -19t-97 3.5t-72.5 39.5t-28.5 88q0 44 20 70.5t49.5 38.5t62.5 12t59 -8q-1 20 -15.5 30t-34.5 11.5t-41.5 -5.5t-36.5 -21zM193 471q-11 4 -23.5 5t-24 -2t-19.5 -11t-9 -20q0 -16 8 -25
t19.5 -13t24.5 -3.5t24 3.5v66z" />
    <glyph glyph-name="guillemotleft" unicode="&#xab;" horiz-adv-x="586" 
d="M-16 287l160 237l145 -86l-103 -151l104 -153l-147 -86zM242 287l160 237l145 -86l-104 -153l106 -150l-147 -87z" />
    <glyph glyph-name="logicalnot" unicode="&#xac;" horiz-adv-x="567" 
d="M321 260h-319v169h487v-301h-168v132z" />
    <glyph glyph-name="uni00AD" unicode="&#xad;" horiz-adv-x="333" 
d="M-11 332h313v-171h-313v171z" />
    <glyph glyph-name="registered" unicode="&#xae;" horiz-adv-x="781" 
d="M331 169h-98v358h162q40 0 68.5 -14t45 -36.5t21.5 -49.5t-1 -53t-23.5 -48t-45.5 -33l86 -124h-116l-78 117h-21v-117zM331 366h61q20 0 29.5 12t9.5 26t-10.5 26t-29.5 12h-60v-76zM19 351q0 74 28.5 139.5t77.5 114t114.5 77t139.5 28.5t139 -28.5t114 -77t77 -114
t28 -139.5t-28 -139.5t-77 -114.5t-114 -77t-139 -28t-139.5 28t-114.5 77t-77.5 114.5t-28.5 139.5zM126 351q0 -53 20 -99t54.5 -81t81 -55t99.5 -20q52 0 98 20t80.5 55t54.5 81t20 99t-20 99t-54.5 80.5t-80.5 54.5t-98 20q-53 0 -99.5 -20t-81 -54.5t-54.5 -80.5
t-20 -99z" />
    <glyph glyph-name="macron" unicode="&#xaf;" horiz-adv-x="321" 
d="M301 519h-326v170h326v-170z" />
    <glyph glyph-name="degree" unicode="&#xb0;" horiz-adv-x="349" 
d="M151 392q-34 0 -64 13t-52.5 35.5t-35.5 52.5t-13 64t13 64t35.5 52.5t52.5 35t64 12.5t63.5 -12.5t52 -35t35.5 -52.5t13 -64t-13 -64t-35.5 -52.5t-52.5 -35.5t-63 -13zM151 507q22 0 36 14t14 34t-14 36t-36 16t-36 -16t-14 -36t14 -34t36 -14z" />
    <glyph glyph-name="plusminus" unicode="&#xb1;" horiz-adv-x="544" 
d="M23 520h138v132h170v-132h141v-170h-141v-131h-170v131h-138v170zM22 181h451v-168h-451v168z" />
    <glyph glyph-name="uni00B2" unicode="&#xb2;" horiz-adv-x="357" 
d="M4 611q30 48 69 67.5t85 19.5q37 0 67 -12.5t51 -33.5t32.5 -48.5t11.5 -57.5q0 -31 -11 -59t-41 -54l-59 -56h119v-131h-301l-28 76l155 176q22 25 21.5 43.5t-13.5 24.5t-32 -1.5t-34 -32.5z" />
    <glyph glyph-name="uni00B3" unicode="&#xb3;" horiz-adv-x="347" 
d="M117 532h50q11 0 17 9t5 19.5t-9.5 19.5t-24.5 8t-29.5 -8t-21.5 -17l-76 64q30 32 57 50t67 20q43 2 79 -17t55 -49.5t16 -68t-39 -71.5q31 -14 46 -37t17.5 -48.5t-7.5 -51.5t-28 -47q-29 -33 -70 -46t-82.5 -8t-78 28t-55.5 63l91 57q9 -16 25 -23t32.5 -6t28.5 10
t12 25q0 8 -7 17.5t-19 7.5h-51v100z" />
    <glyph glyph-name="acute" unicode="&#xb4;" horiz-adv-x="288" 
d="M79 710h218l-154 -217h-181z" />
    <glyph glyph-name="mu" unicode="&#xb5;" horiz-adv-x="510" 
d="M445 -2l-146 1l-6 38q-13 -20 -28 -29t-30.5 -9t-29.5 9t-24 26v-206h-171v688h171v-310q0 -25 14 -37.5t31 -13t31 12t14 37.5v311h172z" />
    <glyph glyph-name="paragraph" unicode="&#xb6;" horiz-adv-x="641" 
d="M189 218q-51 7 -89 29.5t-64 54.5t-39 71.5t-13 80.5q0 45 15 88t46 76.5t76.5 54t107.5 20.5h336v-776h-168v614h-40v-614h-168v301z" />
    <glyph glyph-name="periodcentered" unicode="&#xb7;" horiz-adv-x="274" 
d="M14 303q0 42 27.5 71.5t72.5 29.5q43 0 70.5 -29.5t27.5 -71.5t-27.5 -70t-70.5 -28q-45 0 -72.5 28t-27.5 70z" />
    <glyph glyph-name="cedilla" unicode="&#xb8;" horiz-adv-x="284" 
d="M59 -90q13 -4 21.5 1.5t10 14t-5 16.5t-22.5 10l-64 10l63 129h149l-30 -62q37 -11 54 -35t17.5 -53t-13 -58t-35.5 -50q-18 -17 -45 -26.5t-55 -9.5q-33 0 -70.5 15t-75.5 46q4 8 11 26.5t20 46.5z" />
    <glyph glyph-name="uni00B9" unicode="&#xb9;" horiz-adv-x="282" 
d="M83 528l-49 -28l-50 70l126 137h107v-441h-134v262z" />
    <glyph glyph-name="ordmasculine" unicode="&#xba;" horiz-adv-x="373" 
d="M171 298q-32 0 -62.5 9.5t-55 28t-39.5 46.5t-15 65v120q0 37 15 65t39.5 47t55 28t62.5 9q31 0 62 -9t55.5 -28t39.5 -47t15 -65v-120q0 -37 -15 -65t-39.5 -46.5t-55.5 -28t-62 -9.5zM134 447q0 -17 11.5 -25.5t25.5 -8.5t25.5 8t11.5 26v119q0 18 -12 26.5t-25.5 8.5
t-25 -8.5t-11.5 -25.5v-120z" />
    <glyph glyph-name="guillemotright" unicode="&#xbb;" horiz-adv-x="608" 
d="M318 287l-159 -238l-148 85l105 153l-103 151l144 87zM567 287l-160 -239l-145 87l103 152l-6 9t-14.5 21t-30 43.5t-53.5 78.5l147 85z" />
    <glyph glyph-name="onequarter" unicode="&#xbc;" horiz-adv-x="799" 
d="M505 719l117 -70l-422 -694l-117 70zM83 534l-49 -28l-50 70l126 137h107v-441h-134v262zM724 204h36v-117h-36v-87h-134v87h-161l-58 90l240 291h113v-264zM604 293l-4 1l-82 -94h84z" />
    <glyph glyph-name="onehalf" unicode="&#xbd;" horiz-adv-x="824" 
d="M513 719l116 -70l-423 -694l-115 71zM83 534l-49 -28l-50 70l126 137h107v-441h-134v262zM470 356q29 46 68 65t84 19q37 0 66.5 -12t50.5 -32.5t32 -47t11 -55.5q0 -30 -11 -57t-40 -52l-59 -54h112v-127h-291l-28 74l153 170q22 24 21.5 41.5t-13.5 23.5t-32 -1
t-33 -31z" />
    <glyph glyph-name="threequarters" unicode="&#xbe;" horiz-adv-x="822" 
d="M566 719l113 -70l-422 -694l-113 71zM757 197h35v-113h-35v-84h-118v84h-163l-56 87l232 281h105v-255zM645 283l-4 1l-79 -91h81zM102 541h53q12 0 17.5 9.5t4.5 20.5t-9.5 20t-25.5 8t-31 -8.5t-22 -17.5l-80 66q31 33 60 51.5t70 20.5q45 2 83 -17.5t58 -51t16.5 -70
t-41.5 -73.5q33 -15 48.5 -38.5t18 -50t-7.5 -53t-29 -47.5q-31 -34 -74 -48t-86.5 -8.5t-81.5 29t-58 65.5l95 58q9 -17 26 -24t34.5 -5.5t30 10.5t12.5 25q0 9 -7 18.5t-20 7.5h-54v103z" />
    <glyph glyph-name="questiondown" unicode="&#xbf;" horiz-adv-x="451" 
d="M434 -84q-31 -58 -75.5 -89.5t-94 -40.5t-98.5 2.5t-88 41t-63.5 74.5t-24.5 102q0 33 10 65.5t31 59.5t53.5 46.5t77.5 25.5l10 113h150l10 -224q-32 13 -62 13.5t-53 -10t-37 -31t-14 -47.5t20 -43.5t47.5 -19.5t55.5 8.5t43 40.5zM338 435q0 -40 -26.5 -65t-64.5 -25
t-64 25t-26 65q0 19 7 35.5t19 29t28.5 19.5t35.5 7q38 0 64.5 -26.5t26.5 -64.5z" />
    <glyph glyph-name="Agrave" unicode="&#xc0;" horiz-adv-x="638" 
d="M212 708h163l253 -708h-192l-46 142h-189l-44 -142h-192zM288 508l-47 -207h106l-46 207h-13zM401 734h-164l-131 164h196z" />
    <glyph glyph-name="Aacute" unicode="&#xc1;" horiz-adv-x="638" 
d="M291 898h196l-131 -164h-164zM212 708h163l253 -708h-192l-46 142h-189l-44 -142h-192zM288 508l-47 -207h106l-46 207h-13z" />
    <glyph glyph-name="Acircumflex" unicode="&#xc2;" horiz-adv-x="638" 
d="M212 708h163l253 -708h-192l-46 142h-189l-44 -142h-192zM288 508l-47 -207h106l-46 207h-13zM247 908h93l167 -175h-166l-47 49l-45 -49h-169z" />
    <glyph glyph-name="Atilde" unicode="&#xc3;" horiz-adv-x="638" 
d="M212 708h163l253 -708h-192l-46 142h-189l-44 -142h-192zM288 508l-47 -207h106l-46 207h-13zM126 779q14 62 46 89.5t67 25.5q21 0 37.5 -9.5t31.5 -17t29.5 -7t31.5 20.5l85 -49q-18 -46 -42 -69.5t-48 -31.5q-18 -6 -34 -2.5t-30 10t-27 14t-25 10t-23.5 -2.5
t-23.5 -23z" />
    <glyph glyph-name="Adieresis" unicode="&#xc4;" horiz-adv-x="638" 
d="M212 708h163l253 -708h-192l-46 142h-189l-44 -142h-192zM288 508l-47 -207h106l-46 207h-13zM315 810q0 35 22 58t57 23q34 0 57 -23t23 -58q0 -32 -23 -55t-57 -23q-35 0 -57 23t-22 55zM111 810q0 35 23 58t57 23q33 0 56 -23t23 -58q0 -32 -23 -55t-56 -23
q-34 0 -57 23t-23 55z" />
    <glyph glyph-name="Aring" unicode="&#xc5;" horiz-adv-x="638" 
d="M212 708h19q-31 17 -49.5 47.5t-18.5 67.5q0 27 10 51t28 42t42 28.5t51 10.5t50.5 -11.5t41 -30t27 -42.5t9.5 -49q0 -35 -19 -66t-49 -48h21l253 -708h-192l-46 142h-189l-44 -142h-192zM288 508l-47 -207h106l-46 207h-13zM324 822q0 14 -9 23.5t-21 9.5
q-15 0 -23.5 -9.5t-8.5 -23.5q0 -10 8.5 -20t23.5 -10q12 0 21 8t9 22z" />
    <glyph glyph-name="AE" unicode="&#xc6;" horiz-adv-x="780" 
d="M736 708v-176h-245v-93h220v-173h-220v-95h245v-171h-415v192h-108l-69 -192h-215l312 708h495zM317 525l-59 -180h72l4 180h-17z" />
    <glyph glyph-name="Ccedilla" unicode="&#xc7;" horiz-adv-x="575" 
d="M224 -128q12 -3 19 1.5t8.5 12t-4 15t-20.5 9.5l-57 9l38 80q-42 8 -79.5 27t-66 48.5t-45 69t-16.5 89.5v241q0 60 24 105.5t63.5 75.5t90.5 45.5t104 15.5q33 0 68 -8t68 -26.5t62.5 -50t50.5 -78.5l-146 -59q-18 33 -52.5 46.5t-68.5 9.5t-59.5 -23.5t-25.5 -52.5
v-241q0 -32 25.5 -51.5t59.5 -22.5t66.5 11.5t47.5 51.5l156 -72q-35 -68 -87 -104t-107 -48l-9 -19q34 -9 49 -31t15.5 -48t-11.5 -52.5t-32 -45.5q-17 -14 -40.5 -23t-48.5 -9q-30 0 -63.5 13.5t-66.5 41.5q3 8 9.5 24t17.5 42z" />
    <glyph glyph-name="Egrave" unicode="&#xc8;" horiz-adv-x="572" 
d="M381 734h-164l-131 164h196zM518 540h-312v-106h287v-159h-287v-106h312v-169h-493v709h493v-169z" />
    <glyph glyph-name="Eacute" unicode="&#xc9;" horiz-adv-x="572" 
d="M290 898h196l-131 -164h-164zM518 540h-312v-106h287v-159h-287v-106h312v-169h-493v709h493v-169z" />
    <glyph glyph-name="Ecircumflex" unicode="&#xca;" horiz-adv-x="572" 
d="M518 540h-312v-106h287v-159h-287v-106h312v-169h-493v709h493v-169zM218 907h93l167 -171h-165l-47 48l-45 -48h-170z" />
    <glyph glyph-name="Edieresis" unicode="&#xcb;" horiz-adv-x="572" 
d="M518 540h-312v-106h287v-159h-287v-106h312v-169h-493v709h493v-169zM298 823q0 37 24 62t62 25q37 0 62 -25t25 -62q0 -18 -6.5 -33.5t-18.5 -27t-28 -18t-34 -6.5q-38 0 -62 25t-24 60zM77 823q0 37 25 62t61 25t61 -25t25 -62q0 -35 -25 -60t-61 -25t-61 25t-25 60z
" />
    <glyph glyph-name="Igrave" unicode="&#xcc;" horiz-adv-x="288" 
d="M215 736h-164l-131 164h196zM21 708h179v-708h-179v708z" />
    <glyph glyph-name="Iacute" unicode="&#xcd;" horiz-adv-x="288" 
d="M104 898h196l-131 -164h-164zM21 708h179v-708h-179v708z" />
    <glyph glyph-name="Icircumflex" unicode="&#xce;" horiz-adv-x="288" 
d="M21 708h179v-708h-179v708zM67 907h89l160 -173h-158l-45 48l-43 -48h-163z" />
    <glyph glyph-name="Idieresis" unicode="&#xcf;" horiz-adv-x="288" 
d="M21 708h179v-708h-179v708zM134 819q0 37 24 62t62 25q37 0 62 -25t25 -62q0 -18 -6.5 -33.5t-18.5 -27t-28 -18t-34 -6.5q-38 0 -62 25t-24 60zM-87 819q0 37 25 62t61 25t61 -25t25 -62q0 -35 -25 -60t-61 -25t-61 25t-25 60z" />
    <glyph glyph-name="Eth" unicode="&#xd0;" horiz-adv-x="619" 
d="M-19 428h43v280h286q54 0 100 -13.5t80.5 -42t54 -72.5t19.5 -106v-241q0 -61 -19.5 -105t-54 -72.5t-80.5 -42t-100 -13.5h-286v275h-43v153zM310 176q35 0 54.5 14t19.5 43v241q0 29 -19.5 43.5t-54.5 14.5h-105v-104h83v-153h-83v-99h105z" />
    <glyph glyph-name="Ntilde" unicode="&#xd1;" horiz-adv-x="682" 
d="M208 0h-179v708h170l171 -302l60 -142l8 1q-6 34 -11 61l-4 22t-4 20q-2 10 -4 19v321h178v-708h-181l-160 279l-62 142l-8 -1q8 -39 13 -69q5 -26 8.5 -47t4.5 -21v-283zM144 779q14 64 47.5 93t70.5 28q22 0 39 -10t33 -18t31 -7.5t33 21.5l89 -51q-19 -48 -44 -72.5
t-50 -33.5q-29 -9 -52 1.5t-43 21t-38.5 11t-36.5 -27.5z" />
    <glyph glyph-name="Ograve" unicode="&#xd2;" horiz-adv-x="682" 
d="M401 747h-164l-131 164h196zM14 480q0 61 25 106.5t66.5 76t94 45.5t107.5 15t108 -15t94 -45.5t66.5 -76t25.5 -106.5v-252q0 -61 -25 -106.5t-66.5 -76t-94 -45.5t-107.5 -15t-108 15t-94 45.5t-66.5 76t-25.5 106.5v252zM193 228q0 -26 16.5 -43t42 -25.5t55.5 -8.5
t55.5 8.5t42.5 25.5t17 43v252q0 27 -17 45t-42.5 26.5t-55 8.5t-55 -9t-42.5 -27t-17 -44v-252z" />
    <glyph glyph-name="Oacute" unicode="&#xd3;" horiz-adv-x="682" 
d="M310 914h196l-131 -164h-164zM14 480q0 61 25 106.5t66.5 76t94 45.5t107.5 15t108 -15t94 -45.5t66.5 -76t25.5 -106.5v-252q0 -61 -25 -106.5t-66.5 -76t-94 -45.5t-107.5 -15t-108 15t-94 45.5t-66.5 76t-25.5 106.5v252zM193 228q0 -26 16.5 -43t42 -25.5t55.5 -8.5
t55.5 8.5t42.5 25.5t17 43v252q0 27 -17 45t-42.5 26.5t-55 8.5t-55 -9t-42.5 -27t-17 -44v-252z" />
    <glyph glyph-name="Ocircumflex" unicode="&#xd4;" horiz-adv-x="682" 
d="M14 480q0 61 25 106.5t66.5 76t94 45.5t107.5 15t108 -15t94 -45.5t66.5 -76t25.5 -106.5v-252q0 -61 -25 -106.5t-66.5 -76t-94 -45.5t-107.5 -15t-108 15t-94 45.5t-66.5 76t-25.5 106.5v252zM193 228q0 -26 16.5 -43t42 -25.5t55.5 -8.5t55.5 8.5t42.5 25.5t17 43v252
q0 27 -17 45t-42.5 26.5t-55 8.5t-55 -9t-42.5 -27t-17 -44v-252zM258 912h94l169 -167h-167l-47 47l-46 -47h-171z" />
    <glyph glyph-name="Otilde" unicode="&#xd5;" horiz-adv-x="682" 
d="M14 480q0 61 25 106.5t66.5 76t94 45.5t107.5 15t108 -15t94 -45.5t66.5 -76t25.5 -106.5v-252q0 -61 -25 -106.5t-66.5 -76t-94 -45.5t-107.5 -15t-108 15t-94 45.5t-66.5 76t-25.5 106.5v252zM193 228q0 -26 16.5 -43t42 -25.5t55.5 -8.5t55.5 8.5t42.5 25.5t17 43v252
q0 27 -17 45t-42.5 26.5t-55 8.5t-55 -9t-42.5 -27t-17 -44v-252zM150 780q10 66 41 97t68 33q22 1 40 -7.5t34 -15t31.5 -5t31.5 23.5l92 -44q-15 -50 -38.5 -76t-47.5 -37q-19 -8 -35.5 -5.5t-31.5 8.5t-29 12.5t-27 8t-24.5 -4.5t-22.5 -26z" />
    <glyph glyph-name="Odieresis" unicode="&#xd6;" horiz-adv-x="682" 
d="M14 480q0 61 25 106.5t66.5 76t94 45.5t107.5 15t108 -15t94 -45.5t66.5 -76t25.5 -106.5v-252q0 -61 -25 -106.5t-66.5 -76t-94 -45.5t-107.5 -15t-108 15t-94 45.5t-66.5 76t-25.5 106.5v252zM193 228q0 -26 16.5 -43t42 -25.5t55.5 -8.5t55.5 8.5t42.5 25.5t17 43v252
q0 27 -17 45t-42.5 26.5t-55 8.5t-55 -9t-42.5 -27t-17 -44v-252zM331 821q0 36 24.5 61t60.5 25t61.5 -25t25.5 -61q0 -17 -7 -32.5t-18.5 -27t-27.5 -18t-34 -6.5q-36 0 -60.5 24.5t-24.5 59.5zM111 821q0 18 7 33.5t18.5 27.5t27 18.5t32.5 6.5q36 0 60.5 -25t24.5 -61
q0 -35 -24.5 -59.5t-60.5 -24.5q-35 0 -60 24.5t-25 59.5z" />
    <glyph glyph-name="multiply" unicode="&#xd7;" horiz-adv-x="525" 
d="M114 535l123 -123l122 122l119 -122l-119 -119l119 -120l-120 -120l-120 120q-29 -30 -62 -62t-61 -61l-117 121l120 120l-124 125z" />
    <glyph glyph-name="Oslash" unicode="&#xd8;" horiz-adv-x="685" 
d="M23 479q0 61 25 106.5t66.5 76t94 45.5t107.5 15q17 0 26 0.5t24 -2.5l30 77l170 -57l-34 -87q40 -30 59.5 -71t19.5 -103v-250q0 -61 -25.5 -106.5t-67 -76t-94.5 -45.5t-108 -15q-15 0 -23 1t-24 2q-7 -20 -16 -43t-16 -38l-168 60l35 88q-35 30 -58 73t-23 100v250z
M203 275l98 266q-20 5 -38 3t-31.5 -10.5t-21.5 -22.5t-7 -32v-204zM338 164q39 -3 67.5 13t25.5 52v197l-108 -259z" />
    <glyph glyph-name="Ugrave" unicode="&#xd9;" horiz-adv-x="674" 
d="M402 727h-164l-131 164h196zM211 708v-471q0 -29 15 -47.5t37.5 -28.5t48.5 -10t48.5 9.5t38 28.5t15.5 48v471h181v-471q0 -62 -24.5 -109t-64.5 -78t-90.5 -46.5t-103.5 -15.5t-104 15.5t-90.5 46.5t-63.5 78t-24 109v471h181z" />
    <glyph glyph-name="Uacute" unicode="&#xda;" horiz-adv-x="676" 
d="M326 893h196l-131 -164h-164zM211 708v-471q0 -29 15 -47.5t37.5 -28.5t48.5 -10t48.5 9.5t38 28.5t15.5 48v471h181v-471q0 -62 -24.5 -109t-64.5 -78t-90.5 -46.5t-103.5 -15.5t-104 15.5t-90.5 46.5t-63.5 78t-24 109v471h181z" />
    <glyph glyph-name="Ucircumflex" unicode="&#xdb;" horiz-adv-x="676" 
d="M211 708v-471q0 -29 15 -47.5t37.5 -28.5t48.5 -10t48.5 9.5t38 28.5t15.5 48v471h181v-471q0 -62 -24.5 -109t-64.5 -78t-90.5 -46.5t-103.5 -15.5t-104 15.5t-90.5 46.5t-63.5 78t-24 109v471h181zM257 912h102l182 -176h-181l-51 49l-49 -49h-186z" />
    <glyph glyph-name="Udieresis" unicode="&#xdc;" horiz-adv-x="676" 
d="M211 708v-471q0 -29 15 -47.5t37.5 -28.5t48.5 -10t48.5 9.5t38 28.5t15.5 48v471h181v-471q0 -62 -24.5 -109t-64.5 -78t-90.5 -46.5t-103.5 -15.5t-104 15.5t-90.5 46.5t-63.5 78t-24 109v471h181zM333 812q0 34 23.5 57t60.5 23q36 0 60 -23t24 -57q0 -32 -24 -55
t-60 -23q-37 0 -60.5 23t-23.5 55zM118 812q0 34 24.5 57t59.5 23t59.5 -23t24.5 -57q0 -32 -24.5 -55t-59.5 -23t-59.5 23t-24.5 55z" />
    <glyph glyph-name="Yacute" unicode="&#xdd;" horiz-adv-x="580" 
d="M277 878h196l-131 -164h-164zM355 279v-279h-179v279l-247 429h208l128 -270l128 270h210z" />
    <glyph glyph-name="Thorn" unicode="&#xde;" horiz-adv-x="540" 
d="M202 602h10q143 0 217.5 -60t74.5 -180q0 -69 -26 -114.5t-68.5 -72t-97 -37.5t-110.5 -11v-126h-181v714h181v-113zM202 285q42 -5 70.5 6t42.5 29.5t14 41t-14 41.5t-42.5 30t-70.5 6v-154z" />
    <glyph glyph-name="germandbls" unicode="&#xdf;" horiz-adv-x="568" 
d="M196 0h-169v507q-1 52 19.5 92t53.5 66t76 39.5t87 13.5q43 0 84 -12.5t73.5 -38t52 -64.5t19.5 -91q0 -15 -3 -34.5t-11 -39.5t-22.5 -40t-37.5 -35q45 -17 71 -48t35 -68t1.5 -76.5t-28.5 -72.5q-15 -24 -36.5 -42.5t-47.5 -30.5t-55 -18.5t-58 -6.5q-35 0 -72 9v158
q22 -11 43.5 -11t37.5 8t26 23.5t10 34.5q0 29 -21 44.5t-51 15.5h-45v152q43 -9 66 9.5t27 44.5t-11.5 49t-48.5 23q-25 0 -45 -15t-20 -45v-500z" />
    <glyph glyph-name="agrave" unicode="&#xe0;" 
d="M316 547h-142l-109 133h173zM200 333q12 0 27.5 -1t28.5 -3q1 25 -15 40t-40.5 18.5t-52 -4.5t-48.5 -29l-79 75q27 39 67 62t84 30.5t88 -0.5t79.5 -31t58.5 -60.5t25 -89.5v-316q-50 -18 -102 -26.5t-98 -8.5q-55 0 -96 16t-68 42t-40.5 59t-13.5 68q0 33 12 62
t36.5 50.5t61 34t85.5 12.5zM258 219q-17 5 -33.5 4.5t-30.5 -7t-22.5 -18t-8.5 -27.5q0 -17 9.5 -28.5t23.5 -18t30.5 -8t31.5 2.5v100z" />
    <glyph glyph-name="aacute" unicode="&#xe1;" 
d="M209 680h173l-109 -133h-142zM200 333q12 0 27.5 -1t28.5 -3q1 25 -15 40t-40.5 18.5t-52 -4.5t-48.5 -29l-79 75q27 39 67 62t84 30.5t88 -0.5t79.5 -31t58.5 -60.5t25 -89.5v-316q-50 -18 -102 -26.5t-98 -8.5q-55 0 -96 16t-68 42t-40.5 59t-13.5 68q0 33 12 62
t36.5 50.5t61 34t85.5 12.5zM258 219q-17 5 -33.5 4.5t-30.5 -7t-22.5 -18t-8.5 -27.5q0 -17 9.5 -28.5t23.5 -18t30.5 -8t31.5 2.5v100z" />
    <glyph glyph-name="acircumflex" unicode="&#xe2;" 
d="M200 333q12 0 27.5 -1t28.5 -3q1 25 -15 40t-40.5 18.5t-52 -4.5t-48.5 -29l-79 75q27 39 67 62t84 30.5t88 -0.5t79.5 -31t58.5 -60.5t25 -89.5v-316q-50 -18 -102 -26.5t-98 -8.5q-55 0 -96 16t-68 42t-40.5 59t-13.5 68q0 33 12 62t36.5 50.5t61 34t85.5 12.5z
M258 219q-17 5 -33.5 4.5t-30.5 -7t-22.5 -18t-8.5 -27.5q0 -17 9.5 -28.5t23.5 -18t30.5 -8t31.5 2.5v100zM184 692h74l134 -148h-133l-37 34l-35 -34h-137z" />
    <glyph glyph-name="atilde" unicode="&#xe3;" 
d="M200 333q12 0 27.5 -1t28.5 -3q1 25 -15 40t-40.5 18.5t-52 -4.5t-48.5 -29l-79 75q27 39 67 62t84 30.5t88 -0.5t79.5 -31t58.5 -60.5t25 -89.5v-316q-50 -18 -102 -26.5t-98 -8.5q-55 0 -96 16t-68 42t-40.5 59t-13.5 68q0 33 12 62t36.5 50.5t61 34t85.5 12.5z
M258 219q-17 5 -33.5 4.5t-30.5 -7t-22.5 -18t-8.5 -27.5q0 -17 9.5 -28.5t23.5 -18t30.5 -8t31.5 2.5v100zM72 575q11 58 40 83t61 25q21 1 36 -7.5t28.5 -15t26.5 -4.5t30 23l80 -42q-15 -43 -37.5 -65t-42.5 -30q-18 -7 -32.5 -4.5t-27.5 8.5t-24.5 12.5t-22.5 8.5
t-22 -3.5t-22 -24.5z" />
    <glyph glyph-name="adieresis" unicode="&#xe4;" 
d="M200 333q12 0 27.5 -1t28.5 -3q1 25 -15 40t-40.5 18.5t-52 -4.5t-48.5 -29l-79 75q27 39 67 62t84 30.5t88 -0.5t79.5 -31t58.5 -60.5t25 -89.5v-316q-50 -18 -102 -26.5t-98 -8.5q-55 0 -96 16t-68 42t-40.5 59t-13.5 68q0 33 12 62t36.5 50.5t61 34t85.5 12.5z
M258 219q-17 5 -33.5 4.5t-30.5 -7t-22.5 -18t-8.5 -27.5q0 -17 9.5 -28.5t23.5 -18t30.5 -8t31.5 2.5v100zM243 607q0 31 20 52t52 21q31 0 52 -21t21 -52q0 -29 -21 -50t-52 -21q-32 0 -52 21t-20 50zM57 607q0 31 21 52t51 21t51 -21t21 -52q0 -29 -21 -50t-51 -21
t-51 21t-21 50z" />
    <glyph glyph-name="aring" unicode="&#xe5;" 
d="M114 606q0 22 9 41.5t24 34.5t35 24t43 9t42.5 -9.5t34 -25t23 -35t8.5 -40.5q0 -27 -14 -50.5t-37 -38.5q28 -8 53.5 -23.5t44.5 -37.5t30.5 -50.5t12.5 -64.5v-316q-50 -18 -102 -26.5t-98 -8.5q-55 0 -96 16t-68 42t-40.5 59t-13.5 68q0 33 12 62t36.5 50.5t61 34
t85.5 12.5q12 0 27.5 -1t28.5 -3q1 25 -15 40t-40.5 18.5t-52 -4.5t-48.5 -29l-79 75q25 36 61 58.5t77 31.5q-20 15 -32.5 38t-12.5 49zM258 219q-17 5 -33.5 4.5t-30.5 -7t-22.5 -18t-8.5 -27.5q0 -17 9.5 -28.5t23.5 -18t30.5 -8t31.5 2.5v100zM251 605q0 11 -7.5 19.5
t-18.5 8.5q-14 0 -21 -8.5t-7 -19.5q0 -8 7 -16.5t21 -8.5q11 0 18.5 7t7.5 18z" />
    <glyph glyph-name="ae" unicode="&#xe6;" horiz-adv-x="747" 
d="M428 189v-8q0 -17 11.5 -31.5t29 -20t38.5 0.5t41 30l99 -79q-34 -42 -74.5 -65t-82 -27.5t-81.5 9t-72 44.5q-21 -27 -53 -40t-61 -13q-55 0 -96 16t-68 42t-40.5 59t-13.5 68q0 33 12 62t36.5 50.5t61 34t85.5 12.5q12 0 27.5 -1t28.5 -3q1 25 -15 40t-40.5 18.5
t-52 -4.5t-48.5 -29l-79 75q33 49 83 73t105 24q17 0 35.5 -3t36.5 -9.5t33.5 -16.5t25.5 -24q29 26 65.5 39t74.5 13t73.5 -12t63.5 -36t45 -59.5t17 -81.5v-147h-251zM260 222q-17 6 -35 5t-32.5 -7.5t-23.5 -19t-9 -29.5q0 -35 31.5 -52t79.5 -3q-5 14 -8 30.5t-3 35.5
v40zM529 342q0 21 -17 31.5t-37 10.5t-37 -10.5t-17 -32.5v-44h108v45z" />
    <glyph glyph-name="ccedilla" unicode="&#xe7;" horiz-adv-x="446" 
d="M415 146q-20 -62 -58.5 -95.5t-79.5 -46.5l-11 -23q33 -10 46.5 -29t12.5 -40.5t-15 -42t-36 -32.5t-45.5 -14t-47 3.5t-47.5 16.5t-46 26q3 6 8.5 19.5t16.5 33.5l57 -15q11 -3 17.5 1t8 10t-4 12t-18.5 7l-52 7l31 57q-31 7 -58.5 22t-48 38t-32.5 53.5t-12 68.5v151
q0 48 18.5 83.5t48.5 59t68 35.5t77 12q26 0 55 -6.5t55.5 -23t48 -43.5t33.5 -69l-142 -44q-5 24 -20.5 34.5t-32.5 9.5t-30.5 -12t-13.5 -32v-158q0 -21 13.5 -32t31 -12t34.5 9.5t24 33.5z" />
    <glyph glyph-name="egrave" unicode="&#xe8;" horiz-adv-x="493" 
d="M306 546h-142l-109 133h173zM273 342q0 19 -16 29.5t-35 10.5t-35 -10t-16 -31v-41h102v42zM175 189v-8q0 -17 11.5 -31.5t29 -20t38.5 0.5t41 30l99 -79q-20 -28 -41.5 -45.5t-44 -27.5t-45.5 -13.5t-45 -3.5q-40 0 -78 11.5t-68 35.5t-48.5 59.5t-18.5 83.5v155
q0 48 18.5 84t48.5 59t68 34.5t78 11.5q39 0 76 -11.5t66.5 -34.5t47.5 -59t18 -84v-147h-251z" />
    <glyph glyph-name="eacute" unicode="&#xe9;" horiz-adv-x="493" 
d="M200 680h173l-109 -133h-142zM273 344q0 22 -17.5 33.5t-39 11t-39 -12t-17.5 -35.5v-41h113v44zM158 189v-8q0 -21 15.5 -36t38 -20.5t48 1t45.5 30.5l97 -75q-20 -28 -43 -45.5t-47 -27.5t-48 -13.5t-46 -3.5q-40 0 -78 11.5t-68 35.5t-48.5 59.5t-18.5 83.5v155
q0 48 18.5 84t48.5 59t68 34.5t78 11.5q39 0 76 -11.5t66.5 -34.5t47.5 -59t18 -84v-147h-268z" />
    <glyph glyph-name="ecircumflex" unicode="&#xea;" horiz-adv-x="493" 
d="M177 688h74l134 -145h-133l-37 34l-35 -34h-137zM273 344q0 22 -17.5 33.5t-39 11t-39 -12t-17.5 -35.5v-41h113v44zM158 189v-8q0 -21 15.5 -36t38 -20.5t48 1t45.5 30.5l97 -75q-20 -28 -43 -45.5t-47 -27.5t-48 -13.5t-46 -3.5q-40 0 -78 11.5t-68 35.5t-48.5 59.5
t-18.5 83.5v155q0 48 18.5 84t48.5 59t68 34.5t78 11.5q39 0 76 -11.5t66.5 -34.5t47.5 -59t18 -84v-147h-268z" />
    <glyph glyph-name="edieresis" unicode="&#xeb;" horiz-adv-x="493" 
d="M273 342q0 19 -16 29.5t-35 10.5t-35 -10t-16 -31v-41h102v42zM175 189v-8q0 -17 11.5 -31.5t29 -20t38.5 0.5t41 30l99 -79q-20 -28 -41.5 -45.5t-44 -27.5t-45.5 -13.5t-45 -3.5q-40 0 -78 11.5t-68 35.5t-48.5 59.5t-18.5 83.5v155q0 48 18.5 84t48.5 59t68 34.5
t78 11.5q39 0 76 -11.5t66.5 -34.5t47.5 -59t18 -84v-147h-251zM238 603q0 31 21.5 52t53.5 21t54 -21t22 -52q0 -30 -22 -50.5t-54 -20.5t-53.5 20.5t-21.5 50.5zM45 603q0 31 22 52t54 21q31 0 52.5 -21t21.5 -52q0 -30 -21.5 -50.5t-52.5 -20.5q-32 0 -54 20.5t-22 50.5z
" />
    <glyph glyph-name="igrave" unicode="&#xec;" horiz-adv-x="237" 
d="M177 548h-142l-109 133h173zM13 517h172v-517h-172v517z" />
    <glyph glyph-name="iacute" unicode="&#xed;" horiz-adv-x="237" 
d="M94 686h173l-109 -133h-142zM13 517h172v-517h-172v517z" />
    <glyph glyph-name="icircumflex" unicode="&#xee;" horiz-adv-x="237" 
d="M13 517h172v-517h-172v517zM49 708h83l148 -169h-147l-42 47l-40 -47h-151z" />
    <glyph glyph-name="idieresis" unicode="&#xef;" horiz-adv-x="237" 
d="M111 619q0 32 23 54.5t59 22.5q35 0 58.5 -22.5t23.5 -54.5t-23.5 -53.5t-58.5 -21.5q-36 0 -59 21.5t-23 53.5zM-83 619q0 32 23.5 54.5t57.5 22.5q35 0 58.5 -22.5t23.5 -54.5t-23.5 -53.5t-58.5 -21.5q-34 0 -57.5 21.5t-23.5 53.5zM13 517h172v-517h-172v517z" />
    <glyph glyph-name="eth" unicode="&#xf0;" 
d="M241 762l83 -31l-15 -38q28 -11 52 -29.5t41.5 -45t27.5 -61t10 -77.5v-453q-35 -17 -79.5 -28.5t-91 -14.5t-91.5 4.5t-80 28.5t-56.5 57.5t-21.5 91.5v183q-1 64 29.5 103t78.5 59q15 6 33.5 9t38 3t38 -3t34.5 -9q2 17 -3 30t-13 22l-10 -25l-82 24l10 26
q-33 -3 -59 -20l-59 80q35 30 77.5 45.5t87.5 15.5zM271 381q-12 7 -27 10t-28.5 -0.5t-22.5 -13.5t-9 -29v-186q0 -19 9.5 -30t23.5 -15.5t28.5 -2.5t25.5 9v258z" />
    <glyph glyph-name="ntilde" unicode="&#xf1;" horiz-adv-x="517" 
d="M20 492q38 18 84 29.5t93 13t91 -8t78.5 -33t55 -61.5t20.5 -93v-339h-168v338q0 19 -8.5 29.5t-21.5 15t-28 3.5t-27 -6v-380h-169v492zM80 583q10 56 37 82t59 26q18 0 33.5 -8t29 -14t26.5 -4.5t27 19.5l78 -39q-14 -42 -35 -64t-41 -31q-16 -6 -30.5 -3.5t-27 8
t-24.5 11.5t-22.5 7.5t-20.5 -3.5t-20 -21z" />
    <glyph glyph-name="ograve" unicode="&#xf2;" horiz-adv-x="499" 
d="M302 549h-142l-109 133h173zM220 378q-15 0 -30.5 -10t-15.5 -28v-168q1 -18 14.5 -28.5t30.5 -10.5t30.5 10.5t14.5 28.5v168q0 18 -14.5 28t-29.5 10zM8 337q0 48 18 83.5t48 59.5t68 36t78 12q39 0 77 -12t68 -36t48 -59.5t18 -83.5v-163q0 -61 -31.5 -101.5
t-78.5 -61t-101.5 -20.5t-101.5 20.5t-78.5 61t-31.5 101.5v163z" />
    <glyph glyph-name="oacute" unicode="&#xf3;" horiz-adv-x="499" 
d="M213 685h173l-109 -133h-142zM220 378q-15 0 -30.5 -10t-15.5 -28v-168q1 -18 14.5 -28.5t30.5 -10.5t30.5 10.5t14.5 28.5v168q0 18 -14.5 28t-29.5 10zM8 337q0 48 18 83.5t48 59.5t68 36t78 12q39 0 77 -12t68 -36t48 -59.5t18 -83.5v-163q0 -61 -31.5 -101.5
t-78.5 -61t-101.5 -20.5t-101.5 20.5t-78.5 61t-31.5 101.5v163z" />
    <glyph glyph-name="ocircumflex" unicode="&#xf4;" horiz-adv-x="499" 
d="M177 692h80l145 -151h-143l-41 42l-39 -42h-147zM218 378q-15 0 -29.5 -10t-14.5 -28v-168q1 -18 14.5 -28.5t30.5 -10.5t30.5 10.5t14.5 28.5v168q0 18 -15.5 28t-30.5 10zM8 337q0 48 18 83.5t48 59.5t68 36t78 12q39 0 77 -12t68 -36t48 -59.5t18 -83.5v-163
q0 -61 -31.5 -101.5t-78.5 -61t-101.5 -20.5t-101.5 20.5t-78.5 61t-31.5 101.5v163z" />
    <glyph glyph-name="otilde" unicode="&#xf5;" horiz-adv-x="499" 
d="M65 575q10 59 38.5 86t61.5 27q20 1 36.5 -7t31 -13.5t28 -4t28.5 20.5l82 -41q-14 -45 -35.5 -66t-43.5 -31q-25 -9 -46.5 -1.5t-40 15.5t-35 7.5t-31.5 -27.5zM220 378q-15 0 -30.5 -10t-15.5 -28v-168q1 -18 14.5 -28.5t30.5 -10.5t30.5 10.5t14.5 28.5v168
q0 18 -14.5 28t-29.5 10zM8 337q0 48 18 83.5t48 59.5t68 36t78 12q39 0 77 -12t68 -36t48 -59.5t18 -83.5v-163q0 -61 -31.5 -101.5t-78.5 -61t-101.5 -20.5t-101.5 20.5t-78.5 61t-31.5 101.5v163z" />
    <glyph glyph-name="odieresis" unicode="&#xf6;" horiz-adv-x="499" 
d="M220 378q-15 0 -30.5 -10t-15.5 -28v-168q1 -18 14.5 -28.5t30.5 -10.5t30.5 10.5t14.5 28.5v168q0 18 -14.5 28t-29.5 10zM8 337q0 48 18 83.5t48 59.5t68 36t78 12q39 0 77 -12t68 -36t48 -59.5t18 -83.5v-163q0 -61 -31.5 -101.5t-78.5 -61t-101.5 -20.5t-101.5 20.5
t-78.5 61t-31.5 101.5v163zM240 605q0 32 21.5 53.5t54.5 21.5t55.5 -21.5t22.5 -53.5q0 -30 -22.5 -51.5t-55.5 -21.5t-54.5 21.5t-21.5 51.5zM43 605q0 32 22 53.5t54 21.5t54.5 -21.5t22.5 -53.5q0 -30 -22.5 -51.5t-54.5 -21.5t-54 21.5t-22 51.5z" />
    <glyph glyph-name="divide" unicode="&#xf7;" horiz-adv-x="534" 
d="M133 478q0 21 8 39.5t22 32t32 21.5t39 8t39.5 -8t33 -21.5t22.5 -32t8 -39.5q0 -26 -12 -48t-32 -36h169v-172h-167q20 -14 32.5 -36t12.5 -48q0 -21 -8 -40t-22 -32.5t-32 -21.5t-39 -8t-39.5 8t-33 21.5t-22.5 32.5t-8 40q0 28 12.5 49t32.5 35h-173v172h168
q-20 14 -31.5 36t-11.5 48z" />
    <glyph glyph-name="oslash" unicode="&#xf8;" horiz-adv-x="497" 
d="M281 571l100 -35l-19 -52q32 -24 51.5 -60.5t19.5 -86.5v-163q0 -52 -23 -89t-59 -59t-80.5 -30t-88.5 -1l-17 -47l-98 35l17 48q-33 23 -53.5 58.5t-20.5 84.5v163q0 48 18 83.5t48 59.5t68 36t78 12q23 0 42 -4zM165 246l46 131q-17 2 -31.5 -8.5t-14.5 -30.5v-92z
M274 250l-45 -125q19 -1 31.5 8t13.5 31v86z" />
    <glyph glyph-name="ugrave" unicode="&#xf9;" horiz-adv-x="506" 
d="M306 541h-142l-109 133h173zM438 26q-38 -18 -84 -29.5t-93 -13t-91 8t-78.5 33t-55 61.5t-20.5 93v339h168v-338q0 -19 8.5 -29.5t21.5 -15t28 -3.5t27 6v380h169v-492z" />
    <glyph glyph-name="uacute" unicode="&#xfa;" horiz-adv-x="506" 
d="M227 674h173l-109 -133h-142zM438 26q-38 -18 -84 -29.5t-93 -13t-91 8t-78.5 33t-55 61.5t-20.5 93v339h168v-338q0 -19 8.5 -29.5t21.5 -15t28 -3.5t27 6v380h169v-492z" />
    <glyph glyph-name="ucircumflex" unicode="&#xfb;" horiz-adv-x="506" 
d="M185 696h78l140 -150h-139l-39 34l-37 -34h-143zM438 26q-38 -18 -84 -29.5t-93 -13t-91 8t-78.5 33t-55 61.5t-20.5 93v339h168v-338q0 -19 8.5 -29.5t21.5 -15t28 -3.5t27 6v380h169v-492z" />
    <glyph glyph-name="udieresis" unicode="&#xfc;" horiz-adv-x="506" 
d="M438 26q-38 -18 -84 -29.5t-93 -13t-91 8t-78.5 33t-55 61.5t-20.5 93v339h168v-338q0 -19 8.5 -29.5t21.5 -15t28 -3.5t27 6v380h169v-492zM254 622q0 34 23.5 57t61.5 23q36 0 60.5 -23t24.5 -57q0 -32 -24.5 -55t-60.5 -23q-38 0 -61.5 23t-23.5 55zM36 622
q0 34 25 57t60 23t60 -23t25 -57q0 -32 -25 -55t-60 -23t-60 23t-25 55z" />
    <glyph glyph-name="yacute" unicode="&#xfd;" 
d="M226 677h173l-109 -133h-142zM433 518v-480q0 -60 -19 -103t-50.5 -71t-72 -40t-83 -10t-84 18t-75.5 45q20 24 34.5 47.5t34.5 47.5q23 -15 49 -20.5t47.5 -1.5t36 18t14.5 39q-16 -6 -34.5 -9t-38 -3t-38 3t-33.5 9q-48 20 -78.5 59t-29.5 103v349h164v-348
q0 -19 9 -29t22.5 -13.5t28.5 -1t27 10.5v381h169z" />
    <glyph glyph-name="thorn" unicode="&#xfe;" horiz-adv-x="510" 
d="M20 708h168v-194q12 3 25 5.5t25 2.5q39 0 76 -11.5t66 -35t46.5 -59t17.5 -84.5v-158q0 -43 -18 -77t-47.5 -57.5t-67.5 -36t-77 -12.5q-11 0 -22.5 2t-23.5 5v-156h-168v866zM188 136q12 -6 26.5 -8t27.5 2t22 14.5t11 29.5v163q-2 19 -11 30t-22 15t-27.5 2.5
t-26.5 -6.5v-242z" />
    <glyph glyph-name="ydieresis" unicode="&#xff;" 
d="M243 625q0 35 24 59t62 24t63 -24t25 -59q0 -34 -25 -57.5t-63 -23.5t-62 23.5t-24 57.5zM21 625q0 35 25 59t61 24q37 0 62 -24t25 -59q0 -34 -25 -57.5t-62 -23.5q-36 0 -61 23.5t-25 57.5zM433 518v-480q0 -60 -19 -103t-50.5 -71t-72 -40t-83 -10t-84 18t-75.5 45
q20 24 34.5 47.5t34.5 47.5q23 -15 49 -20.5t47.5 -1.5t36 18t14.5 39q-16 -6 -34.5 -9t-38 -3t-38 3t-33.5 9q-48 20 -78.5 59t-29.5 103v349h164v-348q0 -19 9 -29t22.5 -13.5t28.5 -1t27 10.5v381h169z" />
    <glyph glyph-name="OE" unicode="&#x152;" horiz-adv-x="842" 
d="M786 536h-258v-102h232v-163h-232v-103h258v-168h-421v35q-52 -40 -111.5 -43t-110.5 23t-84.5 77t-33.5 118v277q0 47 14.5 86.5t39.5 68.5t59 47t71.5 24t77.5 -2t78 -31v27h421v-171zM318 147q11 0 24 5t23 17v367q-22 18 -50 21.5t-52.5 -4t-41 -25.5t-16.5 -42v-269
q0 -24 9.5 -37.5t25.5 -21t36.5 -9.5t41.5 -2z" />
    <glyph glyph-name="oe" unicode="&#x153;" horiz-adv-x="749" 
d="M435 189v-8q0 -17 11.5 -31.5t29 -20t38.5 0.5t41 30l99 -79q-20 -28 -41.5 -45.5t-44 -27.5t-45.5 -13.5t-45 -3.5q-17 0 -35.5 3t-36 10.5t-33 20t-27.5 31.5q-23 -32 -55.5 -47.5t-65.5 -16.5q-41 -1 -79.5 10t-69.5 34t-49.5 57.5t-18.5 80.5v163q0 48 18 83.5
t48 59.5t68 36t78 12q81 0 129 -59q29 32 61.5 43.5t67.5 12.5q40 1 78 -10t66.5 -35t46 -60t17.5 -84v-147h-251zM220 378q-15 0 -30.5 -10t-15.5 -28v-168q1 -18 14.5 -28.5t30.5 -10.5t31 10.5t15 28.5v164v7q-2 17 -16.5 26t-28.5 9zM533 342q0 19 -15 29t-34 10.5
t-35 -8.5t-18 -28v-45h102v42z" />
    <glyph glyph-name="Scaron" unicode="&#x160;" horiz-adv-x="568" 
d="M111 224q27 -32 65.5 -49t75 -18.5t63 11.5t28.5 42q1 15 -10 27t-28 20.5t-39 14.5t-44 9q-43 7 -82.5 24t-70 44.5t-48.5 66.5t-17 90q3 52 25 91.5t57 66.5t80 40.5t94 13.5q32 0 63.5 -5t62 -18t60 -35t56.5 -55l-117 -90q-28 30 -63 44t-66 13.5t-52.5 -16.5
t-22.5 -47q2 -26 27 -41.5t67 -24.5q47 -9 92.5 -23t80 -40.5t54.5 -69t17 -108.5q-5 -51 -31 -90.5t-65 -66.5t-87 -40.5t-97 -13.5q-64 0 -127.5 31.5t-113.5 95.5zM301 739h-90l-174 143h173l47 -38l44 38h174z" />
    <glyph glyph-name="scaron" unicode="&#x161;" horiz-adv-x="397" 
d="M63 174q27 -20 57.5 -27.5t55.5 -5.5q13 1 18.5 8t4 14.5t-10 14t-22.5 7.5q-45 8 -77.5 25.5t-53.5 40.5t-31.5 50.5t-10.5 56.5q0 31 12 60.5t35.5 52.5t58 37.5t78.5 15.5q35 0 83 -13.5t96 -53.5l-82 -104q-31 14 -52.5 18t-32.5 4q-9 0 -16.5 -4.5t-7.5 -15.5
q-1 -5 4.5 -10t13 -9t15.5 -7t14 -4q25 -6 52.5 -17t49.5 -29t36.5 -45t14.5 -66q0 -44 -16 -77.5t-43 -55.5t-61.5 -33t-71.5 -11q-51 0 -97.5 17.5t-87.5 65.5zM214 546h-72l-139 144h138l38 -37l35 37h139z" />
    <glyph glyph-name="Ydieresis" unicode="&#x178;" horiz-adv-x="580" 
d="M290 824q0 19 6.5 35.5t18.5 29t28.5 19.5t35.5 7q39 0 65 -26.5t26 -64.5q0 -37 -26 -62.5t-65 -25.5q-38 0 -63.5 25.5t-25.5 62.5zM49 824q0 38 26 64.5t63 26.5t63.5 -26.5t26.5 -64.5q0 -37 -26.5 -62.5t-63.5 -25.5t-63 25.5t-26 62.5zM355 279v-279h-179v279
l-247 429h208l128 -270l128 270h210z" />
    <glyph glyph-name="Zcaron" unicode="&#x17d;" horiz-adv-x="578" 
d="M1 542v166h502l51 -60l-305 -485l288 2v-165h-514l-44 66l306 476h-284zM313 727h-92l-177 164h176l48 -43l45 43h177z" />
    <glyph glyph-name="zcaron" unicode="&#x17e;" horiz-adv-x="417" 
d="M230 536h-72l-139 136h138l38 -37l35 37h139zM-5 368v150h349l48 -47l-183 -321h176v-150h-361l-46 52l182 316h-165z" />
    <glyph glyph-name="florin" unicode="&#x192;" horiz-adv-x="458" 
d="M8 40q26 -13 43 -6.5t22 35.5l45 235h-71v146h98l21 96q9 52 37.5 92.5t69 60t89 14.5t95.5 -43l-56 -108q-26 11 -42 3.5t-22 -37.5l-18 -78h70v-146h-96l-49 -269q-10 -51 -37.5 -85t-65.5 -49.5t-83.5 -12t-90.5 28.5z" />
    <glyph glyph-name="circumflex" unicode="&#x2c6;" horiz-adv-x="470" 
d="M162 712h109l196 -215h-194l-55 60l-53 -60h-199z" />
    <glyph glyph-name="tilde" unicode="&#x2dc;" horiz-adv-x="330" 
d="M-21 600q14 64 47.5 93t70.5 28q22 0 39 -10t33 -18t31 -7.5t33 21.5l89 -51q-19 -48 -44 -72.5t-50 -33.5q-29 -9 -52 1.5t-43 21t-38.5 11t-36.5 -27.5z" />
    <glyph glyph-name="endash" unicode="&#x2013;" horiz-adv-x="542" 
d="M7 374h479v-169h-479v169z" />
    <glyph glyph-name="emdash" unicode="&#x2014;" horiz-adv-x="875" 
d="M21 374h776v-169h-776v169z" />
    <glyph glyph-name="quoteleft" unicode="&#x2018;" horiz-adv-x="266" 
d="M180 492h-202l113 217h157z" />
    <glyph glyph-name="quoteright" unicode="&#x2019;" horiz-adv-x="309" 
d="M88 706h202l-103 -206h-157z" />
    <glyph glyph-name="quotesinglbase" unicode="&#x201a;" horiz-adv-x="257" 
d="M25 115h195l-117 -219h-152z" />
    <glyph glyph-name="quotedblleft" unicode="&#x201c;" horiz-adv-x="550" 
d="M207 492h-202l113 217h157zM441 492h-202l113 217h157z" />
    <glyph glyph-name="quotedblright" unicode="&#x201d;" horiz-adv-x="518" 
d="M66 706h202l-103 -206h-157zM297 706h202l-103 -206h-157z" />
    <glyph glyph-name="quotedblbase" unicode="&#x201e;" horiz-adv-x="496" 
d="M44 104h195l-117 -208h-152zM267 104h196l-117 -208h-152z" />
    <glyph glyph-name="dagger" unicode="&#x2020;" horiz-adv-x="504" 
d="M135 348h-145v170h145v190h171v-190h145v-170h-145v-444h-171v444z" />
    <glyph glyph-name="daggerdbl" unicode="&#x2021;" horiz-adv-x="501" 
d="M135 69h-145v166h145v141h-145v165h145v167h171v-167h145v-165h-145v-141h145v-166h-145v-165h-171v165z" />
    <glyph glyph-name="bullet" unicode="&#x2022;" horiz-adv-x="414" 
d="M20 331q0 33 12.5 62.5t34.5 51.5t52 35t64 13q33 0 62.5 -13t51.5 -35t34.5 -51.5t12.5 -62.5q0 -34 -12.5 -63.5t-34.5 -51.5t-51.5 -35t-62.5 -13q-34 0 -64 13t-52 35t-34.5 51.5t-12.5 63.5z" />
    <glyph glyph-name="ellipsis" unicode="&#x2026;" horiz-adv-x="847" 
d="M45 95q0 21 8 39t21.5 31.5t32 21t39.5 7.5q42 0 70.5 -28.5t28.5 -70.5q0 -21 -7.5 -39.5t-21 -32t-31.5 -21.5t-39 -8t-39.5 8t-32 21.5t-21.5 32t-8 39.5zM310 95q0 42 28 70.5t70 28.5q21 0 39.5 -7.5t32 -21t21.5 -31.5t8 -39t-8 -39.5t-21.5 -32t-32 -21.5
t-39.5 -8t-38.5 8t-31 21.5t-21 32t-7.5 39.5zM573 95q0 21 7.5 39t21 31.5t31.5 21t39 7.5q44 0 72 -28.5t28 -70.5q0 -21 -7.5 -39.5t-21 -32t-31.5 -21.5t-40 -8q-21 0 -39 8t-31.5 21.5t-21 32t-7.5 39.5z" />
    <glyph glyph-name="perthousand" unicode="&#x2030;" horiz-adv-x="1064" 
d="M296 541q0 -41 -11.5 -74t-31.5 -56t-47.5 -35t-60.5 -12q-71 0 -109.5 45.5t-38.5 133.5q0 81 41.5 128t106.5 47q73 0 112 -46t39 -131zM155 -76l-129 83l492 760l129 -86zM177 541q0 32 -9 46t-24 14t-25 -14t-10 -45q0 -32 10 -45.5t25 -13.5q33 0 33 58zM686 171
q0 -41 -11.5 -74t-31.5 -56t-47.5 -35t-60.5 -12q-71 0 -109.5 45.5t-38.5 133.5q0 81 41.5 128t106.5 47q73 0 112 -46t39 -131zM567 171q0 32 -9 46t-24 14t-25 -14t-10 -45q0 -32 10 -45.5t25 -13.5q33 0 33 58zM1020 171q0 -41 -11.5 -74t-31.5 -56t-47.5 -35t-60.5 -12
q-71 0 -109.5 45.5t-38.5 133.5q0 81 41.5 128t106.5 47q73 0 112 -46t39 -131zM901 171q0 32 -9 46t-24 14t-25 -14t-10 -45q0 -32 10 -45.5t25 -13.5q33 0 33 58z" />
    <glyph glyph-name="guilsinglleft" unicode="&#x2039;" horiz-adv-x="338" 
d="M-7 287l160 238l144 -87l-103 -150q12 -18 25.5 -38t27 -40.5t26.5 -40t24 -36.5l-145 -85z" />
    <glyph glyph-name="guilsinglright" unicode="&#x203a;" horiz-adv-x="347" 
d="M307 287l-157 -238l-148 84l103 154l-102 151l145 86z" />
    <glyph glyph-name="Euro" unicode="&#x20ac;" horiz-adv-x="602" 
d="M19 470h27v4q0 60 24 105.5t63.5 75.5t90.5 45.5t104 15.5q33 0 68 -8t68 -26.5t62.5 -50t50.5 -78.5l-146 -59q-18 33 -52.5 46.5t-68.5 9.5t-59.5 -23.5t-25.5 -52.5v-4h178l-23 -108h-155v-31h178l-23 -108h-154q4 -29 30.5 -46t59 -18.5t63.5 13.5t45 50l156 -72
q-22 -43 -52 -73.5t-64 -49.5t-70 -27.5t-69 -8.5q-51 0 -100 14.5t-88 43.5t-64 72.5t-27 101.5h-49l22 108h27v31h-49z" />
    <glyph glyph-name="trademark" unicode="&#x2122;" horiz-adv-x="820" 
d="M515 291h-154v418h137l69 -132l71 132h133v-418h-149l3 119l-42 -73h-25l-45 74zM242 289h-165v258h-88v162h343v-162h-90v-258z" />
    </font>
</defs>
</svg>
